<?xml version="1.0" standalone="no"?><!DOCTYPE svg PUBLIC "-//W3C//DTD SVG 1.1//EN" "http://www.w3.org/Graphics/SVG/1.1/DTD/svg11.dtd"><svg height="1024" node-id="1" sillyvg="true" template-height="1024" template-width="1024" version="1.1" viewBox="0 0 1024 1024" width="1024" xmlns="http://www.w3.org/2000/svg" xmlns:xlink="http://www.w3.org/1999/xlink"><defs node-id="95"></defs><path d="M 0.00 0.00 L 1024.00 0.00 L 1024.00 1024.00 L 0.00 1024.00 Z" fill="#ffffff" fill-rule="nonzero" node-id="97" stroke="none" target-height="1024" target-width="1024" target-x="0" target-y="0"></path><path d="M 360.00 79.40 L 363.50 76.80 L 367.30 74.80 L 371.10 73.40 L 375.20 72.50 L 379.30 72.00 L 383.60 72.00 L 392.10 73.10 L 396.30 74.20 L 402.40 76.20 L 408.10 78.60 L 415.00 82.40 L 421.60 86.60 L 427.90 91.20 L 439.90 101.10 L 453.90 114.90 L 461.80 123.50 L 468.30 131.40 L 474.50 139.60 L 480.20 148.10 L 485.50 156.90 L 490.40 166.00 L 494.80 175.20 L 498.80 184.70 L 502.30 194.30 L 505.30 204.20 L 507.70 214.10 L 509.70 224.20 L 511.10 234.40 L 511.70 244.80 L 511.90 255.30 L 511.40 286.70 L 511.70 297.10 L 521.50 296.30 L 526.70 268.90 L 528.90 259.90 L 532.60 248.10 L 539.50 232.10 L 544.50 222.20 L 550.00 212.60 L 556.00 203.30 L 562.40 194.20 L 569.10 185.40 L 576.20 176.90 L 583.70 168.60 L 594.00 158.00 L 604.70 147.70 L 615.70 137.90 L 633.30 124.60 L 642.40 118.30 L 651.70 112.50 L 661.30 107.00 L 671.10 101.80 L 679.00 98.20 L 687.20 95.10 L 692.80 93.30 L 698.40 92.00 L 704.20 91.10 L 712.80 90.90 L 721.50 92.20 L 728.00 94.60 L 733.60 98.30 L 736.90 101.40 L 739.80 104.90 L 742.20 108.80 L 744.20 112.90 L 745.70 117.20 L 746.70 121.60 L 747.10 127.50 L 747.10 151.20 L 749.60 178.70 L 750.00 189.50 L 749.90 205.70 L 749.10 221.90 L 747.30 233.30 L 745.00 244.70 L 742.10 255.90 L 738.70 267.10 L 734.70 278.10 L 730.30 288.80 L 725.30 299.30 L 719.80 309.60 L 713.90 319.50 L 707.40 329.20 L 700.40 338.40 L 692.90 347.40 L 684.10 356.40 L 672.00 366.60 L 649.50 384.10 L 651.90 392.30 L 660.20 416.60 L 662.60 424.70 L 664.40 433.10 L 666.00 442.80 L 667.00 452.50 L 667.40 462.20 L 667.00 481.60 L 666.20 491.30 L 662.80 523.40 L 662.90 526.30 L 663.50 528.90 L 665.00 532.80 L 667.10 536.50 L 674.60 547.10 L 679.00 554.50 L 682.40 562.40 L 683.50 566.60 L 684.60 572.20 L 685.20 577.90 L 685.30 583.70 L 684.90 592.50 L 683.80 601.00 L 681.70 608.00 L 679.00 614.90 L 675.80 621.60 L 672.10 628.10 L 667.90 634.20 L 663.10 639.90 L 659.30 643.90 L 655.10 647.50 L 650.70 650.90 L 646.00 653.90 L 636.60 658.90 L 631.70 660.90 L 609.10 668.90 L 601.70 671.80 L 605.20 676.00 L 609.10 679.80 L 613.40 683.20 L 618.00 686.20 L 622.70 688.90 L 637.40 696.30 L 665.80 712.40 L 677.40 703.20 L 683.50 698.90 L 689.90 695.20 L 694.30 693.10 L 698.90 691.40 L 703.70 690.00 L 708.60 688.90 L 713.50 688.10 L 718.40 687.80 L 723.40 687.90 L 728.40 688.30 L 733.30 689.20 L 738.10 690.50 L 742.80 692.10 L 747.30 694.20 L 750.50 696.00 L 756.10 700.50 L 759.90 704.30 L 774.10 721.40 L 777.30 726.30 L 779.90 731.50 L 782.10 736.90 L 783.90 742.50 L 785.20 748.20 L 786.20 754.00 L 787.00 765.60 L 786.50 771.40 L 785.70 777.00 L 784.40 782.50 L 782.70 787.80 L 778.10 798.10 L 772.30 807.80 L 767.70 813.90 L 762.70 819.60 L 757.20 824.90 L 751.40 829.90 L 745.40 834.30 L 739.10 838.40 L 735.30 840.50 L 722.70 845.60 L 718.70 847.60 L 715.10 850.00 L 712.90 851.90 L 711.10 854.20 L 707.90 859.20 L 706.90 861.40 L 706.30 863.60 L 706.00 867.10 L 706.30 870.70 L 709.10 885.30 L 709.30 889.00 L 708.80 892.60 L 707.90 896.30 L 706.60 899.70 L 704.90 902.90 L 700.50 908.60 L 697.80 911.10 L 693.50 914.60 L 688.90 917.70 L 679.20 923.00 L 665.60 929.50 L 651.60 935.40 L 632.50 942.30 L 622.80 945.10 L 613.00 947.60 L 603.10 949.50 L 593.10 950.90 L 585.60 951.60 L 570.50 951.90 L 555.60 950.80 L 548.30 949.60 L 541.20 947.80 L 534.20 945.50 L 527.50 942.70 L 521.00 939.30 L 516.30 936.50 L 511.90 933.20 L 507.70 929.70 L 502.70 924.70 L 500.50 923.30 L 498.70 922.90 L 496.70 923.00 L 492.70 923.70 L 478.40 927.20 L 467.90 929.20 L 457.40 930.90 L 446.80 932.00 L 436.10 932.70 L 425.50 932.90 L 414.80 932.60 L 404.20 931.70 L 399.00 931.00 L 394.00 929.80 L 389.10 928.30 L 379.70 924.20 L 368.50 917.70 L 362.20 913.30 L 359.50 911.10 L 357.10 908.70 L 355.10 906.00 L 353.40 903.10 L 351.70 898.90 L 350.50 894.60 L 349.80 890.10 L 349.80 885.50 L 350.30 881.00 L 352.60 872.70 L 354.30 869.10 L 356.30 865.70 L 359.80 860.80 L 371.80 847.20 L 358.80 807.10 L 355.10 797.30 L 347.00 778.70 L 343.70 769.70 L 341.00 760.50 L 338.80 751.00 L 337.20 741.50 L 336.00 732.00 L 335.30 722.40 L 334.70 688.20 L 335.00 682.10 L 336.40 672.10 L 337.40 668.20 L 343.10 652.20 L 343.80 649.20 L 344.00 646.00 L 333.80 640.50 L 318.00 633.30 L 305.90 626.50 L 298.90 622.10 L 285.50 612.50 L 279.10 607.30 L 273.00 601.80 L 267.20 596.00 L 261.90 589.80 L 256.80 583.40 L 252.30 576.60 L 248.20 569.50 L 244.70 561.90 L 242.20 555.00 L 240.20 547.80 L 238.60 540.40 L 237.50 532.90 L 237.00 525.40 L 237.10 517.90 L 237.60 512.30 L 239.70 501.40 L 241.30 496.10 L 243.30 491.00 L 245.80 486.00 L 248.70 481.20 L 252.10 476.50 L 256.30 472.10 L 262.60 468.00 L 275.00 461.90 L 278.90 459.70 L 282.50 457.00 L 284.60 455.00 L 286.50 452.70 L 291.70 443.20 L 294.90 436.20 L 305.80 407.60 L 310.60 396.70 L 316.10 386.00 L 320.00 379.00 L 328.80 365.70 L 333.70 359.50 L 339.00 353.50 L 354.30 338.20 L 356.40 335.50 L 358.00 332.50 L 357.40 328.50 L 356.30 324.60 L 345.60 298.60 L 341.40 287.40 L 337.60 276.00 L 334.20 264.50 L 331.40 252.90 L 329.20 241.10 L 328.00 232.20 L 327.20 223.30 L 326.80 214.30 L 326.80 205.30 L 327.60 194.40 L 329.00 183.60 L 331.00 172.90 L 333.60 162.40 L 336.70 152.00 L 346.70 125.70 L 348.40 120.20 L 349.90 112.70 L 351.30 96.80 L 352.00 92.90 L 353.10 89.00 L 354.70 85.50 L 356.10 83.30 L 360.00 79.40 Z M 379.20 105.90 L 377.50 113.80 L 375.40 121.60 L 362.30 160.10 L 358.20 174.70 L 356.70 181.50 L 355.60 188.40 L 354.30 202.30 L 354.30 219.90 L 355.00 230.30 L 356.70 240.00 L 361.20 259.00 L 364.00 268.40 L 368.10 280.70 L 372.70 292.90 L 377.80 305.00 L 385.90 322.90 L 394.40 340.50 L 386.40 346.00 L 378.70 351.90 L 371.40 358.30 L 364.50 365.20 L 358.00 372.40 L 352.00 380.00 L 346.40 388.00 L 341.40 396.30 L 336.80 404.90 L 333.40 412.20 L 330.40 419.70 L 322.30 442.40 L 319.30 449.90 L 314.60 459.50 L 311.80 464.10 L 305.50 472.60 L 301.80 476.60 L 297.90 480.30 L 293.70 483.50 L 289.20 486.30 L 285.70 488.00 L 282.00 489.30 L 278.10 490.20 L 274.00 490.80 L 281.50 496.10 L 272.10 501.00 L 269.20 503.00 L 262.50 518.30 L 271.70 520.30 L 268.50 531.90 L 267.80 535.80 L 267.60 539.80 L 268.00 543.80 L 270.10 550.10 L 272.70 556.10 L 275.80 561.90 L 279.30 567.50 L 283.20 572.80 L 287.40 577.80 L 296.80 587.20 L 308.20 596.60 L 314.90 601.40 L 328.90 609.90 L 338.60 614.90 L 348.50 619.60 L 358.60 623.90 L 389.30 635.40 L 378.70 648.90 L 372.10 658.20 L 369.40 663.20 L 366.80 669.60 L 364.80 676.00 L 363.30 682.70 L 362.40 689.50 L 361.90 696.20 L 362.00 703.10 L 362.10 709.10 L 364.40 727.00 L 364.90 733.00 L 364.80 744.90 L 365.40 750.70 L 366.50 756.50 L 368.10 762.10 L 370.30 767.50 L 373.10 772.70 L 375.00 775.50 L 381.60 783.30 L 385.40 788.80 L 388.80 807.70 L 390.30 813.90 L 392.10 820.10 L 397.00 831.80 L 399.90 837.20 L 403.30 842.50 L 408.80 850.00 L 414.80 857.20 L 400.90 861.60 L 392.00 865.40 L 387.80 867.90 L 382.90 872.00 L 379.10 876.50 L 377.80 878.80 L 376.80 881.40 L 376.30 884.00 L 376.20 886.60 L 376.70 889.10 L 377.50 890.60 L 378.50 891.90 L 383.90 896.20 L 388.10 898.80 L 392.40 901.00 L 396.80 902.90 L 403.00 904.90 L 409.30 906.30 L 415.80 907.30 L 422.40 907.90 L 435.40 908.20 L 456.80 905.90 L 467.50 904.20 L 478.00 902.10 L 491.90 898.40 L 498.70 896.10 L 502.50 894.50 L 506.10 892.30 L 516.00 884.90 L 519.60 882.80 L 524.30 883.00 L 538.40 884.60 L 530.70 893.80 L 528.80 897.20 L 528.00 899.60 L 527.50 902.20 L 527.50 906.40 L 528.20 908.80 L 529.30 910.40 L 533.50 914.90 L 539.70 917.70 L 546.00 920.10 L 552.50 922.00 L 559.00 923.50 L 565.70 924.50 L 572.50 925.00 L 580.70 924.90 L 588.70 924.50 L 596.80 923.70 L 604.70 922.40 L 615.30 920.20 L 625.70 917.40 L 636.00 914.20 L 646.20 910.50 L 666.10 902.20 L 676.00 897.00 L 679.10 894.90 L 681.80 892.40 L 684.10 889.40 L 684.50 887.10 L 684.40 882.60 L 683.60 879.40 L 682.30 876.20 L 675.30 864.40 L 679.30 858.80 L 686.40 847.20 L 689.50 841.10 L 692.10 834.80 L 694.30 828.30 L 700.00 827.40 L 705.70 826.10 L 711.20 824.40 L 716.60 822.30 L 721.90 819.80 L 731.90 813.80 L 741.10 806.50 L 745.20 802.40 L 749.00 798.10 L 752.60 793.40 L 755.80 788.60 L 758.60 783.50 L 761.00 778.20 L 762.90 772.70 L 763.60 769.80 L 763.80 767.10 L 763.50 764.50 L 762.40 760.80 L 756.00 747.10 L 754.20 739.20 L 753.40 736.80 L 750.80 732.40 L 747.20 728.80 L 744.10 726.60 L 737.70 723.30 L 726.40 715.60 L 721.40 713.70 L 719.20 713.50 L 713.60 713.70 L 710.70 714.20 L 707.90 715.10 L 704.00 717.00 L 689.20 727.30 L 683.10 730.50 L 681.30 731.80 L 677.40 736.10 L 671.60 744.90 L 666.80 740.50 L 661.80 736.60 L 656.50 733.20 L 651.00 730.20 L 639.40 724.90 L 612.70 714.10 L 604.10 710.00 L 598.60 706.90 L 593.30 703.30 L 583.80 695.50 L 579.60 691.30 L 575.80 686.70 L 572.50 681.80 L 569.80 676.60 L 567.60 671.20 L 566.40 667.00 L 565.70 662.70 L 565.40 658.20 L 565.60 653.60 L 571.40 653.30 L 577.20 652.50 L 583.00 651.30 L 594.30 647.80 L 608.00 642.10 L 615.90 638.30 L 619.80 637.10 L 627.70 635.40 L 630.10 633.00 L 635.50 624.50 L 644.00 625.60 L 649.70 615.60 L 651.10 612.10 L 652.10 608.40 L 652.50 604.50 L 652.20 600.30 L 649.90 587.90 L 660.70 588.80 L 659.50 585.10 L 657.00 572.90 L 655.70 569.10 L 653.90 565.70 L 652.40 563.70 L 650.40 562.00 L 647.90 560.50 L 646.80 557.50 L 640.40 546.00 L 637.90 537.90 L 637.00 532.80 L 636.60 527.80 L 636.80 520.20 L 637.50 512.60 L 640.60 489.60 L 641.50 473.00 L 641.30 464.10 L 640.60 455.30 L 639.40 446.40 L 637.70 437.60 L 635.50 429.00 L 633.00 420.40 L 629.90 412.00 L 626.50 403.80 L 622.60 395.70 L 618.40 387.90 L 613.70 380.30 L 616.20 376.90 L 621.90 371.00 L 626.60 367.20 L 647.10 353.30 L 658.70 343.60 L 665.40 337.50 L 671.70 331.10 L 677.70 324.30 L 683.30 317.30 L 688.60 310.10 L 693.60 302.60 L 698.20 294.80 L 702.50 286.90 L 706.30 278.70 L 709.80 270.40 L 712.90 262.00 L 715.60 253.40 L 717.80 244.70 L 719.70 235.80 L 721.10 226.90 L 722.70 211.30 L 722.90 203.50 L 722.70 191.70 L 720.70 156.50 L 720.30 144.70 L 720.60 130.20 L 720.00 124.50 L 719.00 122.00 L 716.90 119.00 L 715.30 117.80 L 712.10 117.10 L 709.00 116.90 L 705.80 117.20 L 701.20 118.20 L 696.70 119.80 L 688.00 123.70 L 677.60 129.40 L 667.40 135.50 L 657.50 142.00 L 647.90 149.00 L 638.60 156.30 L 629.50 163.90 L 612.20 180.10 L 604.00 188.60 L 595.90 197.60 L 588.30 207.00 L 580.90 216.70 L 570.90 231.90 L 562.30 247.80 L 558.50 256.00 L 555.30 264.50 L 552.60 273.10 L 550.30 282.00 L 548.70 289.90 L 547.60 297.90 L 546.60 314.00 L 546.60 330.10 L 524.10 324.90 L 512.80 322.60 L 501.40 320.70 L 493.70 319.80 L 486.00 319.40 L 478.30 319.30 L 482.40 299.90 L 484.20 290.20 L 485.60 280.40 L 486.60 267.20 L 486.60 260.60 L 485.50 247.30 L 483.90 234.00 L 482.40 225.20 L 480.40 216.60 L 477.90 208.00 L 474.70 198.90 L 471.20 190.00 L 467.10 181.30 L 462.60 172.80 L 457.70 164.50 L 452.40 156.50 L 446.70 148.80 L 440.60 141.30 L 434.10 134.20 L 427.30 127.40 L 420.20 120.90 L 408.20 111.50 L 398.60 105.20 L 393.60 102.70 L 386.50 100.10 L 381.10 99.00 L 379.60 99.30 L 378.10 100.10 L 377.10 101.20 L 376.50 102.50 L 376.60 103.80 L 377.00 104.50 L 379.20 105.90 Z" fill="#fdfdfd" fill-rule="nonzero" node-id="99" stroke="none" target-height="879.9" target-width="550" target-x="237" target-y="72"></path><path d="M 567.90 853.00 L 566.20 848.50 L 565.00 844.00 L 564.30 839.50 L 564.00 834.90 L 564.70 825.70 L 566.90 816.60 L 569.10 810.80 L 571.90 805.30 L 575.20 800.00 L 579.10 795.10 L 583.30 790.60 L 588.00 786.50 L 585.60 791.60 L 577.30 806.30 L 574.70 811.30 L 572.50 816.50 L 571.10 822.50 L 570.00 828.50 L 569.30 834.60 L 567.90 853.00 Z" fill="#f4e8a1" fill-rule="nonzero" node-id="101" stroke="none" target-height="66.5" target-width="24" target-x="564" target-y="786.5"></path><path d="M 393.00 118.40 L 400.80 127.40 L 402.30 129.90 L 403.30 132.70 L 404.00 143.20 L 409.40 171.40 L 410.50 179.10 L 412.20 199.10 L 412.50 209.10 L 412.30 219.10 L 397.30 215.30 L 398.70 242.40 L 399.50 251.40 L 400.70 260.30 L 403.50 274.30 L 404.00 279.30 L 403.70 299.90 L 404.00 305.00 L 405.50 316.80 L 405.70 323.40 L 404.90 332.20 L 403.90 336.60 L 399.30 324.70 L 383.10 286.20 L 377.60 269.70 L 374.60 256.10 L 372.90 243.70 L 370.20 218.80 L 369.60 206.30 L 369.70 189.60 L 370.20 181.30 L 371.30 173.80 L 372.80 166.50 L 374.80 159.40 L 380.00 145.40 L 383.00 138.50 L 393.00 118.40 Z" fill="#eee1e0" fill-rule="nonzero" node-id="103" stroke="none" target-height="218.20001" target-width="42.899994" target-x="369.6" target-y="118.4"></path><path d="M 533.80 494.90 L 549.00 492.80 L 553.10 495.80 L 556.90 499.30 L 561.00 504.80 L 562.50 507.80 L 563.60 510.90 L 564.20 514.30 L 564.40 521.60 L 563.60 528.90 L 561.40 535.90 L 559.90 539.30 L 557.30 544.30 L 554.30 548.90 L 545.60 551.90 L 536.70 554.50 L 521.20 553.90 L 519.40 546.50 L 518.10 539.10 L 517.70 534.10 L 517.80 524.10 L 518.50 519.20 L 519.60 514.30 L 521.20 509.40 L 537.10 510.30 L 538.20 507.30 L 538.70 504.50 L 538.50 501.90 L 538.00 500.00 L 537.00 498.20 L 535.70 496.50 L 533.80 494.90 Z M 539.70 510.30 L 539.70 517.00 L 540.10 519.10 L 541.30 521.60 L 542.60 522.60 L 540.60 522.80 L 551.50 525.70 L 548.70 545.10 L 551.10 543.20 L 553.10 541.10 L 554.90 538.50 L 556.30 535.80 L 557.20 533.00 L 557.80 530.10 L 557.80 527.10 L 557.40 524.30 L 556.50 521.70 L 555.40 519.90 L 552.30 516.70 L 550.10 515.40 L 549.70 513.80 L 549.10 512.50 L 548.10 511.50 L 546.30 510.50 L 544.10 510.00 L 541.90 510.00 L 539.70 510.30 Z" fill="#000000" fill-rule="nonzero" node-id="105" stroke="none" target-height="61.700012" target-width="46.700012" target-x="517.7" target-y="492.8"></path><path d="M 522.30 505.80 L 527.30 499.50 L 531.40 496.20 L 533.80 494.90 L 535.70 496.50 L 537.00 498.20 L 538.00 500.00 L 538.50 501.90 L 538.70 504.50 L 538.20 507.30 L 537.10 510.30 L 522.30 505.80 Z" fill="#fdfcfc" fill-rule="nonzero" node-id="107" stroke="none" target-height="15.399994" target-width="16.400024" target-x="522.3" target-y="494.9"></path><path d="M 535.00 484.10 L 546.00 478.90 L 549.80 477.60 L 553.70 476.80 L 557.80 476.50 L 561.10 477.00 L 567.10 479.10 L 571.50 481.20 L 583.80 489.20 L 592.90 481.30 L 587.40 494.40 L 589.00 495.10 L 592.20 495.40 L 594.60 494.90 L 604.40 490.30 L 606.70 489.60 L 593.80 506.60 L 605.20 506.00 L 616.70 504.90 L 608.10 509.50 L 603.60 511.40 L 594.20 514.20 L 589.40 515.10 L 584.60 512.60 L 584.20 521.60 L 583.80 526.00 L 582.80 530.40 L 583.70 517.30 L 583.70 514.10 L 583.20 510.90 L 577.90 502.40 L 574.80 498.40 L 571.40 494.80 L 567.60 491.50 L 563.40 488.70 L 558.40 486.70 L 551.90 485.70 L 539.80 485.60 L 535.00 484.10 Z" fill="#040404" fill-rule="nonzero" node-id="109" stroke="none" target-height="53.900024" target-width="81.70001" target-x="535" target-y="476.5"></path><path d="M 394.50 633.00 L 407.00 636.80 L 432.20 643.40 L 457.90 648.50 L 470.80 650.50 L 483.80 652.00 L 496.80 653.20 L 509.90 653.90 L 522.90 654.20 L 536.00 654.10 L 549.10 653.60 L 543.00 654.60 L 530.80 655.70 L 494.00 655.60 L 491.30 661.70 L 492.70 654.80 L 476.00 653.00 L 459.30 650.70 L 442.70 647.70 L 430.30 645.10 L 418.00 642.10 L 405.90 638.60 L 393.80 634.70 L 394.50 633.00 Z" fill="#362b29" fill-rule="nonzero" node-id="111" stroke="none" target-height="28.700012" target-width="155.29999" target-x="393.8" target-y="633"></path><path d="M 374.60 540.30 L 375.70 537.90 L 377.00 536.10 L 378.70 534.70 L 381.70 533.20 L 385.10 532.10 L 392.00 530.70 L 390.20 533.10 L 389.00 535.60 L 388.30 538.20 L 388.00 541.00 L 388.20 543.80 L 388.70 546.70 L 392.30 553.30 L 396.40 559.50 L 401.00 565.50 L 402.90 580.40 L 404.50 587.70 L 406.60 594.90 L 401.60 584.50 L 395.20 568.50 L 379.90 538.40 L 374.60 540.30 Z" fill="#514a70" fill-rule="nonzero" node-id="113" stroke="none" target-height="64.20001" target-width="32" target-x="374.6" target-y="530.7"></path><path d="M 379.20 105.90 L 377.00 104.50 L 376.60 103.80 L 376.50 102.50 L 377.10 101.20 L 378.10 100.10 L 379.60 99.30 L 381.10 99.00 L 386.50 100.10 L 393.60 102.70 L 398.60 105.20 L 408.20 111.50 L 420.20 120.90 L 427.30 127.40 L 434.10 134.20 L 440.60 141.30 L 446.70 148.80 L 452.40 156.50 L 457.70 164.50 L 462.60 172.80 L 467.10 181.30 L 471.20 190.00 L 474.70 198.90 L 477.90 208.00 L 480.40 216.60 L 482.40 225.20 L 483.90 234.00 L 485.50 247.30 L 486.60 260.60 L 486.30 273.80 L 484.20 290.20 L 478.30 319.30 L 476.40 319.10 L 474.10 310.70 L 476.20 302.50 L 477.90 294.20 L 479.10 285.80 L 480.00 277.40 L 480.40 269.00 L 480.40 258.40 L 479.80 247.80 L 478.60 237.40 L 476.80 226.90 L 474.30 216.60 L 471.40 206.40 L 467.80 196.50 L 463.70 186.70 L 459.00 177.70 L 454.00 168.80 L 448.50 160.20 L 442.60 151.90 L 436.30 143.90 L 429.60 136.30 L 422.50 129.00 L 415.00 122.10 L 407.10 115.60 L 403.30 112.80 L 395.30 108.10 L 382.40 102.50 L 384.70 109.30 L 379.20 105.90 Z" fill="#884724" fill-rule="nonzero" node-id="115" stroke="none" target-height="220.29999" target-width="110.100006" target-x="376.5" target-y="99"></path><path d="M 382.40 102.50 L 395.30 108.10 L 403.30 112.80 L 407.10 115.60 L 415.00 122.10 L 422.50 129.00 L 429.60 136.30 L 436.30 143.90 L 442.60 151.90 L 448.50 160.20 L 454.00 168.80 L 459.00 177.70 L 463.70 186.70 L 467.80 196.50 L 471.40 206.40 L 474.30 216.60 L 476.80 226.90 L 478.60 237.40 L 479.80 247.80 L 480.40 258.40 L 480.40 269.00 L 480.00 277.40 L 479.10 285.80 L 477.90 294.20 L 476.20 302.50 L 471.70 318.80 L 447.90 321.50 L 448.90 293.30 L 448.90 283.90 L 448.00 265.10 L 446.20 242.60 L 443.80 220.10 L 442.10 208.90 L 439.90 197.90 L 436.00 183.40 L 433.50 176.20 L 432.60 184.20 L 429.30 173.50 L 422.70 155.40 L 416.00 141.60 L 412.00 135.00 L 407.60 128.90 L 402.80 123.20 L 398.80 119.20 L 394.50 115.60 L 389.80 112.30 L 384.70 109.30 L 382.40 102.50 Z" fill="#d39a5d" fill-rule="nonzero" node-id="117" stroke="none" target-height="219" target-width="98" target-x="382.4" target-y="102.5"></path><path d="M 379.20 105.90 L 389.80 112.30 L 394.50 115.60 L 398.80 119.20 L 402.80 123.20 L 407.60 128.90 L 412.00 135.00 L 416.00 141.60 L 422.70 155.40 L 429.30 173.50 L 432.60 184.20 L 434.80 195.50 L 438.10 218.20 L 439.80 235.40 L 441.10 252.60 L 443.00 287.00 L 443.00 295.90 L 442.40 304.70 L 440.90 322.30 L 471.70 318.80 L 474.10 310.70 L 476.40 319.10 L 493.70 319.80 L 501.40 320.70 L 512.80 322.60 L 524.10 324.90 L 546.60 330.10 L 546.60 314.00 L 547.60 297.90 L 548.70 289.90 L 550.30 282.00 L 552.60 273.10 L 555.30 264.50 L 558.50 256.00 L 562.30 247.80 L 570.90 231.90 L 580.90 216.70 L 588.30 207.00 L 595.90 197.60 L 604.00 188.60 L 612.20 180.10 L 629.50 163.90 L 638.60 156.30 L 647.90 149.00 L 657.50 142.00 L 667.40 135.50 L 677.60 129.40 L 688.00 123.70 L 696.70 119.80 L 701.20 118.20 L 705.80 117.20 L 709.00 116.90 L 712.10 117.10 L 715.30 117.80 L 718.10 120.40 L 720.00 124.50 L 720.60 130.20 L 720.30 144.70 L 720.70 156.50 L 722.70 191.70 L 722.70 211.30 L 721.10 226.90 L 719.70 235.80 L 717.80 244.70 L 715.60 253.40 L 712.90 262.00 L 709.80 270.40 L 706.30 278.70 L 702.50 286.90 L 698.20 294.80 L 693.60 302.60 L 688.60 310.10 L 683.30 317.30 L 677.70 324.30 L 671.70 331.10 L 665.40 337.50 L 658.70 343.60 L 647.10 353.30 L 626.60 367.20 L 621.90 371.00 L 616.20 376.90 L 613.70 380.30 L 618.40 387.90 L 622.60 395.70 L 626.50 403.80 L 629.90 412.00 L 633.00 420.40 L 635.50 429.00 L 637.70 437.60 L 639.40 446.40 L 640.60 455.30 L 641.30 464.10 L 641.50 473.00 L 640.60 489.60 L 637.50 512.60 L 636.80 520.20 L 636.60 527.80 L 637.00 532.80 L 637.90 537.90 L 639.30 542.90 L 640.40 546.00 L 641.90 548.90 L 646.80 557.50 L 647.90 560.50 L 648.30 564.50 L 641.80 561.60 L 638.30 555.30 L 635.40 548.70 L 633.90 544.20 L 632.70 539.60 L 632.00 534.80 L 631.50 527.70 L 631.70 520.70 L 632.30 513.70 L 635.90 484.30 L 636.40 476.10 L 636.40 467.90 L 635.90 459.60 L 634.90 451.40 L 633.50 443.30 L 631.70 435.30 L 629.40 427.30 L 626.70 419.40 L 620.30 404.20 L 616.60 396.80 L 612.20 389.40 L 607.30 382.30 L 601.90 375.60 L 596.10 369.30 L 589.90 363.30 L 583.40 357.70 L 576.50 352.60 L 569.30 347.90 L 561.80 343.60 L 554.00 339.80 L 546.10 336.50 L 537.90 333.70 L 521.30 329.10 L 504.30 325.90 L 495.70 324.90 L 487.10 324.30 L 478.40 324.10 L 469.80 324.30 L 461.10 325.00 L 452.60 326.00 L 444.10 327.50 L 435.70 329.40 L 427.40 331.80 L 419.30 334.70 L 411.30 338.00 L 403.50 341.80 L 396.40 345.70 L 389.60 350.00 L 383.20 354.70 L 377.10 359.70 L 371.30 365.20 L 365.90 370.90 L 360.70 377.00 L 355.90 383.30 L 347.10 396.70 L 339.60 410.90 L 335.30 420.70 L 331.60 430.70 L 325.20 451.00 L 321.00 458.80 L 316.30 466.10 L 311.10 473.20 L 306.80 478.20 L 302.20 482.80 L 297.30 487.20 L 283.00 498.00 L 278.70 501.70 L 274.70 505.60 L 272.40 508.50 L 270.40 511.70 L 268.70 515.10 L 286.10 511.20 L 279.80 516.70 L 277.60 519.00 L 275.80 521.50 L 274.40 524.20 L 272.80 528.50 L 271.80 533.10 L 270.60 542.30 L 280.70 534.80 L 276.70 543.80 L 275.80 546.90 L 275.60 549.00 L 275.80 551.10 L 276.40 553.30 L 278.50 558.30 L 281.10 563.10 L 284.10 567.70 L 290.90 576.10 L 300.70 585.70 L 306.90 591.00 L 313.40 596.00 L 320.10 600.60 L 334.10 608.80 L 343.80 613.60 L 353.70 618.10 L 363.80 622.10 L 394.50 633.00 L 392.10 639.60 L 390.80 644.60 L 389.90 649.70 L 389.10 657.50 L 388.70 675.00 L 403.80 675.50 L 407.50 676.20 L 411.00 677.40 L 417.40 682.20 L 428.60 693.90 L 435.50 687.90 L 442.80 682.40 L 446.80 680.20 L 451.10 678.50 L 455.90 677.50 L 460.70 677.00 L 465.70 677.00 L 470.60 677.50 L 475.30 678.60 L 480.00 680.20 L 485.60 683.00 L 489.90 685.80 L 493.80 689.00 L 497.30 692.60 L 500.40 696.60 L 505.70 705.20 L 494.30 696.60 L 490.50 692.70 L 486.40 689.10 L 480.40 685.20 L 473.80 682.40 L 470.30 681.60 L 462.40 681.10 L 458.30 681.40 L 454.30 682.30 L 450.50 683.70 L 446.90 685.50 L 443.50 687.70 L 440.30 690.30 L 437.50 693.30 L 435.00 696.50 L 432.80 700.00 L 431.10 703.70 L 429.70 707.60 L 428.80 711.70 L 428.20 715.90 L 428.10 720.10 L 428.60 726.40 L 429.70 732.60 L 434.10 742.00 L 439.80 750.30 L 444.20 755.40 L 449.00 760.10 L 454.20 764.40 L 459.80 768.40 L 465.60 772.00 L 471.60 775.30 L 477.80 778.20 L 490.40 782.90 L 497.20 784.90 L 504.10 786.40 L 511.00 787.50 L 518.00 788.10 L 527.30 788.30 L 536.60 787.90 L 546.00 787.00 L 555.30 785.50 L 564.40 783.60 L 573.50 781.40 L 564.90 786.10 L 559.60 788.30 L 554.10 790.00 L 542.70 792.20 L 536.90 792.70 L 528.20 793.00 L 519.50 792.70 L 510.90 792.00 L 502.30 790.60 L 493.80 788.60 L 485.40 786.00 L 477.30 782.90 L 469.40 779.20 L 461.80 775.00 L 454.50 770.30 L 447.60 765.00 L 438.00 756.10 L 429.60 746.10 L 427.50 740.60 L 425.90 735.00 L 424.80 729.30 L 424.20 723.60 L 424.00 717.80 L 424.40 707.90 L 424.20 703.90 L 423.30 699.80 L 422.00 695.80 L 420.20 692.10 L 418.00 688.60 L 415.30 685.40 L 412.30 682.70 L 408.90 680.50 L 406.10 679.30 L 403.30 678.40 L 400.20 678.00 L 396.90 678.00 L 392.60 678.50 L 388.60 679.60 L 384.80 681.30 L 381.20 683.50 L 378.00 686.20 L 375.10 689.20 L 372.60 692.60 L 370.50 696.30 L 368.90 700.20 L 367.80 704.30 L 367.30 708.40 L 367.60 716.60 L 368.30 720.30 L 370.80 727.50 L 373.20 732.10 L 376.00 736.30 L 379.30 740.20 L 387.70 745.80 L 392.10 748.00 L 396.80 749.80 L 406.10 752.70 L 404.40 773.30 L 402.40 779.30 L 396.10 790.20 L 400.00 798.10 L 407.30 810.70 L 410.70 815.40 L 419.60 826.50 L 425.20 832.60 L 431.10 838.30 L 437.50 843.60 L 444.10 848.50 L 451.00 853.10 L 458.20 857.30 L 465.60 861.10 L 473.10 864.60 L 488.60 870.50 L 505.20 875.20 L 514.00 877.10 L 522.90 878.60 L 531.90 879.60 L 540.90 880.00 L 549.90 879.80 L 556.60 879.20 L 563.20 878.20 L 569.80 876.70 L 576.40 874.80 L 568.30 864.50 L 565.90 860.90 L 563.70 857.10 L 561.90 853.20 L 560.50 849.10 L 559.60 844.90 L 558.80 836.30 L 558.40 827.70 L 562.80 814.10 L 565.50 807.50 L 568.70 801.10 L 571.00 798.00 L 573.30 795.10 L 580.70 787.60 L 593.40 779.70 L 588.00 786.50 L 583.30 790.60 L 579.10 795.10 L 575.20 800.00 L 571.90 805.30 L 569.10 810.80 L 566.90 816.60 L 564.70 825.70 L 564.00 834.90 L 564.30 839.50 L 565.00 844.00 L 566.20 848.50 L 569.60 857.90 L 573.70 864.00 L 576.10 866.60 L 580.20 870.10 L 584.60 873.30 L 589.20 876.00 L 603.60 883.60 L 598.70 883.30 L 594.20 882.00 L 589.60 881.10 L 585.00 880.60 L 578.00 880.40 L 571.00 880.90 L 557.20 883.30 L 552.30 883.90 L 547.50 885.00 L 544.40 886.20 L 538.90 889.40 L 536.50 891.60 L 534.50 894.10 L 532.10 898.60 L 531.70 901.70 L 532.00 903.90 L 534.60 910.60 L 533.50 914.90 L 529.30 910.40 L 528.20 908.80 L 527.50 906.40 L 527.50 902.20 L 528.00 899.60 L 528.80 897.20 L 530.70 893.80 L 538.40 884.60 L 524.30 883.00 L 519.60 882.80 L 516.00 884.90 L 506.10 892.30 L 502.50 894.50 L 491.90 898.40 L 478.00 902.10 L 467.50 904.20 L 456.80 905.90 L 435.40 908.20 L 422.40 907.90 L 415.80 907.30 L 409.30 906.30 L 403.00 904.90 L 396.80 902.90 L 392.40 901.00 L 388.10 898.80 L 383.90 896.20 L 378.50 891.90 L 376.70 889.10 L 376.20 886.60 L 376.30 884.00 L 376.80 881.40 L 379.10 876.50 L 382.90 872.00 L 387.80 867.90 L 392.00 865.40 L 396.30 863.40 L 400.90 861.60 L 414.80 857.20 L 408.80 850.00 L 403.30 842.50 L 399.90 837.20 L 397.00 831.80 L 392.10 820.10 L 390.30 813.90 L 388.80 807.70 L 385.40 788.80 L 381.60 783.30 L 375.00 775.50 L 373.10 772.70 L 370.30 767.50 L 368.10 762.10 L 366.50 756.50 L 365.40 750.70 L 364.80 744.90 L 364.90 733.00 L 364.40 727.00 L 362.10 709.10 L 361.90 696.20 L 362.40 689.50 L 363.30 682.70 L 364.80 676.00 L 366.80 669.60 L 369.40 663.20 L 372.10 658.20 L 378.70 648.90 L 389.30 635.40 L 358.60 623.90 L 348.50 619.60 L 338.60 614.90 L 328.90 609.90 L 321.80 605.80 L 308.20 596.60 L 296.80 587.20 L 287.40 577.80 L 283.20 572.80 L 279.30 567.50 L 275.80 561.90 L 272.70 556.10 L 270.10 550.10 L 268.00 543.80 L 267.60 539.80 L 267.80 535.80 L 268.50 531.90 L 271.70 520.30 L 262.50 518.30 L 269.20 503.00 L 272.10 501.00 L 281.50 496.10 L 274.00 490.80 L 278.10 490.20 L 282.00 489.30 L 285.70 488.00 L 289.20 486.30 L 293.70 483.50 L 297.90 480.30 L 301.80 476.60 L 305.50 472.60 L 311.80 464.10 L 317.10 454.70 L 322.30 442.40 L 330.40 419.70 L 333.40 412.20 L 341.40 396.30 L 346.40 388.00 L 352.00 380.00 L 358.00 372.40 L 364.50 365.20 L 371.40 358.30 L 378.70 351.90 L 386.40 346.00 L 394.40 340.50 L 385.90 322.90 L 377.80 305.00 L 372.70 292.90 L 368.10 280.70 L 364.00 268.40 L 361.20 259.00 L 356.70 240.00 L 355.00 230.30 L 354.30 219.90 L 354.30 202.30 L 355.60 188.40 L 356.70 181.50 L 358.20 174.70 L 362.30 160.10 L 375.40 121.60 L 377.50 113.80 L 379.20 105.90 Z M 382.70 110.50 L 365.60 164.30 L 363.20 173.40 L 361.10 182.50 L 358.60 198.60 L 358.00 212.70 L 358.20 219.80 L 359.40 229.00 L 362.80 247.20 L 365.00 256.20 L 368.50 268.00 L 372.50 279.70 L 376.90 291.30 L 386.60 314.10 L 394.90 331.50 L 397.40 335.20 L 399.00 336.60 L 401.80 337.40 L 403.60 337.40 L 402.90 334.50 L 403.90 336.60 L 419.70 328.00 L 418.00 322.30 L 413.50 311.50 L 405.10 296.10 L 422.40 316.90 L 422.10 319.60 L 422.60 327.80 L 436.20 323.50 L 436.30 318.80 L 437.40 311.10 L 438.10 303.40 L 438.30 295.70 L 438.20 284.10 L 437.40 272.50 L 435.20 249.40 L 434.30 229.20 L 431.90 209.10 L 429.60 195.80 L 426.60 182.70 L 423.00 169.70 L 418.20 156.40 L 415.30 150.00 L 411.90 143.80 L 406.50 136.20 L 403.30 132.70 L 402.30 129.90 L 400.80 127.40 L 393.00 118.40 L 382.70 110.50 Z M 696.50 124.70 L 679.40 133.70 L 663.20 144.00 L 652.80 151.50 L 642.70 159.50 L 632.90 167.80 L 614.10 185.50 L 605.20 194.60 L 598.30 202.40 L 591.70 210.40 L 585.40 218.80 L 579.50 227.40 L 574.10 236.20 L 569.10 245.40 L 564.60 254.70 L 560.70 264.30 L 557.50 274.10 L 555.40 281.60 L 553.80 289.20 L 552.60 297.00 L 551.90 304.80 L 551.10 319.70 L 551.20 324.70 L 551.70 327.90 L 552.50 331.10 L 553.80 334.20 L 559.10 337.00 L 575.60 344.40 L 576.80 327.50 L 578.70 310.60 L 580.10 302.30 L 582.00 294.00 L 584.70 284.40 L 587.80 275.10 L 591.40 265.90 L 595.40 256.90 L 599.70 248.00 L 605.70 237.30 L 612.30 226.80 L 619.30 216.70 L 626.90 206.90 L 635.00 197.50 L 643.50 188.60 L 652.30 180.00 L 661.60 171.90 L 669.90 165.30 L 705.00 141.20 L 714.60 133.90 L 715.30 133.00 L 716.10 130.30 L 716.10 128.50 L 714.90 121.10 L 713.20 122.00 L 708.90 121.90 L 701.90 122.70 L 696.50 124.70 Z M 708.10 144.40 L 680.70 163.30 L 671.80 169.80 L 663.10 176.70 L 654.80 184.00 L 649.60 189.20 L 644.60 194.60 L 640.00 200.40 L 634.30 206.10 L 629.00 212.20 L 619.30 225.10 L 610.50 238.70 L 606.60 245.40 L 604.80 250.10 L 604.50 252.60 L 599.50 259.70 L 598.20 262.20 L 594.10 272.10 L 590.60 282.10 L 587.60 292.20 L 585.20 302.60 L 583.30 313.10 L 582.00 323.60 L 581.30 334.20 L 581.30 346.40 L 582.80 349.10 L 585.90 352.70 L 588.20 346.90 L 591.00 341.30 L 600.10 325.00 L 602.80 319.40 L 610.10 313.50 L 617.00 307.30 L 618.40 310.70 L 612.50 315.70 L 607.50 321.70 L 599.90 332.70 L 595.10 342.00 L 593.30 347.00 L 592.00 352.10 L 591.20 357.40 L 613.60 340.40 L 610.90 343.90 L 601.90 354.00 L 600.10 356.30 L 597.40 361.50 L 600.30 365.80 L 603.60 369.60 L 611.20 376.60 L 612.00 371.90 L 617.70 369.40 L 617.80 368.00 L 634.10 357.50 L 649.60 345.80 L 656.90 339.50 L 663.90 332.80 L 670.30 326.20 L 676.40 319.30 L 682.10 312.00 L 687.40 304.50 L 692.30 296.70 L 696.80 288.70 L 700.90 280.50 L 704.60 272.00 L 708.00 263.40 L 710.80 254.70 L 713.30 245.80 L 715.30 236.80 L 716.50 230.10 L 718.00 216.50 L 718.50 206.20 L 718.50 195.90 L 717.70 154.70 L 717.50 149.10 L 716.80 143.70 L 715.50 138.30 L 708.10 144.40 Z M 365.90 693.60 L 374.70 684.30 L 384.10 675.60 L 384.20 662.60 L 383.90 649.60 L 380.10 653.60 L 376.90 657.90 L 374.20 662.50 L 372.00 667.40 L 370.10 672.40 L 368.60 677.70 L 367.00 685.60 L 365.90 693.60 Z M 370.50 738.20 L 370.40 747.10 L 370.80 751.60 L 372.70 760.40 L 374.20 764.60 L 376.20 768.60 L 378.50 772.40 L 381.40 776.00 L 381.40 778.00 L 387.40 781.20 L 391.60 782.80 L 395.10 782.60 L 397.90 781.10 L 399.30 777.10 L 400.20 773.10 L 400.60 768.90 L 400.70 764.70 L 399.90 756.30 L 393.80 753.00 L 375.00 744.20 L 370.50 738.20 Z M 391.60 796.20 L 394.10 809.70 L 396.00 816.50 L 398.20 823.10 L 400.90 829.40 L 404.00 835.60 L 409.70 844.20 L 416.60 851.90 L 418.50 853.50 L 420.40 854.60 L 422.40 855.30 L 425.50 855.90 L 428.90 855.80 L 442.40 854.10 L 425.70 840.00 L 415.20 829.80 L 407.00 819.80 L 394.90 800.80 L 391.60 796.20 Z M 408.40 863.00 L 403.30 864.70 L 394.80 868.20 L 388.60 872.10 L 385.90 874.40 L 383.50 877.10 L 381.40 880.10 L 380.70 881.90 L 380.50 885.10 L 381.10 887.50 L 382.30 889.70 L 385.60 893.60 L 389.30 884.60 L 390.80 881.70 L 392.70 879.10 L 395.10 876.90 L 397.50 875.30 L 400.00 874.00 L 405.50 872.40 L 411.10 871.20 L 401.40 877.60 L 398.40 879.90 L 395.60 882.60 L 393.40 885.50 L 392.30 887.70 L 391.60 890.10 L 391.20 892.90 L 394.00 896.20 L 398.30 898.90 L 404.50 900.60 L 413.90 902.20 L 417.90 893.50 L 420.30 889.40 L 423.10 885.70 L 425.40 883.50 L 428.00 881.80 L 431.00 880.30 L 430.30 881.80 L 428.10 883.60 L 426.20 885.60 L 424.70 887.80 L 422.90 891.40 L 421.60 895.40 L 419.40 903.40 L 428.70 903.80 L 438.10 903.70 L 456.70 902.70 L 478.60 898.40 L 490.60 895.00 L 499.70 891.30 L 504.00 888.90 L 508.10 886.20 L 512.00 883.00 L 478.00 872.00 L 471.40 869.20 L 455.70 861.60 L 451.60 860.00 L 447.40 858.80 L 440.80 858.30 L 434.30 858.50 L 427.80 859.10 L 421.30 860.20 L 408.40 863.00 Z" fill="#714030" fill-rule="nonzero" node-id="119" stroke="none" target-height="809" target-width="460.2" target-x="262.5" target-y="105.9"></path><path d="M 382.70 110.50 L 393.00 118.40 L 383.00 138.50 L 377.30 152.30 L 374.80 159.40 L 372.80 166.50 L 371.30 173.80 L 370.20 181.30 L 369.50 198.00 L 370.20 218.80 L 371.30 231.30 L 374.60 256.10 L 375.90 263.00 L 379.60 276.40 L 383.10 286.20 L 387.00 295.90 L 399.30 324.70 L 402.90 334.50 L 403.60 337.40 L 401.80 337.40 L 399.00 336.60 L 397.40 335.20 L 396.00 333.50 L 386.60 314.10 L 376.90 291.30 L 372.50 279.70 L 368.50 268.00 L 365.00 256.20 L 360.90 238.20 L 358.20 219.80 L 358.00 212.70 L 358.60 198.60 L 361.10 182.50 L 363.20 173.40 L 365.60 164.30 L 382.70 110.50 Z" fill="#f9f4f4" fill-rule="nonzero" node-id="121" stroke="none" target-height="226.9" target-width="45.600006" target-x="358" target-y="110.5"></path><path d="M 696.50 124.70 L 699.20 123.50 L 704.60 122.20 L 708.90 121.90 L 713.20 122.00 L 688.90 134.70 L 680.90 139.20 L 673.10 144.00 L 654.80 157.50 L 644.30 166.00 L 633.90 175.00 L 623.90 184.40 L 614.40 194.20 L 605.30 204.40 L 598.80 212.30 L 592.70 220.40 L 587.00 228.80 L 581.60 237.50 L 576.60 246.40 L 572.10 255.50 L 568.00 264.90 L 564.40 274.60 L 562.10 281.80 L 560.50 289.20 L 559.20 296.70 L 556.50 319.20 L 555.40 326.70 L 553.80 334.20 L 552.50 331.10 L 551.70 327.90 L 551.20 324.70 L 551.10 319.70 L 551.90 304.80 L 552.60 297.00 L 553.80 289.20 L 555.40 281.60 L 557.50 274.10 L 560.70 264.30 L 564.60 254.70 L 569.10 245.40 L 574.10 236.20 L 579.50 227.40 L 585.40 218.80 L 591.70 210.40 L 598.30 202.40 L 605.20 194.60 L 623.40 176.50 L 632.90 167.80 L 642.70 159.50 L 652.80 151.50 L 663.20 144.00 L 679.40 133.70 L 696.50 124.70 Z" fill="#e9cda0" fill-rule="nonzero" node-id="123" stroke="none" target-height="212.30002" target-width="162.10004" target-x="551.1" target-y="121.9"></path><path d="M 713.20 122.00 L 714.90 121.10 L 716.10 128.50 L 715.80 132.00 L 714.60 133.90 L 705.00 141.20 L 669.90 165.30 L 661.60 171.90 L 652.30 180.00 L 643.50 188.60 L 635.00 197.50 L 626.90 206.90 L 619.30 216.70 L 612.30 226.80 L 605.70 237.30 L 599.70 248.00 L 595.30 256.90 L 591.40 265.90 L 587.80 275.10 L 584.70 284.40 L 582.00 294.00 L 580.10 302.30 L 578.70 310.60 L 576.80 327.50 L 575.60 344.40 L 559.10 337.00 L 553.80 334.20 L 555.40 326.70 L 556.50 319.20 L 559.20 296.70 L 560.50 289.20 L 562.10 281.80 L 564.40 274.60 L 568.00 264.90 L 572.10 255.50 L 576.60 246.40 L 581.60 237.50 L 587.00 228.80 L 592.70 220.40 L 598.80 212.30 L 605.30 204.40 L 614.40 194.20 L 623.90 184.40 L 633.90 175.00 L 644.30 166.00 L 654.80 157.50 L 673.10 144.00 L 680.90 139.20 L 688.90 134.70 L 713.20 122.00 Z" fill="#d09659" fill-rule="nonzero" node-id="125" stroke="none" target-height="223.29999" target-width="162.29999" target-x="553.8" target-y="121.1"></path><path d="M 403.30 132.70 L 409.30 139.90 L 411.90 143.80 L 415.30 150.00 L 418.20 156.40 L 423.00 169.70 L 426.60 182.70 L 429.60 195.80 L 431.90 209.10 L 433.30 219.20 L 434.90 239.30 L 435.20 249.40 L 431.50 243.90 L 427.40 238.60 L 418.20 228.80 L 423.10 243.40 L 426.00 250.60 L 426.40 283.90 L 425.90 295.00 L 425.20 302.40 L 424.00 309.70 L 422.40 316.90 L 405.10 296.10 L 413.50 311.50 L 418.00 322.30 L 419.70 328.00 L 403.90 336.60 L 404.90 332.20 L 405.70 323.40 L 405.50 316.80 L 404.00 305.00 L 403.70 299.90 L 404.00 279.30 L 403.50 274.30 L 400.70 260.30 L 399.50 251.40 L 398.70 242.40 L 397.30 215.30 L 412.30 219.10 L 412.50 209.10 L 412.20 199.10 L 410.50 179.10 L 409.40 171.40 L 404.00 143.20 L 403.30 132.70 Z" fill="#e5c7cd" fill-rule="nonzero" node-id="127" stroke="none" target-height="203.90001" target-width="37.900024" target-x="397.3" target-y="132.7"></path><path d="M 708.10 144.40 L 715.50 138.30 L 716.80 143.70 L 717.50 149.10 L 718.50 195.90 L 718.50 206.20 L 717.40 223.30 L 715.30 236.80 L 713.30 245.80 L 710.80 254.70 L 708.00 263.40 L 704.60 272.00 L 700.90 280.50 L 696.80 288.70 L 692.30 296.70 L 687.40 304.50 L 682.10 312.00 L 676.40 319.30 L 670.30 326.20 L 663.90 332.80 L 656.90 339.50 L 649.60 345.80 L 634.10 357.50 L 617.80 368.00 L 618.40 362.50 L 619.40 357.20 L 620.80 351.90 L 622.60 346.70 L 624.70 341.70 L 627.30 336.90 L 636.20 321.30 L 645.70 306.00 L 650.80 298.60 L 669.00 275.50 L 680.60 258.50 L 685.80 249.70 L 690.60 240.70 L 695.00 231.40 L 698.80 222.00 L 702.10 212.30 L 703.70 206.70 L 705.80 195.60 L 706.70 187.10 L 707.20 178.60 L 708.10 144.40 Z" fill="#f2eeef" fill-rule="nonzero" node-id="129" stroke="none" target-height="229.7" target-width="100.70001" target-x="617.8" target-y="138.3"></path><path d="M 640.00 200.40 L 644.60 194.60 L 649.60 189.20 L 654.80 184.00 L 663.10 176.70 L 671.80 169.80 L 680.70 163.30 L 708.10 144.40 L 707.20 178.60 L 706.70 187.10 L 705.80 195.60 L 703.70 206.70 L 702.10 212.30 L 698.80 222.00 L 695.00 231.40 L 690.60 240.70 L 685.80 249.70 L 680.60 258.50 L 674.90 267.10 L 662.80 283.60 L 650.80 298.60 L 645.70 306.00 L 636.20 321.30 L 627.30 336.90 L 624.70 341.70 L 622.60 346.70 L 620.80 351.90 L 619.40 357.20 L 618.40 362.50 L 617.70 369.40 L 612.00 371.90 L 613.00 365.60 L 615.90 353.10 L 620.10 340.90 L 622.60 335.00 L 613.40 329.40 L 612.50 315.70 L 622.60 307.30 L 626.60 303.40 L 631.10 297.70 L 638.00 283.70 L 642.60 272.80 L 647.90 257.90 L 650.00 250.30 L 645.70 251.30 L 637.40 254.10 L 625.60 259.80 L 614.20 266.20 L 616.30 258.60 L 621.50 243.80 L 640.00 200.40 Z" fill="#eddbdd" fill-rule="nonzero" node-id="131" stroke="none" target-height="227.5" target-width="96.099976" target-x="612" target-y="144.4"></path><path d="M 433.50 176.20 L 436.00 183.40 L 439.90 197.90 L 442.10 208.90 L 445.10 231.30 L 448.60 274.50 L 448.90 293.30 L 447.90 321.50 L 440.90 322.30 L 442.40 304.70 L 443.00 295.90 L 443.00 287.00 L 441.10 252.60 L 439.80 235.40 L 438.10 218.20 L 434.80 195.50 L 432.60 184.20 L 433.50 176.20 Z" fill="#dfc1a0" fill-rule="nonzero" node-id="133" stroke="none" target-height="146.09999" target-width="16.299988" target-x="432.6" target-y="176.2"></path><path d="M 610.50 238.70 L 619.30 225.10 L 624.00 218.60 L 629.00 212.20 L 634.30 206.10 L 640.00 200.40 L 621.50 243.80 L 616.30 258.60 L 614.20 266.20 L 625.60 259.80 L 637.40 254.10 L 645.70 251.30 L 650.00 250.30 L 647.90 257.90 L 642.60 272.80 L 638.00 283.70 L 631.10 297.70 L 626.60 303.40 L 622.60 307.30 L 618.40 310.70 L 617.00 307.30 L 610.10 313.50 L 602.80 319.40 L 604.90 305.20 L 607.50 291.20 L 610.60 277.30 L 599.20 289.50 L 602.20 277.40 L 603.40 271.30 L 604.30 265.10 L 604.70 258.90 L 604.50 252.60 L 604.80 250.10 L 606.60 245.40 L 610.50 238.70 Z" fill="#e2c1c6" fill-rule="nonzero" node-id="135" stroke="none" target-height="119" target-width="50.799988" target-x="599.2" target-y="200.4"></path><path d="M 418.20 228.80 L 427.40 238.60 L 431.50 243.90 L 435.20 249.40 L 437.40 272.50 L 438.20 284.10 L 438.30 295.70 L 438.10 303.40 L 437.40 311.10 L 436.30 318.80 L 436.40 285.90 L 435.80 271.90 L 434.30 266.20 L 432.60 262.20 L 426.00 250.60 L 423.10 243.40 L 418.20 228.80 Z" fill="#b28288" fill-rule="nonzero" node-id="137" stroke="none" target-height="89.999985" target-width="20.099976" target-x="418.2" target-y="228.8"></path><path d="M 426.00 250.60 L 432.60 262.20 L 435.20 269.00 L 436.10 274.90 L 436.40 285.90 L 436.20 323.50 L 422.60 327.80 L 422.10 319.60 L 422.40 316.90 L 424.00 309.70 L 425.20 302.40 L 425.90 295.00 L 426.40 283.90 L 426.00 250.60 Z" fill="#cea1aa" fill-rule="nonzero" node-id="139" stroke="none" target-height="77.19998" target-width="14.299988" target-x="422.1" target-y="250.6"></path><path d="M 598.20 262.20 L 601.00 257.20 L 604.50 252.60 L 604.70 258.90 L 604.30 265.10 L 603.40 271.30 L 602.20 277.40 L 599.20 289.50 L 610.60 277.30 L 607.50 291.20 L 604.90 305.20 L 602.80 319.40 L 600.10 325.00 L 591.00 341.30 L 588.20 346.90 L 585.90 352.70 L 581.90 347.80 L 581.30 346.40 L 581.20 344.80 L 581.30 334.20 L 582.00 323.60 L 583.30 313.10 L 585.20 302.60 L 587.60 292.20 L 590.60 282.10 L 594.10 272.10 L 598.20 262.20 Z" fill="#d9acb5" fill-rule="nonzero" node-id="141" stroke="none" target-height="100.100006" target-width="29.399963" target-x="581.2" target-y="252.6"></path><path d="M 584.60 512.60 L 589.40 515.10 L 588.40 523.80 L 585.80 538.00 L 582.40 549.10 L 576.70 555.10 L 574.70 552.90 L 581.10 536.10 L 582.80 530.40 L 583.80 526.00 L 584.20 521.60 L 584.60 512.60 Z" fill="#3f2d27" fill-rule="nonzero" node-id="143" stroke="none" target-height="42.5" target-width="14.700012" target-x="574.7" target-y="512.6"></path><path d="M 591.20 357.40 L 592.00 352.10 L 593.30 347.00 L 595.10 342.00 L 597.30 337.30 L 602.80 328.20 L 607.50 321.70 L 612.50 315.70 L 613.40 329.40 L 622.60 335.00 L 620.10 340.90 L 615.90 353.10 L 613.00 365.60 L 611.20 376.60 L 603.60 369.60 L 600.30 365.80 L 597.40 361.50 L 598.60 358.80 L 601.90 354.00 L 610.90 343.90 L 613.60 340.40 L 591.20 357.40 Z" fill="#dcbdc1" fill-rule="nonzero" node-id="145" stroke="none" target-height="60.899994" target-width="31.399963" target-x="591.2" target-y="315.7"></path><path d="M 403.50 341.80 L 411.30 338.00 L 419.30 334.70 L 427.40 331.80 L 435.70 329.40 L 444.10 327.50 L 452.60 326.00 L 461.10 325.00 L 469.80 324.30 L 478.40 324.10 L 487.10 324.30 L 495.70 324.90 L 504.30 325.90 L 512.90 327.30 L 529.70 331.20 L 546.10 336.50 L 554.00 339.80 L 561.80 343.60 L 569.30 347.90 L 576.50 352.60 L 583.40 357.70 L 589.90 363.30 L 596.10 369.30 L 601.90 375.60 L 607.30 382.30 L 612.20 389.40 L 616.60 396.80 L 620.30 404.20 L 626.70 419.40 L 629.40 427.30 L 631.70 435.30 L 633.50 443.30 L 634.90 451.40 L 635.90 459.60 L 636.40 467.90 L 636.40 476.10 L 635.90 484.30 L 634.90 492.60 L 633.60 485.00 L 630.10 454.30 L 628.90 446.70 L 627.40 439.20 L 622.80 424.00 L 619.90 416.50 L 616.60 409.10 L 612.80 402.00 L 608.60 395.00 L 604.10 388.40 L 599.10 382.00 L 593.80 375.90 L 588.10 370.10 L 582.10 364.70 L 575.80 359.70 L 569.20 355.00 L 562.40 350.70 L 555.30 346.80 L 548.00 343.40 L 540.40 340.50 L 529.80 337.10 L 519.00 334.40 L 508.00 332.30 L 491.40 330.40 L 474.70 329.90 L 466.40 330.30 L 458.10 331.10 L 449.80 332.30 L 441.60 333.90 L 432.90 336.10 L 424.30 338.90 L 415.90 342.30 L 407.80 346.10 L 399.90 350.50 L 392.30 355.30 L 385.10 360.60 L 378.20 366.40 L 371.70 372.70 L 362.90 382.80 L 355.10 393.90 L 350.50 401.50 L 346.20 409.30 L 342.30 417.30 L 338.70 425.50 L 335.60 433.80 L 332.90 442.30 L 328.40 440.70 L 331.60 430.70 L 335.30 420.70 L 339.60 410.90 L 347.10 396.70 L 355.90 383.30 L 360.70 377.00 L 365.90 370.90 L 371.30 365.20 L 377.10 359.70 L 383.20 354.70 L 389.60 350.00 L 396.40 345.70 L 403.50 341.80 Z" fill="#e6cca4" fill-rule="nonzero" node-id="147" stroke="none" target-height="168.5" target-width="308.00003" target-x="328.4" target-y="324.1"></path><path d="M 441.60 333.90 L 449.80 332.30 L 458.10 331.10 L 466.40 330.30 L 474.70 329.90 L 483.10 329.90 L 499.70 331.10 L 508.00 332.30 L 519.00 334.40 L 529.80 337.10 L 540.40 340.50 L 548.00 343.40 L 555.30 346.80 L 562.40 350.70 L 569.20 355.00 L 575.80 359.70 L 582.10 364.70 L 588.10 370.10 L 593.80 375.90 L 599.10 382.00 L 604.10 388.40 L 608.60 395.00 L 612.80 402.00 L 616.60 409.10 L 619.90 416.50 L 622.80 424.00 L 627.40 439.20 L 628.90 446.70 L 630.10 454.30 L 632.60 477.30 L 634.90 492.60 L 631.70 520.70 L 631.50 527.70 L 632.00 534.80 L 632.70 539.60 L 633.90 544.20 L 635.40 548.70 L 638.30 555.30 L 641.80 561.60 L 622.40 555.60 L 612.60 553.10 L 602.60 551.00 L 595.90 550.00 L 582.40 549.10 L 584.20 543.60 L 587.00 532.40 L 588.40 523.80 L 589.40 515.10 L 594.20 514.20 L 603.60 511.40 L 612.40 507.40 L 616.70 504.90 L 605.20 506.00 L 593.80 506.60 L 606.70 489.60 L 604.40 490.30 L 594.60 494.90 L 590.60 495.50 L 587.40 494.40 L 592.90 481.30 L 587.80 485.70 L 588.30 466.70 L 589.80 462.50 L 590.70 458.20 L 591.20 453.70 L 591.10 449.20 L 590.40 444.80 L 589.30 440.50 L 587.70 436.40 L 585.50 432.60 L 582.90 429.10 L 578.10 424.70 L 575.20 422.90 L 572.10 421.40 L 568.80 420.40 L 565.60 420.10 L 562.40 420.40 L 556.30 422.30 L 553.40 423.90 L 549.30 426.60 L 545.50 429.70 L 539.60 434.90 L 534.00 440.30 L 528.70 446.00 L 523.80 452.10 L 519.20 458.40 L 514.90 464.90 L 511.00 471.60 L 507.40 478.60 L 504.20 485.70 L 498.90 500.30 L 495.10 515.50 L 493.70 523.20 L 492.20 538.80 L 482.80 534.90 L 469.90 523.70 L 465.50 520.60 L 460.80 518.10 L 454.10 515.80 L 444.40 514.20 L 438.20 514.00 L 425.90 514.80 L 413.60 516.20 L 418.60 496.90 L 420.80 487.10 L 422.60 477.20 L 423.40 470.60 L 424.10 457.40 L 423.80 450.80 L 423.00 444.20 L 421.60 437.60 L 420.20 432.50 L 416.40 422.80 L 409.70 408.60 L 411.30 408.00 L 412.30 407.20 L 412.90 406.10 L 413.20 403.50 L 411.90 400.10 L 408.80 396.70 L 406.80 395.30 L 402.30 393.10 L 397.40 392.00 L 394.90 391.90 L 389.90 392.70 L 383.70 395.00 L 380.80 396.50 L 376.70 399.40 L 373.00 402.70 L 369.60 406.30 L 366.50 410.20 L 363.20 404.40 L 359.40 399.00 L 355.10 393.90 L 362.90 382.80 L 371.70 372.70 L 378.20 366.40 L 385.10 360.60 L 392.30 355.30 L 399.90 350.50 L 407.80 346.10 L 415.90 342.30 L 424.30 338.90 L 432.90 336.10 L 441.60 333.90 Z" fill="#d9a060" fill-rule="nonzero" node-id="149" stroke="none" target-height="231.69998" target-width="286.69998" target-x="355.1" target-y="329.9"></path><path d="M 366.50 410.20 L 369.60 406.30 L 373.00 402.70 L 376.70 399.40 L 380.80 396.50 L 386.70 393.70 L 392.40 392.20 L 394.90 391.90 L 397.40 392.00 L 402.30 393.10 L 406.80 395.30 L 408.80 396.70 L 411.90 400.10 L 412.80 402.10 L 413.20 403.50 L 412.90 406.10 L 412.30 407.20 L 411.30 408.00 L 409.70 408.60 L 401.60 405.00 L 398.30 404.40 L 395.20 404.10 L 392.10 404.30 L 386.00 405.80 L 378.80 409.20 L 374.70 411.90 L 362.00 422.10 L 364.00 416.10 L 366.50 410.20 Z" fill="#040201" fill-rule="nonzero" node-id="151" stroke="none" target-height="30.200012" target-width="51.200012" target-x="362" target-y="391.9"></path><path d="M 332.90 442.30 L 335.60 433.80 L 338.70 425.50 L 342.30 417.30 L 346.20 409.30 L 350.50 401.50 L 355.10 393.90 L 359.40 399.00 L 363.20 404.40 L 366.50 410.20 L 364.00 416.10 L 362.00 422.10 L 360.80 434.50 L 360.60 446.90 L 352.20 450.50 L 342.50 435.60 L 346.10 454.90 L 338.90 457.00 L 330.60 445.80 L 330.00 449.10 L 325.20 451.00 L 328.40 440.70 L 332.90 442.30 Z" fill="#cc9760" fill-rule="nonzero" node-id="153" stroke="none" target-height="63.100006" target-width="41.299988" target-x="325.2" target-y="393.9"></path><path d="M 367.20 417.80 L 374.70 411.90 L 378.80 409.20 L 386.00 405.80 L 392.10 404.30 L 395.20 404.10 L 398.30 404.40 L 401.60 405.00 L 397.70 410.80 L 385.20 427.30 L 381.20 433.00 L 377.80 439.00 L 389.40 443.20 L 385.60 442.70 L 378.00 442.60 L 370.50 443.60 L 366.80 444.50 L 367.80 431.20 L 367.20 417.80 Z" fill="#d3d3d8" fill-rule="nonzero" node-id="155" stroke="none" target-height="40.399994" target-width="34.80002" target-x="366.8" target-y="404.1"></path><path d="M 401.60 405.00 L 409.70 408.60 L 416.40 422.80 L 420.20 432.50 L 421.60 437.60 L 423.00 444.20 L 423.80 450.80 L 424.10 457.40 L 423.90 464.00 L 422.60 477.20 L 420.80 487.10 L 418.60 496.90 L 413.60 516.20 L 406.10 514.40 L 412.20 501.70 L 413.80 496.60 L 414.80 491.50 L 415.40 486.10 L 415.40 480.80 L 414.90 475.50 L 413.90 470.30 L 412.30 465.20 L 410.20 460.40 L 407.60 455.80 L 403.50 451.90 L 399.20 448.40 L 392.80 444.70 L 377.80 439.00 L 381.20 433.00 L 385.20 427.30 L 397.70 410.80 L 401.60 405.00 Z" fill="#f2f3f5" fill-rule="nonzero" node-id="157" stroke="none" target-height="111.20001" target-width="46.30002" target-x="377.8" target-y="405"></path><path d="M 362.00 422.10 L 367.20 417.80 L 367.80 431.20 L 366.80 444.50 L 360.60 446.90 L 360.80 434.50 L 362.00 422.10 Z" fill="#b9b6bb" fill-rule="nonzero" node-id="159" stroke="none" target-height="29.100006" target-width="7.1999817" target-x="360.6" target-y="417.8"></path><path d="M 545.50 429.70 L 549.30 426.60 L 553.40 423.90 L 556.30 422.30 L 562.40 420.40 L 565.60 420.10 L 568.80 420.40 L 572.10 421.40 L 575.20 422.90 L 580.60 426.70 L 582.90 429.10 L 585.50 432.60 L 587.70 436.40 L 589.30 440.50 L 590.40 444.80 L 591.10 449.20 L 591.20 453.70 L 590.70 458.20 L 589.80 462.50 L 588.30 466.70 L 585.30 458.00 L 580.80 448.10 L 578.00 443.50 L 575.90 440.70 L 573.40 438.20 L 568.00 434.30 L 562.70 432.00 L 558.60 430.90 L 554.20 430.20 L 545.50 429.70 Z" fill="#010101" fill-rule="nonzero" node-id="161" stroke="none" target-height="46.600006" target-width="45.700012" target-x="545.5" target-y="420.1"></path><path d="M 492.20 538.80 L 492.80 531.00 L 495.10 515.50 L 496.80 507.90 L 501.40 493.00 L 507.40 478.60 L 511.00 471.60 L 514.90 464.90 L 519.20 458.40 L 523.80 452.10 L 528.70 446.00 L 534.00 440.30 L 539.60 434.90 L 545.50 429.70 L 554.20 430.20 L 558.60 430.90 L 565.40 433.00 L 570.50 435.90 L 573.40 438.20 L 575.90 440.70 L 578.00 443.50 L 580.80 448.10 L 583.20 453.00 L 587.10 463.00 L 582.20 464.00 L 577.20 464.50 L 562.00 464.90 L 553.80 466.10 L 550.60 467.20 L 544.80 469.90 L 540.00 473.20 L 536.90 476.30 L 534.10 479.70 L 529.10 487.00 L 522.10 496.30 L 515.90 506.20 L 513.30 511.40 L 510.30 520.10 L 509.10 526.80 L 508.80 536.90 L 509.30 547.10 L 500.80 542.70 L 492.20 538.80 Z" fill="#f2f0f1" fill-rule="nonzero" node-id="163" stroke="none" target-height="117.39996" target-width="94.89996" target-x="492.2" target-y="429.7"></path><path d="M 342.50 435.60 L 352.20 450.50 L 366.80 444.50 L 370.50 443.60 L 378.00 442.60 L 385.60 442.70 L 389.40 443.20 L 396.10 446.40 L 399.20 448.40 L 403.50 451.90 L 407.60 455.80 L 403.40 460.10 L 400.60 457.70 L 397.70 455.70 L 394.80 454.20 L 391.70 453.10 L 387.40 452.20 L 383.00 452.00 L 378.60 452.30 L 374.20 453.20 L 370.00 454.70 L 365.80 456.60 L 361.90 459.00 L 358.30 461.80 L 355.00 465.00 L 352.10 468.50 L 349.80 472.30 L 348.00 476.40 L 346.60 480.80 L 345.60 485.50 L 345.20 488.70 L 345.40 494.90 L 346.00 498.00 L 347.10 500.80 L 348.60 503.60 L 357.50 506.50 L 366.50 508.70 L 363.10 508.70 L 357.70 507.80 L 352.50 506.20 L 346.00 503.20 L 342.80 501.30 L 342.40 495.70 L 342.70 484.60 L 343.40 479.10 L 344.60 473.60 L 346.20 468.30 L 342.70 466.20 L 339.50 463.80 L 336.60 461.10 L 334.00 458.10 L 331.60 454.90 L 329.60 451.40 L 330.60 445.80 L 338.90 457.00 L 346.10 454.90 L 342.50 435.60 Z" fill="#020203" fill-rule="nonzero" node-id="165" stroke="none" target-height="73.100006" target-width="78" target-x="329.6" target-y="435.6"></path><path d="M 325.20 451.00 L 330.00 449.10 L 329.60 451.40 L 324.70 462.10 L 316.90 474.60 L 302.00 496.60 L 292.00 491.20 L 297.30 487.20 L 302.20 482.80 L 306.80 478.20 L 311.10 473.20 L 316.30 466.10 L 321.00 458.80 L 325.20 451.00 Z" fill="#e2d5c4" fill-rule="nonzero" node-id="167" stroke="none" target-height="47.5" target-width="38" target-x="292" target-y="449.1"></path><path d="M 329.60 451.40 L 331.60 454.90 L 334.00 458.10 L 336.60 461.10 L 339.50 463.80 L 342.70 466.20 L 346.20 468.30 L 344.60 473.60 L 343.40 479.10 L 342.70 484.60 L 342.40 495.70 L 342.80 501.30 L 336.20 499.60 L 329.40 498.40 L 322.60 497.70 L 302.00 496.60 L 321.70 467.20 L 327.30 456.80 L 329.60 451.40 Z" fill="#cb9451" fill-rule="nonzero" node-id="169" stroke="none" target-height="49.899994" target-width="44.200012" target-x="302" target-y="451.4"></path><path d="M 348.00 476.40 L 349.80 472.30 L 352.10 468.50 L 355.00 465.00 L 358.30 461.80 L 361.90 459.00 L 365.80 456.60 L 370.00 454.70 L 374.20 453.20 L 378.60 452.30 L 383.00 452.00 L 387.40 452.20 L 391.70 453.10 L 394.80 454.20 L 397.70 455.70 L 400.60 457.70 L 403.40 460.10 L 399.70 461.20 L 388.30 463.40 L 383.50 465.10 L 381.30 466.40 L 378.40 469.10 L 373.70 475.20 L 371.80 478.60 L 368.90 485.80 L 367.50 493.40 L 367.40 497.20 L 367.60 501.10 L 368.30 504.90 L 369.40 508.70 L 366.50 508.70 L 357.50 506.50 L 348.60 503.60 L 347.10 500.80 L 346.00 498.00 L 345.20 491.80 L 345.60 485.50 L 346.60 480.80 L 348.00 476.40 Z" fill="#f4f4f7" fill-rule="nonzero" node-id="171" stroke="none" target-height="56.700012" target-width="58.19998" target-x="345.2" target-y="452"></path><path d="M 407.60 455.80 L 410.20 460.40 L 412.30 465.20 L 413.90 470.30 L 414.90 475.50 L 415.40 480.80 L 415.40 486.10 L 414.80 491.50 L 413.80 496.60 L 412.20 501.70 L 408.80 496.60 L 407.60 486.30 L 414.10 487.80 L 412.80 478.20 L 411.80 473.50 L 410.30 468.90 L 406.40 467.00 L 402.20 465.60 L 399.30 465.00 L 393.60 464.80 L 390.80 465.30 L 388.10 466.30 L 385.50 467.90 L 382.30 471.60 L 376.50 479.60 L 386.90 480.00 L 382.90 484.60 L 379.30 489.50 L 377.90 492.10 L 376.90 495.00 L 376.50 500.20 L 376.60 505.40 L 377.40 515.80 L 370.40 512.00 L 363.10 508.70 L 369.40 508.70 L 368.30 504.90 L 367.60 501.10 L 367.40 497.20 L 368.10 489.50 L 370.20 482.20 L 373.70 475.20 L 375.90 472.10 L 381.30 466.40 L 383.50 465.10 L 388.30 463.40 L 399.70 461.20 L 403.40 460.10 L 407.60 455.80 Z" fill="#3c404f" fill-rule="nonzero" node-id="173" stroke="none" target-height="60" target-width="52.299988" target-x="363.1" target-y="455.8"></path><path d="M 587.10 463.00 L 588.30 466.70 L 587.80 485.70 L 583.80 489.20 L 571.50 481.20 L 567.10 479.10 L 561.10 477.00 L 557.80 476.50 L 553.70 476.80 L 549.80 477.60 L 546.00 478.90 L 529.10 487.00 L 534.10 479.70 L 536.90 476.30 L 540.00 473.20 L 544.80 469.90 L 550.60 467.20 L 557.00 465.40 L 562.00 464.90 L 577.20 464.50 L 582.20 464.00 L 587.10 463.00 Z" fill="#d5d3d8" fill-rule="nonzero" node-id="175" stroke="none" target-height="26.200012" target-width="59.200012" target-x="529.1" target-y="463"></path><path d="M 385.50 467.90 L 388.10 466.30 L 390.80 465.30 L 393.60 464.80 L 396.50 464.70 L 402.20 465.60 L 406.40 467.00 L 410.30 468.90 L 411.80 473.50 L 412.80 478.20 L 414.10 487.80 L 407.60 486.30 L 402.00 485.40 L 400.10 485.40 L 396.50 486.20 L 395.10 487.00 L 394.20 488.00 L 393.70 489.10 L 393.30 491.10 L 393.00 497.60 L 398.20 497.60 L 408.80 496.60 L 412.20 501.70 L 403.00 521.00 L 396.40 521.60 L 392.40 521.40 L 388.40 520.70 L 384.60 519.60 L 380.90 518.00 L 377.40 515.80 L 376.50 500.20 L 376.90 495.00 L 377.90 492.10 L 379.30 489.50 L 382.90 484.60 L 392.20 474.30 L 385.50 467.90 Z" fill="#060606" fill-rule="nonzero" node-id="177" stroke="none" target-height="56.899963" target-width="37.600006" target-x="376.5" target-y="464.7"></path><path d="M 376.50 479.60 L 382.30 471.60 L 385.50 467.90 L 392.20 474.30 L 386.90 480.00 L 376.50 479.60 Z" fill="#edf0f6" fill-rule="nonzero" node-id="179" stroke="none" target-height="12.100006" target-width="15.700012" target-x="376.5" target-y="467.9"></path><path d="M 396.50 486.20 L 400.10 485.40 L 407.60 486.30 L 408.80 496.60 L 398.20 497.60 L 393.00 497.60 L 393.30 491.10 L 393.70 489.10 L 394.20 488.00 L 395.10 487.00 L 396.50 486.20 Z" fill="#f5f5f5" fill-rule="nonzero" node-id="181" stroke="none" target-height="12.200012" target-width="15.799988" target-x="393" target-y="485.4"></path><path d="M 529.10 487.00 L 535.00 484.10 L 539.80 485.60 L 534.40 490.60 L 549.00 492.80 L 533.80 494.90 L 529.20 497.70 L 524.70 502.50 L 522.30 505.80 L 537.10 510.30 L 521.20 509.40 L 519.60 514.30 L 518.50 519.20 L 517.80 524.10 L 517.70 534.10 L 518.10 539.10 L 519.40 546.50 L 521.20 553.90 L 536.70 554.50 L 528.40 556.20 L 519.90 556.90 L 513.20 554.10 L 500.40 547.50 L 494.30 543.70 L 488.40 539.50 L 482.80 534.90 L 492.20 538.80 L 500.80 542.70 L 509.30 547.10 L 508.80 536.90 L 509.10 526.80 L 510.30 520.10 L 511.30 516.90 L 513.30 511.40 L 515.90 506.20 L 518.80 501.20 L 522.10 496.30 L 529.10 487.00 Z" fill="#4e4a4b" fill-rule="nonzero" node-id="183" stroke="none" target-height="72.80002" target-width="66.20001" target-x="482.8" target-y="484.1"></path><path d="M 539.80 485.60 L 551.90 485.70 L 555.80 486.10 L 560.90 487.50 L 563.40 488.70 L 567.60 491.50 L 571.30 494.80 L 574.80 498.40 L 577.90 502.40 L 583.20 510.90 L 583.70 514.10 L 583.70 517.30 L 582.80 530.40 L 581.10 536.10 L 574.70 552.90 L 564.30 551.60 L 554.30 548.90 L 557.30 544.30 L 559.90 539.30 L 561.40 535.90 L 563.60 528.90 L 564.40 521.60 L 564.20 514.30 L 563.60 510.90 L 562.50 507.80 L 561.00 504.80 L 559.10 502.00 L 556.90 499.30 L 553.10 495.80 L 549.00 492.80 L 534.40 490.60 L 539.80 485.60 Z" fill="#f0f2f7" fill-rule="nonzero" node-id="185" stroke="none" target-height="67.30002" target-width="49.299988" target-x="534.4" target-y="485.6"></path><path d="M 268.70 515.10 L 270.40 511.70 L 272.40 508.50 L 274.70 505.60 L 278.70 501.70 L 283.00 498.00 L 292.00 491.20 L 302.00 496.60 L 322.60 497.70 L 329.40 498.40 L 336.20 499.60 L 342.80 501.30 L 326.20 509.20 L 321.20 512.70 L 318.90 514.70 L 317.70 516.90 L 317.10 519.10 L 317.00 521.30 L 318.10 525.80 L 321.20 531.10 L 323.50 533.70 L 327.10 536.60 L 330.90 539.00 L 334.90 541.00 L 339.10 542.60 L 343.50 543.80 L 348.00 544.50 L 352.50 544.80 L 357.00 544.70 L 361.60 544.20 L 366.00 543.30 L 370.40 542.00 L 379.90 538.40 L 395.20 568.50 L 403.90 589.80 L 406.60 594.90 L 409.10 598.50 L 412.00 601.60 L 415.40 604.30 L 419.20 606.60 L 423.10 608.20 L 427.30 609.40 L 430.50 609.80 L 437.00 609.60 L 440.20 608.90 L 444.40 607.90 L 448.30 606.30 L 452.00 604.40 L 457.20 600.90 L 462.10 596.80 L 471.20 588.00 L 480.90 583.00 L 485.60 580.00 L 489.80 576.70 L 492.40 574.20 L 496.70 568.50 L 498.30 565.40 L 499.50 562.00 L 500.30 558.20 L 501.50 554.80 L 516.80 561.60 L 518.60 566.60 L 520.90 571.20 L 523.70 575.50 L 527.00 579.50 L 530.60 583.00 L 534.60 586.20 L 539.00 589.00 L 543.60 591.30 L 548.40 593.20 L 553.40 594.70 L 558.40 595.60 L 563.50 596.00 L 568.70 595.90 L 573.80 595.30 L 578.80 594.10 L 581.70 593.00 L 584.30 591.60 L 586.80 589.80 L 589.00 587.60 L 590.70 585.10 L 592.00 582.50 L 592.90 578.10 L 592.80 575.90 L 592.40 573.50 L 590.50 569.90 L 588.10 566.70 L 585.30 563.70 L 576.70 555.10 L 581.00 550.50 L 597.60 552.70 L 603.10 553.80 L 610.20 556.00 L 616.70 559.30 L 619.60 561.50 L 622.40 564.20 L 624.90 567.70 L 627.10 571.60 L 628.90 575.80 L 630.10 580.10 L 630.70 586.00 L 630.00 591.80 L 629.10 594.60 L 627.70 597.30 L 623.90 602.60 L 619.70 607.40 L 615.10 611.90 L 610.10 615.90 L 604.70 619.50 L 599.10 622.70 L 593.30 625.50 L 587.30 627.90 L 581.20 630.00 L 569.80 633.20 L 558.20 635.90 L 546.50 637.90 L 534.80 639.50 L 523.00 640.50 L 511.10 641.00 L 499.30 641.10 L 487.40 640.80 L 471.50 639.70 L 455.80 638.00 L 431.60 634.10 L 423.10 632.10 L 414.80 629.80 L 402.40 625.60 L 390.20 621.00 L 366.00 611.20 L 357.70 607.40 L 341.60 598.80 L 333.80 593.90 L 326.20 588.70 L 318.90 583.30 L 311.80 577.40 L 305.10 571.30 L 301.40 567.60 L 298.30 563.60 L 293.00 555.10 L 288.90 545.80 L 286.30 538.60 L 279.80 516.70 L 286.10 511.20 L 268.70 515.10 Z" fill="#f3f4f5" fill-rule="nonzero" node-id="187" stroke="none" target-height="149.89996" target-width="362" target-x="268.7" target-y="491.2"></path><path d="M 342.80 501.30 L 346.00 503.20 L 352.50 506.20 L 357.70 507.80 L 363.10 508.70 L 370.40 512.00 L 380.90 518.00 L 384.60 519.60 L 388.40 520.70 L 392.40 521.40 L 402.40 521.50 L 386.40 526.70 L 399.70 529.10 L 385.10 532.10 L 381.70 533.20 L 378.70 534.70 L 377.00 536.10 L 375.70 537.90 L 374.60 540.30 L 370.40 542.00 L 366.00 543.30 L 361.60 544.20 L 357.00 544.70 L 352.50 544.80 L 348.00 544.50 L 343.50 543.80 L 339.10 542.60 L 334.90 541.00 L 330.90 539.00 L 327.10 536.60 L 323.50 533.70 L 321.20 531.10 L 318.10 525.80 L 317.00 521.30 L 317.10 519.10 L 317.70 516.90 L 318.90 514.70 L 323.60 510.80 L 330.30 507.10 L 342.80 501.30 Z" fill="#cb8594" fill-rule="nonzero" node-id="189" stroke="none" target-height="43.5" target-width="85.399994" target-x="317" target-y="501.3"></path><path d="M 539.70 510.30 L 541.90 510.00 L 544.10 510.00 L 546.30 510.50 L 548.10 511.50 L 549.10 512.50 L 549.70 513.80 L 550.10 515.40 L 550.20 521.70 L 542.60 522.60 L 541.30 521.60 L 540.10 519.10 L 539.70 517.00 L 539.70 510.30 Z" fill="#fdfdfc" fill-rule="nonzero" node-id="191" stroke="none" target-height="12.599976" target-width="10.5" target-x="539.7" target-y="510"></path><path d="M 403.00 521.00 L 406.10 514.40 L 413.60 516.20 L 425.90 514.80 L 438.20 514.00 L 444.40 514.20 L 450.50 515.10 L 457.50 516.80 L 460.80 518.10 L 465.50 520.60 L 469.90 523.70 L 477.90 530.80 L 474.30 540.50 L 471.40 546.70 L 469.40 549.50 L 466.60 551.60 L 463.60 553.20 L 460.40 554.40 L 450.40 557.20 L 441.90 556.40 L 437.80 555.60 L 433.80 554.30 L 426.60 548.50 L 423.30 545.10 L 420.60 541.30 L 419.20 538.70 L 418.20 535.90 L 417.60 533.00 L 417.50 530.10 L 418.00 527.00 L 419.10 523.80 L 427.90 524.20 L 436.50 525.20 L 453.60 528.40 L 470.60 532.20 L 467.00 528.70 L 463.20 525.80 L 459.30 523.50 L 455.00 521.70 L 450.60 520.20 L 441.30 518.60 L 431.60 518.20 L 424.30 518.60 L 403.00 521.00 Z M 427.30 529.70 L 430.30 532.30 L 433.50 534.40 L 437.00 536.00 L 440.60 537.20 L 448.30 538.50 L 454.20 538.80 L 459.90 538.60 L 455.00 535.60 L 449.80 533.10 L 442.60 530.70 L 435.00 529.50 L 427.30 529.70 Z" fill="#51221e" fill-rule="nonzero" node-id="193" stroke="none" target-height="43.200012" target-width="74.899994" target-x="403" target-y="514"></path><path d="M 550.10 515.40 L 554.00 518.20 L 556.50 521.70 L 557.40 524.30 L 557.80 527.10 L 557.80 530.10 L 557.20 533.00 L 556.30 535.80 L 554.90 538.50 L 553.10 541.10 L 551.10 543.20 L 548.70 545.10 L 551.50 525.70 L 540.60 522.80 L 550.20 521.70 L 550.10 515.40 Z" fill="#474649" fill-rule="nonzero" node-id="195" stroke="none" target-height="29.699951" target-width="17.200012" target-x="540.6" target-y="515.4"></path><path d="M 270.60 542.30 L 271.80 533.10 L 272.80 528.50 L 274.40 524.20 L 275.80 521.50 L 277.60 519.00 L 279.80 516.70 L 286.30 538.60 L 288.90 545.80 L 293.00 555.10 L 298.30 563.60 L 301.40 567.60 L 305.10 571.30 L 311.80 577.40 L 318.90 583.20 L 326.20 588.70 L 341.60 598.80 L 357.70 607.40 L 366.00 611.20 L 390.20 621.00 L 402.40 625.60 L 414.80 629.80 L 423.10 632.10 L 431.60 634.10 L 440.20 635.70 L 455.80 638.00 L 471.50 639.70 L 487.40 640.80 L 499.30 641.10 L 511.10 641.00 L 523.00 640.50 L 534.80 639.50 L 546.50 637.90 L 558.20 635.90 L 569.80 633.20 L 581.20 630.00 L 587.30 627.90 L 593.30 625.50 L 599.10 622.70 L 604.70 619.50 L 610.10 615.90 L 615.10 611.90 L 619.70 607.40 L 623.90 602.60 L 627.70 597.30 L 629.10 594.60 L 630.00 591.80 L 630.60 588.90 L 630.60 583.10 L 630.10 580.10 L 628.90 575.80 L 627.10 571.60 L 624.90 567.70 L 622.40 564.20 L 619.60 561.50 L 616.70 559.30 L 613.50 557.50 L 606.70 554.70 L 603.10 553.80 L 597.60 552.70 L 581.00 550.50 L 582.40 549.10 L 589.20 549.40 L 602.60 551.00 L 612.60 553.10 L 622.40 555.60 L 641.80 561.60 L 648.30 564.50 L 649.80 570.90 L 655.10 582.90 L 642.90 578.40 L 645.80 587.70 L 646.90 592.50 L 647.60 597.30 L 647.80 602.10 L 647.60 606.80 L 647.00 610.40 L 644.80 617.20 L 643.10 620.60 L 635.20 609.70 L 631.20 620.30 L 626.50 630.70 L 620.50 627.40 L 617.40 630.60 L 610.70 636.00 L 602.00 640.80 L 596.70 643.00 L 591.20 644.80 L 582.80 647.00 L 557.30 652.40 L 549.10 653.60 L 536.00 654.10 L 522.90 654.20 L 509.90 653.90 L 496.80 653.20 L 483.80 652.00 L 470.80 650.50 L 457.90 648.50 L 445.00 646.20 L 432.20 643.40 L 407.00 636.80 L 394.50 633.00 L 379.10 627.70 L 363.80 622.10 L 353.70 618.10 L 343.80 613.60 L 334.10 608.80 L 327.00 604.90 L 313.40 596.00 L 306.90 591.00 L 300.70 585.70 L 290.90 576.10 L 284.10 567.70 L 281.10 563.10 L 278.50 558.30 L 275.80 551.10 L 275.60 549.00 L 275.80 546.90 L 276.70 543.80 L 280.70 534.80 L 270.60 542.30 Z" fill="#cad1dd" fill-rule="nonzero" node-id="197" stroke="none" target-height="137.5" target-width="384.49997" target-x="270.6" target-y="516.7"></path><path d="M 403.00 521.00 L 417.00 519.20 L 431.60 518.20 L 436.50 518.30 L 446.00 519.30 L 450.60 520.20 L 455.00 521.70 L 459.30 523.50 L 463.20 525.80 L 467.00 528.70 L 470.60 532.20 L 453.60 528.40 L 436.50 525.20 L 427.90 524.20 L 419.10 523.80 L 400.50 521.40 L 403.00 521.00 Z" fill="#e8c9a1" fill-rule="nonzero" node-id="199" stroke="none" target-height="14" target-width="70.100006" target-x="400.5" target-y="518.2"></path><path d="M 386.40 526.70 L 402.40 521.50 L 419.10 523.80 L 418.00 527.00 L 417.50 530.10 L 417.60 533.00 L 418.20 535.90 L 419.20 538.70 L 420.60 541.30 L 423.30 545.10 L 426.60 548.50 L 433.80 554.30 L 433.60 567.70 L 416.50 562.40 L 408.20 559.10 L 403.20 556.30 L 388.70 546.70 L 388.20 543.80 L 388.00 541.00 L 388.30 538.20 L 389.00 535.60 L 390.20 533.10 L 392.00 530.70 L 399.70 529.10 L 386.40 526.70 Z" fill="#f5f6f8" fill-rule="nonzero" node-id="201" stroke="none" target-height="46.200012" target-width="47.399994" target-x="386.4" target-y="521.5"></path><path d="M 427.30 529.70 L 435.00 529.50 L 442.60 530.70 L 449.80 533.10 L 455.00 535.60 L 459.90 538.60 L 454.20 538.80 L 448.30 538.50 L 440.60 537.20 L 437.00 536.00 L 433.50 534.40 L 430.30 532.30 L 427.30 529.70 Z" fill="#dbc5b4" fill-rule="nonzero" node-id="203" stroke="none" target-height="9.299988" target-width="32.600006" target-x="427.3" target-y="529.5"></path><path d="M 469.40 549.50 L 471.40 546.70 L 473.00 543.70 L 477.90 530.80 L 488.40 539.50 L 494.30 543.70 L 500.40 547.50 L 513.20 554.10 L 519.90 556.90 L 516.80 561.60 L 501.50 554.80 L 500.30 558.20 L 494.70 557.40 L 494.70 563.20 L 494.10 568.90 L 491.50 572.00 L 488.40 574.60 L 481.70 579.40 L 464.10 577.90 L 454.40 576.20 L 447.00 573.70 L 443.90 571.60 L 441.80 567.80 L 439.60 559.80 L 460.40 554.40 L 463.60 553.20 L 466.60 551.60 L 469.40 549.50 Z" fill="#e5e8ed" fill-rule="nonzero" node-id="205" stroke="none" target-height="48.600037" target-width="80.30002" target-x="439.6" target-y="530.8"></path><path d="M 388.70 546.70 L 403.20 556.30 L 408.20 559.10 L 416.50 562.40 L 433.60 567.70 L 435.20 568.80 L 431.40 570.30 L 427.50 571.20 L 423.60 571.70 L 419.70 571.70 L 415.80 571.20 L 411.90 570.30 L 404.50 567.50 L 401.00 565.50 L 396.40 559.50 L 392.30 553.30 L 388.70 546.70 Z" fill="#cecfd6" fill-rule="nonzero" node-id="207" stroke="none" target-height="25" target-width="46.5" target-x="388.7" target-y="546.7"></path><path d="M 536.70 554.50 L 545.60 551.90 L 554.30 548.90 L 564.30 551.60 L 574.70 552.90 L 585.30 563.70 L 590.50 569.90 L 592.40 573.50 L 592.90 578.10 L 592.00 582.50 L 590.70 585.10 L 589.00 587.60 L 586.80 589.80 L 584.30 591.60 L 581.70 593.00 L 578.80 594.10 L 573.80 595.30 L 568.70 595.90 L 563.50 596.00 L 558.40 595.60 L 553.40 594.70 L 548.40 593.20 L 543.60 591.30 L 539.00 589.00 L 534.60 586.20 L 530.60 583.00 L 527.00 579.50 L 523.70 575.50 L 520.90 571.20 L 518.60 566.60 L 516.80 561.60 L 519.90 556.90 L 528.40 556.20 L 536.70 554.50 Z" fill="#cd8895" fill-rule="nonzero" node-id="209" stroke="none" target-height="47.099976" target-width="76.10004" target-x="516.8" target-y="548.9"></path><path d="M 433.80 554.30 L 437.80 555.60 L 441.90 556.40 L 450.40 557.20 L 439.60 559.80 L 441.80 567.80 L 442.90 570.20 L 445.20 572.80 L 447.00 573.70 L 450.60 575.10 L 458.20 577.00 L 464.10 577.90 L 481.70 579.40 L 473.90 583.40 L 466.40 583.70 L 458.90 583.20 L 455.20 582.30 L 451.70 580.90 L 447.40 578.10 L 433.60 567.70 L 433.80 554.30 Z" fill="#a9adb5" fill-rule="nonzero" node-id="211" stroke="none" target-height="29.400024" target-width="48.100006" target-x="433.6" target-y="554.3"></path><path d="M 494.70 557.40 L 500.30 558.20 L 499.50 562.00 L 498.30 565.40 L 496.70 568.50 L 494.70 571.50 L 489.80 576.70 L 485.60 580.00 L 480.90 583.00 L 471.20 588.00 L 473.90 583.40 L 481.70 579.40 L 485.10 577.10 L 491.50 572.00 L 494.10 568.90 L 494.70 563.20 L 494.70 557.40 Z" fill="#382a28" fill-rule="nonzero" node-id="213" stroke="none" target-height="30.599976" target-width="29.099976" target-x="471.2" target-y="557.4"></path><path d="M 647.90 560.50 L 650.40 562.00 L 652.40 563.70 L 653.90 565.70 L 655.70 569.10 L 657.00 572.90 L 659.50 585.10 L 660.70 588.80 L 649.90 587.90 L 652.20 600.30 L 652.50 604.50 L 652.10 608.40 L 651.10 612.10 L 649.70 615.60 L 644.00 625.60 L 635.50 624.50 L 630.10 633.00 L 627.70 635.40 L 617.80 637.60 L 599.80 645.70 L 588.70 649.70 L 577.20 652.50 L 571.40 653.30 L 565.60 653.60 L 557.30 652.40 L 582.80 647.00 L 591.20 644.80 L 596.70 643.00 L 602.00 640.80 L 610.70 636.00 L 617.40 630.60 L 620.50 627.40 L 626.50 630.70 L 631.20 620.30 L 635.20 609.70 L 643.10 620.60 L 644.80 617.20 L 647.00 610.40 L 647.60 606.80 L 647.80 602.10 L 647.60 597.30 L 646.90 592.50 L 645.80 587.70 L 642.90 578.40 L 655.10 582.90 L 649.80 570.90 L 648.90 567.70 L 647.90 560.50 Z" fill="#72544c" fill-rule="nonzero" node-id="215" stroke="none" target-height="93.099976" target-width="103.400024" target-x="557.3" target-y="560.5"></path><path d="M 406.60 594.90 L 404.50 587.70 L 402.90 580.40 L 401.00 565.50 L 404.50 567.50 L 411.90 570.30 L 415.80 571.20 L 419.70 571.70 L 423.60 571.70 L 427.50 571.20 L 431.40 570.30 L 435.20 568.80 L 447.40 578.10 L 451.70 580.90 L 455.20 582.30 L 458.90 583.20 L 462.60 583.60 L 473.90 583.40 L 471.20 588.00 L 462.10 596.80 L 457.20 600.90 L 452.00 604.40 L 448.30 606.30 L 444.40 607.90 L 437.00 609.60 L 430.50 609.80 L 427.30 609.40 L 423.10 608.20 L 419.20 606.60 L 415.40 604.30 L 412.00 601.60 L 409.10 598.50 L 406.60 594.90 Z M 414.70 587.50 L 419.90 591.30 L 423.70 593.10 L 425.80 593.40 L 431.60 593.30 L 433.30 592.90 L 434.80 592.10 L 435.80 591.00 L 436.30 588.80 L 436.10 587.10 L 430.80 586.60 L 425.40 586.60 L 414.70 587.50 Z M 432.60 596.40 L 427.40 595.90 L 412.30 592.90 L 413.80 595.70 L 415.60 598.00 L 417.50 599.90 L 419.70 601.40 L 422.90 603.00 L 426.30 604.10 L 430.00 604.60 L 433.80 604.60 L 437.50 604.30 L 441.30 603.50 L 445.00 602.30 L 451.70 599.10 L 452.00 592.60 L 445.50 590.30 L 437.10 594.90 L 432.60 596.40 Z" fill="#752129" fill-rule="nonzero" node-id="217" stroke="none" target-height="44.299988" target-width="72.899994" target-x="401" target-y="565.5"></path><path d="M 414.70 587.50 L 425.40 586.60 L 430.80 586.60 L 436.10 587.10 L 436.20 590.00 L 435.80 591.00 L 434.80 592.10 L 433.30 592.90 L 429.60 593.50 L 425.80 593.40 L 423.70 593.10 L 421.70 592.30 L 414.70 587.50 Z" fill="#b95973" fill-rule="nonzero" node-id="219" stroke="none" target-height="6.9000244" target-width="21.5" target-x="414.7" target-y="586.6"></path><path d="M 432.60 596.40 L 437.10 594.90 L 445.50 590.30 L 452.00 592.60 L 451.70 599.10 L 445.00 602.30 L 441.30 603.50 L 437.50 604.30 L 433.80 604.60 L 430.00 604.60 L 426.30 604.10 L 422.90 603.00 L 419.70 601.40 L 417.50 599.90 L 415.60 598.00 L 413.80 595.70 L 412.30 592.90 L 427.40 595.90 L 432.60 596.40 Z" fill="#c36a82" fill-rule="nonzero" node-id="221" stroke="none" target-height="14.299988" target-width="39.700012" target-x="412.3" target-y="590.3"></path><path d="M 389.00 665.30 L 389.10 657.50 L 389.90 649.70 L 390.80 644.60 L 392.10 639.60 L 393.80 634.70 L 405.90 638.60 L 418.00 642.10 L 430.30 645.10 L 442.70 647.70 L 459.30 650.70 L 476.00 653.00 L 492.70 654.80 L 492.30 656.90 L 491.30 661.70 L 490.00 664.60 L 484.90 662.30 L 479.60 660.40 L 474.30 658.90 L 466.10 657.20 L 433.20 652.50 L 409.20 647.80 L 393.10 645.10 L 389.00 665.30 Z" fill="#c4c5cc" fill-rule="nonzero" node-id="223" stroke="none" target-height="30.599976" target-width="103.70001" target-x="389" target-y="634.7"></path><path d="M 393.10 645.10 L 409.20 647.80 L 433.20 652.50 L 466.10 657.20 L 474.30 658.90 L 479.60 660.40 L 484.90 662.30 L 490.00 664.60 L 487.00 670.10 L 483.70 675.30 L 480.00 680.20 L 475.30 678.60 L 470.60 677.50 L 465.70 677.00 L 460.70 677.00 L 455.90 677.50 L 451.10 678.50 L 446.80 680.20 L 442.80 682.40 L 435.50 687.90 L 428.60 693.90 L 417.40 682.20 L 411.00 677.40 L 407.50 676.20 L 403.80 675.50 L 388.70 675.00 L 389.00 665.30 L 393.10 645.10 Z" fill="#f0f0f2" fill-rule="nonzero" node-id="225" stroke="none" target-height="48.80005" target-width="101.29999" target-x="388.7" target-y="645.1"></path><path d="M 365.90 693.60 L 367.00 685.60 L 368.60 677.70 L 370.10 672.40 L 372.00 667.40 L 374.20 662.50 L 376.90 657.90 L 380.10 653.60 L 383.90 649.60 L 384.20 662.60 L 384.10 675.60 L 374.70 684.30 L 365.90 693.60 Z" fill="#d8955a" fill-rule="nonzero" node-id="227" stroke="none" target-height="44" target-width="18.300018" target-x="365.9" target-y="649.6"></path><path d="M 549.10 653.60 L 557.30 652.40 L 565.60 653.60 L 565.40 658.20 L 565.70 662.70 L 566.40 667.00 L 567.60 671.20 L 569.80 676.60 L 572.50 681.80 L 575.80 686.70 L 579.60 691.30 L 583.80 695.50 L 593.30 703.30 L 598.60 706.90 L 604.10 710.00 L 612.70 714.10 L 639.40 724.90 L 651.00 730.20 L 656.50 733.20 L 661.80 736.60 L 666.80 740.50 L 671.60 744.90 L 675.60 749.10 L 682.20 758.10 L 685.60 765.00 L 688.60 772.00 L 691.00 779.20 L 693.00 786.50 L 694.50 794.00 L 695.60 801.50 L 696.10 809.10 L 696.10 816.70 L 695.60 824.40 L 692.10 834.80 L 689.50 841.10 L 686.40 847.20 L 679.30 858.80 L 675.30 864.40 L 680.70 873.10 L 683.60 879.40 L 684.60 884.80 L 684.10 889.40 L 681.80 892.40 L 679.10 894.90 L 676.00 897.00 L 666.10 902.20 L 656.20 906.50 L 636.00 914.20 L 625.70 917.40 L 615.30 920.20 L 604.70 922.40 L 596.80 923.70 L 588.70 924.50 L 580.70 924.90 L 572.50 925.00 L 565.70 924.50 L 559.00 923.50 L 552.50 922.00 L 546.00 920.10 L 539.70 917.70 L 533.50 914.90 L 535.30 907.10 L 536.50 904.00 L 538.10 901.10 L 542.20 895.90 L 544.70 893.60 L 548.90 890.60 L 553.30 888.10 L 545.80 895.80 L 542.00 900.50 L 540.20 904.60 L 539.90 906.80 L 540.10 909.10 L 540.80 911.70 L 542.50 913.60 L 544.50 915.10 L 546.60 916.30 L 550.20 917.40 L 561.40 919.40 L 563.90 913.30 L 567.00 907.40 L 569.40 903.80 L 572.20 900.40 L 577.00 896.20 L 574.30 899.80 L 572.00 903.60 L 570.10 907.60 L 568.80 911.80 L 568.00 916.20 L 567.90 920.80 L 577.00 920.90 L 586.10 920.60 L 595.10 919.60 L 604.00 918.20 L 612.90 916.30 L 634.60 909.90 L 647.40 905.40 L 655.80 902.10 L 664.10 898.40 L 672.10 894.40 L 675.50 892.10 L 678.80 889.20 L 680.00 887.60 L 680.80 885.90 L 680.80 883.30 L 679.00 879.00 L 677.40 876.50 L 673.30 871.90 L 668.80 867.70 L 673.70 860.10 L 681.30 847.00 L 686.10 836.00 L 688.00 830.30 L 689.40 824.40 L 690.90 812.20 L 691.00 806.00 L 690.50 799.80 L 689.60 793.60 L 688.30 787.60 L 683.40 773.60 L 679.90 765.80 L 677.20 760.90 L 674.30 756.20 L 670.90 751.70 L 667.20 747.50 L 663.20 743.70 L 659.00 740.20 L 654.40 737.10 L 649.50 734.30 L 641.60 730.60 L 609.10 717.10 L 596.20 710.50 L 586.40 704.00 L 574.50 693.10 L 576.50 700.30 L 579.00 707.50 L 590.70 735.30 L 586.90 731.30 L 580.40 722.50 L 577.60 717.80 L 574.30 711.30 L 571.40 704.60 L 568.90 697.70 L 565.80 687.10 L 558.40 656.30 L 545.10 657.10 L 531.70 657.40 L 503.40 657.10 L 502.00 657.40 L 499.00 659.00 L 497.40 660.60 L 494.90 664.20 L 485.60 683.00 L 480.00 680.20 L 483.70 675.30 L 487.00 670.10 L 490.00 664.60 L 494.00 655.60 L 530.80 655.70 L 543.00 654.60 L 549.10 653.60 Z" fill="#7d4526" fill-rule="nonzero" node-id="229" stroke="none" target-height="272.59998" target-width="216.09998" target-x="480" target-y="652.4"></path><path d="M 494.90 664.20 L 497.40 660.60 L 499.00 659.00 L 500.70 657.90 L 503.50 657.10 L 531.70 657.40 L 545.10 657.10 L 558.40 656.30 L 563.10 676.50 L 555.90 673.20 L 548.70 670.50 L 541.20 668.30 L 533.60 666.70 L 526.00 665.40 L 518.30 664.60 L 510.50 664.10 L 494.90 664.20 Z" fill="#cb7f49" fill-rule="nonzero" node-id="231" stroke="none" target-height="20.200012" target-width="68.19998" target-x="494.9" target-y="656.3"></path><path d="M 494.90 664.20 L 502.70 664.00 L 518.30 664.60 L 526.00 665.40 L 533.60 666.70 L 541.20 668.30 L 548.70 670.50 L 555.90 673.20 L 563.10 676.50 L 565.80 687.10 L 568.90 697.70 L 571.40 704.60 L 574.30 711.30 L 577.60 717.80 L 580.40 722.50 L 586.90 731.30 L 590.70 735.30 L 579.00 707.50 L 576.50 700.30 L 574.50 693.10 L 586.40 704.00 L 589.30 710.20 L 592.20 713.60 L 601.70 719.20 L 609.60 723.00 L 633.60 733.60 L 646.60 740.30 L 656.30 746.70 L 660.10 750.00 L 663.60 753.50 L 676.40 768.70 L 679.90 765.80 L 683.40 773.60 L 686.40 781.70 L 684.90 785.50 L 682.80 793.20 L 681.90 799.10 L 679.30 823.20 L 678.00 829.00 L 675.30 836.50 L 673.40 840.10 L 667.40 848.00 L 664.00 851.60 L 656.30 858.00 L 647.80 863.10 L 643.30 865.20 L 638.60 867.00 L 629.00 869.40 L 619.20 870.30 L 614.20 870.20 L 609.30 869.60 L 604.40 868.60 L 596.50 866.50 L 592.70 865.00 L 587.30 862.20 L 582.20 858.90 L 572.70 851.10 L 569.60 857.90 L 567.90 853.00 L 569.30 834.60 L 570.00 828.50 L 571.10 822.50 L 572.50 816.50 L 574.70 811.30 L 577.30 806.30 L 585.60 791.60 L 588.00 786.50 L 593.40 779.70 L 580.70 787.60 L 574.60 773.90 L 580.10 761.70 L 573.90 765.10 L 567.40 768.00 L 560.80 770.30 L 554.10 772.10 L 547.20 773.40 L 540.30 774.30 L 533.30 774.70 L 526.20 774.60 L 519.10 774.20 L 512.10 773.30 L 505.20 772.00 L 498.30 770.40 L 484.80 766.00 L 472.10 760.20 L 466.90 757.40 L 462.10 754.30 L 457.60 750.70 L 449.20 742.70 L 434.10 724.90 L 429.70 732.60 L 428.60 726.40 L 428.10 720.10 L 428.20 715.90 L 428.80 711.70 L 429.70 707.60 L 430.30 715.50 L 437.70 703.70 L 443.20 696.30 L 446.40 693.10 L 448.70 691.20 L 454.30 688.40 L 457.80 687.40 L 461.20 686.90 L 464.60 686.90 L 471.30 688.00 L 474.70 688.90 L 494.30 696.60 L 505.70 705.20 L 503.20 700.80 L 497.30 692.60 L 493.80 689.00 L 489.90 685.80 L 485.60 683.00 L 494.90 664.20 Z" fill="#d8a161" fill-rule="nonzero" node-id="233" stroke="none" target-height="206.29999" target-width="258.30002" target-x="428.1" target-y="664"></path><path d="M 367.30 712.70 L 367.30 708.40 L 367.80 704.30 L 368.90 700.20 L 370.50 696.30 L 372.60 692.60 L 375.10 689.20 L 378.00 686.20 L 381.20 683.50 L 384.80 681.30 L 388.60 679.60 L 392.60 678.50 L 396.90 678.00 L 400.20 678.00 L 403.30 678.40 L 406.10 679.30 L 408.90 680.50 L 412.30 682.70 L 415.30 685.40 L 418.00 688.60 L 420.20 692.10 L 422.00 695.80 L 423.30 699.80 L 424.20 703.90 L 424.40 707.90 L 424.20 711.90 L 421.00 717.40 L 415.10 726.20 L 411.40 719.40 L 405.60 722.10 L 394.40 728.40 L 389.20 732.00 L 384.10 735.90 L 379.30 740.20 L 376.00 736.30 L 373.20 732.10 L 370.80 727.50 L 368.30 720.30 L 367.30 712.70 Z" fill="#f6f6f7" fill-rule="nonzero" node-id="235" stroke="none" target-height="62.200012" target-width="57.100006" target-x="367.3" target-y="678"></path><path d="M 429.70 707.60 L 431.10 703.70 L 432.80 700.00 L 435.00 696.50 L 437.50 693.30 L 440.30 690.30 L 443.50 687.70 L 446.90 685.50 L 450.50 683.70 L 454.30 682.30 L 458.30 681.40 L 462.40 681.10 L 470.30 681.60 L 473.80 682.40 L 477.20 683.60 L 483.50 687.00 L 486.40 689.10 L 490.50 692.70 L 494.30 696.60 L 479.60 690.70 L 471.30 688.00 L 464.60 686.90 L 461.20 686.90 L 457.80 687.40 L 454.30 688.40 L 448.70 691.20 L 446.40 693.10 L 443.20 696.30 L 437.70 703.70 L 430.30 715.50 L 429.70 707.60 Z" fill="#d9bb94" fill-rule="nonzero" node-id="237" stroke="none" target-height="34.400024" target-width="64.599976" target-x="429.7" target-y="681.1"></path><path d="M 594.10 714.90 L 592.20 713.60 L 590.60 712.00 L 588.20 708.20 L 586.40 704.00 L 591.20 707.40 L 601.30 713.30 L 617.20 720.50 L 641.60 730.60 L 649.50 734.30 L 654.40 737.10 L 659.00 740.20 L 663.20 743.70 L 667.20 747.50 L 670.90 751.70 L 674.30 756.20 L 677.20 760.90 L 679.90 765.80 L 676.40 768.70 L 663.60 753.50 L 660.10 750.00 L 656.30 746.70 L 651.50 743.40 L 641.50 737.50 L 633.60 733.60 L 609.60 723.00 L 601.70 719.20 L 594.10 714.90 Z" fill="#dfbd8d" fill-rule="nonzero" node-id="239" stroke="none" target-height="64.70001" target-width="93.5" target-x="586.4" target-y="704"></path><path d="M 421.00 717.40 L 424.20 711.90 L 424.00 717.80 L 424.20 723.60 L 424.80 729.30 L 425.90 735.00 L 427.50 740.60 L 429.60 746.10 L 418.00 750.00 L 412.10 751.60 L 406.10 752.70 L 396.80 749.80 L 402.60 749.40 L 408.40 748.50 L 419.80 745.60 L 411.10 729.90 L 423.30 739.80 L 421.00 717.40 Z" fill="#6d6061" fill-rule="nonzero" node-id="241" stroke="none" target-height="40.799988" target-width="32.80002" target-x="396.8" target-y="711.9"></path><path d="M 685.30 729.40 L 689.20 727.30 L 704.00 717.00 L 707.90 715.10 L 710.70 714.20 L 713.60 713.70 L 719.20 713.50 L 721.40 713.70 L 726.40 715.60 L 737.70 723.30 L 744.10 726.60 L 747.20 728.80 L 750.80 732.40 L 753.40 736.80 L 754.20 739.20 L 756.00 747.10 L 762.40 760.80 L 763.50 764.50 L 763.80 767.10 L 763.60 769.80 L 762.90 772.70 L 761.00 778.20 L 758.60 783.50 L 755.80 788.60 L 752.60 793.40 L 749.00 798.10 L 745.20 802.40 L 741.10 806.50 L 736.60 810.30 L 731.90 813.80 L 721.90 819.80 L 711.20 824.40 L 705.70 826.10 L 700.00 827.40 L 694.30 828.30 L 695.60 824.40 L 702.60 822.60 L 709.40 820.40 L 716.10 817.60 L 722.60 814.40 L 728.70 810.60 L 734.50 806.40 L 738.60 802.80 L 742.30 799.00 L 745.80 794.80 L 749.00 790.30 L 754.40 781.70 L 756.60 777.10 L 758.20 772.30 L 758.90 769.00 L 759.10 765.60 L 758.40 760.60 L 757.00 758.40 L 755.50 757.30 L 753.60 756.50 L 745.20 754.90 L 748.60 748.80 L 749.50 746.70 L 749.90 744.50 L 749.80 742.10 L 748.20 737.30 L 745.20 733.10 L 743.30 731.50 L 741.20 730.10 L 738.80 729.20 L 736.40 728.70 L 733.80 728.80 L 727.20 731.70 L 721.00 735.50 L 728.80 721.70 L 719.40 718.80 L 714.10 718.30 L 709.90 719.30 L 705.70 721.10 L 702.00 723.30 L 698.50 725.90 L 695.40 729.00 L 692.60 732.40 L 690.20 736.10 L 688.20 740.00 L 686.60 744.10 L 685.30 748.30 L 675.60 749.10 L 671.60 744.90 L 677.40 736.10 L 679.60 733.40 L 683.10 730.50 L 685.30 729.40 Z" fill="#8e6a5e" fill-rule="nonzero" node-id="243" stroke="none" target-height="114.79999" target-width="92.20001" target-x="671.6" target-y="713.5"></path><path d="M 415.10 726.20 L 421.00 717.40 L 423.30 739.80 L 411.10 729.90 L 419.80 745.60 L 408.40 748.50 L 402.60 749.40 L 396.80 749.80 L 392.10 748.00 L 387.70 745.80 L 379.30 740.20 L 384.10 735.90 L 389.20 732.00 L 394.40 728.40 L 405.60 722.10 L 411.40 719.40 L 415.10 726.20 Z" fill="#dcdde3" fill-rule="nonzero" node-id="245" stroke="none" target-height="32.399963" target-width="44" target-x="379.3" target-y="717.4"></path><path d="M 685.30 748.30 L 686.60 744.10 L 688.20 740.00 L 690.20 736.10 L 692.60 732.40 L 695.40 729.00 L 698.50 725.90 L 702.00 723.30 L 705.70 721.10 L 709.90 719.30 L 714.10 718.30 L 719.40 718.80 L 728.80 721.70 L 721.00 735.50 L 727.20 731.70 L 733.80 728.80 L 736.40 728.70 L 738.80 729.20 L 741.20 730.10 L 743.30 731.50 L 745.20 733.10 L 748.20 737.30 L 749.80 742.10 L 749.90 744.50 L 749.50 746.70 L 748.60 748.80 L 745.20 754.90 L 753.60 756.50 L 755.50 757.30 L 757.00 758.40 L 758.40 760.60 L 759.10 765.60 L 758.90 769.00 L 758.20 772.30 L 756.60 777.10 L 754.40 781.70 L 749.00 790.30 L 736.80 797.40 L 730.50 800.60 L 719.70 805.00 L 710.60 807.20 L 707.20 792.60 L 705.20 785.40 L 702.70 778.40 L 700.70 773.90 L 698.30 769.50 L 695.50 765.40 L 693.80 763.40 L 691.80 761.90 L 689.50 760.70 L 682.20 758.10 L 675.60 749.10 L 685.30 748.30 Z" fill="#f1f2f7" fill-rule="nonzero" node-id="247" stroke="none" target-height="88.900024" target-width="83.5" target-x="675.6" target-y="718.3"></path><path d="M 434.10 724.90 L 449.20 742.70 L 457.60 750.70 L 462.10 754.30 L 466.90 757.40 L 478.40 763.30 L 484.80 766.00 L 498.30 770.40 L 512.10 773.30 L 526.20 774.60 L 533.30 774.70 L 540.30 774.30 L 547.20 773.40 L 554.10 772.10 L 560.80 770.30 L 567.40 768.00 L 573.90 765.10 L 580.10 761.70 L 574.60 773.90 L 577.20 779.60 L 573.50 781.40 L 564.40 783.60 L 555.30 785.50 L 546.00 787.00 L 536.60 787.90 L 527.30 788.30 L 518.00 788.10 L 511.00 787.50 L 504.10 786.40 L 497.20 784.90 L 484.10 780.70 L 471.60 775.30 L 465.60 772.00 L 459.80 768.40 L 454.20 764.40 L 449.00 760.10 L 444.20 755.40 L 439.80 750.30 L 436.80 746.20 L 431.80 737.40 L 429.70 732.60 L 434.10 724.90 Z" fill="#ca854f" fill-rule="nonzero" node-id="249" stroke="none" target-height="63.399963" target-width="150.39996" target-x="429.7" target-y="724.9"></path><path d="M 370.50 738.20 L 375.00 744.20 L 378.60 754.50 L 380.70 765.10 L 381.40 776.00 L 378.50 772.40 L 376.20 768.60 L 374.20 764.60 L 372.70 760.40 L 370.80 751.60 L 370.40 747.10 L 370.50 738.20 Z" fill="#dab88c" fill-rule="nonzero" node-id="251" stroke="none" target-height="37.799988" target-width="11" target-x="370.4" target-y="738.2"></path><path d="M 375.00 744.20 L 393.80 753.00 L 399.90 756.30 L 400.70 764.70 L 400.60 768.90 L 400.20 773.10 L 399.30 777.10 L 397.90 781.10 L 396.40 782.00 L 393.70 782.90 L 391.60 782.80 L 387.40 781.20 L 381.40 778.00 L 381.20 770.50 L 379.80 759.80 L 376.90 749.30 L 375.00 744.20 Z" fill="#c78144" fill-rule="nonzero" node-id="253" stroke="none" target-height="38.700012" target-width="25.700012" target-x="375" target-y="744.2"></path><path d="M 429.60 746.10 L 433.70 751.30 L 442.70 760.70 L 447.60 765.00 L 454.50 770.30 L 461.80 775.00 L 469.40 779.20 L 477.30 782.90 L 485.40 786.00 L 493.80 788.60 L 502.30 790.60 L 510.90 792.00 L 519.50 792.70 L 528.20 793.00 L 536.90 792.70 L 542.70 792.20 L 554.10 790.00 L 559.60 788.30 L 564.90 786.10 L 570.00 783.30 L 573.30 795.10 L 568.70 801.10 L 560.10 801.00 L 534.30 802.50 L 522.80 802.60 L 507.00 800.90 L 497.10 799.10 L 487.30 796.80 L 477.60 793.90 L 468.00 790.50 L 458.70 786.60 L 449.70 782.10 L 440.90 777.10 L 407.70 756.80 L 404.40 773.30 L 406.10 752.70 L 412.10 751.60 L 418.00 750.00 L 429.60 746.10 Z" fill="#c9cedc" fill-rule="nonzero" node-id="255" stroke="none" target-height="56.5" target-width="168.9" target-x="404.4" target-y="746.1"></path><path d="M 407.70 756.80 L 440.90 777.10 L 449.70 782.10 L 458.70 786.60 L 468.00 790.50 L 477.60 793.90 L 487.30 796.80 L 497.10 799.10 L 507.00 800.90 L 522.80 802.60 L 534.30 802.50 L 560.10 801.00 L 568.70 801.10 L 565.50 807.50 L 562.80 814.10 L 556.00 834.60 L 554.10 841.80 L 553.90 846.60 L 554.30 849.10 L 556.90 858.80 L 560.30 868.30 L 547.20 868.40 L 534.00 867.90 L 525.30 867.30 L 507.90 864.80 L 499.40 863.00 L 490.90 860.70 L 482.60 858.00 L 465.60 851.60 L 457.20 848.10 L 449.00 844.30 L 443.70 841.40 L 433.60 834.70 L 414.40 820.00 L 410.70 815.40 L 404.20 805.70 L 400.00 798.10 L 396.10 790.20 L 400.90 782.10 L 403.50 776.40 L 406.20 765.10 L 407.70 756.80 Z" fill="#f1f3f5" fill-rule="nonzero" node-id="257" stroke="none" target-height="111.60004" target-width="172.6" target-x="396.1" target-y="756.8"></path><path d="M 682.20 758.10 L 689.50 760.70 L 691.80 761.90 L 693.80 763.40 L 698.30 769.50 L 700.70 773.90 L 702.70 778.40 L 705.20 785.40 L 707.20 792.60 L 710.60 807.20 L 719.70 805.00 L 730.50 800.60 L 736.80 797.40 L 749.00 790.30 L 745.80 794.80 L 742.30 799.00 L 738.60 802.80 L 734.50 806.40 L 728.70 810.60 L 722.60 814.40 L 716.10 817.60 L 709.40 820.40 L 702.60 822.60 L 695.60 824.40 L 696.10 816.70 L 696.10 809.10 L 695.60 801.50 L 694.60 794.00 L 693.00 786.50 L 691.00 779.20 L 688.60 772.00 L 685.60 765.00 L 682.20 758.10 Z" fill="#cad0db" fill-rule="nonzero" node-id="259" stroke="none" target-height="66.30005" target-width="66.79999" target-x="682.2" target-y="758.1"></path><path d="M 573.50 781.40 L 577.20 779.60 L 580.70 787.60 L 573.30 795.10 L 570.00 783.30 L 573.50 781.40 Z" fill="#c3aa98" fill-rule="nonzero" node-id="261" stroke="none" target-height="15.5" target-width="10.700012" target-x="570" target-y="779.6"></path><path d="M 686.40 781.70 L 688.30 787.60 L 689.60 793.60 L 690.50 799.80 L 691.00 806.00 L 690.90 812.20 L 690.30 818.40 L 689.40 824.40 L 688.00 830.30 L 686.10 836.00 L 681.30 847.00 L 673.70 860.10 L 668.80 867.70 L 663.90 871.60 L 658.80 875.00 L 653.30 877.90 L 647.60 880.30 L 641.80 882.20 L 635.70 883.70 L 629.50 884.70 L 623.30 885.30 L 617.10 885.50 L 610.90 885.20 L 604.80 884.40 L 598.70 883.30 L 603.60 883.60 L 589.20 876.00 L 580.20 870.10 L 576.10 866.60 L 573.70 864.00 L 569.60 857.90 L 572.70 851.10 L 582.20 858.90 L 587.30 862.20 L 592.70 865.00 L 600.30 867.70 L 609.30 869.60 L 614.20 870.20 L 619.20 870.30 L 624.10 870.10 L 633.90 868.40 L 643.30 865.20 L 652.10 860.70 L 660.20 854.90 L 667.40 848.00 L 673.40 840.10 L 675.30 836.50 L 678.00 829.00 L 679.30 823.20 L 681.90 799.10 L 682.80 793.20 L 684.90 785.50 L 686.40 781.70 Z" fill="#cc8248" fill-rule="nonzero" node-id="263" stroke="none" target-height="103.79999" target-width="121.400024" target-x="569.6" target-y="781.7"></path><path d="M 391.60 796.20 L 394.90 800.80 L 407.00 819.80 L 415.20 829.80 L 425.70 840.00 L 442.40 854.10 L 428.90 855.80 L 425.50 855.90 L 422.40 855.30 L 420.40 854.60 L 418.50 853.50 L 413.00 848.20 L 406.70 840.00 L 404.00 835.60 L 400.90 829.40 L 398.20 823.10 L 396.00 816.50 L 394.10 809.70 L 391.60 796.20 Z" fill="#cb8e52" fill-rule="nonzero" node-id="265" stroke="none" target-height="59.700012" target-width="50.799988" target-x="391.6" target-y="796.2"></path><path d="M 414.40 820.00 L 433.60 834.70 L 443.70 841.40 L 457.20 848.10 L 465.60 851.60 L 482.60 858.00 L 490.90 860.70 L 499.40 863.00 L 507.90 864.80 L 516.60 866.20 L 534.00 867.90 L 547.20 868.40 L 560.30 868.30 L 555.40 854.00 L 553.90 846.60 L 554.10 841.80 L 554.90 838.20 L 558.40 827.70 L 558.80 836.30 L 559.60 844.90 L 560.50 849.10 L 561.90 853.20 L 563.70 857.10 L 565.90 860.90 L 568.30 864.50 L 576.40 874.80 L 569.80 876.70 L 563.20 878.20 L 556.60 879.20 L 549.90 879.80 L 540.90 880.00 L 531.90 879.60 L 522.90 878.60 L 514.00 877.10 L 505.20 875.20 L 496.50 872.90 L 480.80 867.70 L 465.60 861.10 L 458.20 857.30 L 451.00 853.10 L 444.10 848.50 L 437.50 843.60 L 431.10 838.30 L 425.20 832.60 L 419.60 826.50 L 414.40 820.00 Z" fill="#cbcfdd" fill-rule="nonzero" node-id="267" stroke="none" target-height="60" target-width="162.00003" target-x="414.4" target-y="820"></path><path d="M 408.40 863.00 L 421.30 860.20 L 427.80 859.10 L 434.30 858.50 L 440.80 858.30 L 447.40 858.80 L 451.60 860.00 L 455.70 861.60 L 471.40 869.20 L 478.00 872.00 L 512.00 883.00 L 508.10 886.20 L 504.00 888.90 L 499.70 891.30 L 490.60 895.00 L 478.60 898.40 L 456.70 902.70 L 455.60 897.30 L 453.90 892.00 L 452.50 889.70 L 450.60 887.60 L 448.70 886.10 L 444.50 884.10 L 441.10 883.20 L 430.30 881.80 L 432.60 876.30 L 420.40 869.90 L 408.40 863.00 Z" fill="#cb9053" fill-rule="nonzero" node-id="269" stroke="none" target-height="44.400024" target-width="103.600006" target-x="408.4" target-y="858.3"></path><path d="M 381.40 880.10 L 383.50 877.10 L 385.90 874.40 L 391.60 870.00 L 398.10 866.70 L 408.40 863.00 L 420.40 869.90 L 432.60 876.30 L 431.00 880.30 L 428.00 881.80 L 425.40 883.50 L 423.10 885.70 L 420.30 889.40 L 417.90 893.50 L 413.90 902.20 L 404.50 900.60 L 398.30 898.90 L 394.00 896.20 L 391.20 892.90 L 391.60 890.10 L 392.30 887.70 L 393.40 885.50 L 395.60 882.60 L 398.40 879.90 L 401.40 877.60 L 411.10 871.20 L 405.50 872.40 L 400.00 874.00 L 397.50 875.30 L 395.10 876.90 L 392.70 879.10 L 390.80 881.70 L 389.30 884.60 L 385.60 893.60 L 382.30 889.70 L 381.10 887.50 L 380.50 885.10 L 380.40 883.50 L 381.40 880.10 Z" fill="#ded2d4" fill-rule="nonzero" node-id="271" stroke="none" target-height="39.200012" target-width="52.200012" target-x="380.4" target-y="863"></path><path d="M 598.70 883.30 L 604.80 884.40 L 610.90 885.20 L 617.10 885.50 L 623.30 885.30 L 629.50 884.70 L 635.70 883.70 L 641.70 882.20 L 647.60 880.30 L 653.30 877.90 L 658.80 875.00 L 663.90 871.60 L 668.80 867.70 L 675.40 874.10 L 679.00 879.00 L 680.80 883.30 L 681.00 884.60 L 680.00 887.60 L 678.80 889.20 L 675.50 892.10 L 672.10 894.40 L 664.10 898.40 L 655.80 902.10 L 647.40 905.40 L 634.60 909.90 L 621.70 913.80 L 614.90 909.50 L 607.80 905.70 L 600.40 902.30 L 594.60 900.20 L 588.80 898.40 L 583.00 897.10 L 577.00 896.20 L 575.50 897.40 L 575.90 893.80 L 566.40 888.80 L 557.20 883.30 L 571.00 880.90 L 578.00 880.40 L 585.00 880.60 L 589.60 881.10 L 594.20 882.00 L 598.70 883.30 Z" fill="#d59c59" fill-rule="nonzero" node-id="273" stroke="none" target-height="46.099976" target-width="123.79999" target-x="557.2" target-y="867.7"></path><path d="M 419.40 903.40 L 421.60 895.40 L 422.90 891.40 L 424.70 887.80 L 426.20 885.60 L 428.10 883.60 L 430.30 881.80 L 441.10 883.20 L 444.50 884.10 L 448.70 886.10 L 450.60 887.60 L 452.50 889.70 L 453.90 892.00 L 455.60 897.30 L 456.70 902.70 L 438.10 903.70 L 428.70 903.80 L 419.40 903.40 Z" fill="#e1d2ce" fill-rule="nonzero" node-id="275" stroke="none" target-height="22" target-width="37.30002" target-x="419.4" target-y="881.8"></path><path d="M 532.90 897.10 L 534.50 894.10 L 536.50 891.60 L 538.90 889.40 L 541.50 887.60 L 547.50 885.00 L 552.30 883.90 L 557.20 883.30 L 566.40 888.80 L 575.90 893.80 L 575.50 897.40 L 572.20 900.40 L 569.40 903.80 L 567.00 907.40 L 563.90 913.30 L 561.40 919.40 L 550.20 917.40 L 546.60 916.30 L 544.50 915.10 L 542.50 913.60 L 540.80 911.70 L 540.10 909.10 L 539.90 906.80 L 540.20 904.60 L 542.00 900.50 L 545.80 895.80 L 553.30 888.10 L 548.90 890.60 L 544.70 893.60 L 540.00 898.40 L 538.10 901.10 L 536.50 904.00 L 535.30 907.10 L 534.60 910.60 L 532.70 906.20 L 531.70 901.70 L 532.10 898.60 L 532.90 897.10 Z" fill="#e4dbdd" fill-rule="nonzero" node-id="277" stroke="none" target-height="36.100037" target-width="44.200012" target-x="531.7" target-y="883.3"></path><path d="M 577.00 896.20 L 583.00 897.10 L 588.80 898.40 L 594.60 900.20 L 600.40 902.30 L 607.80 905.70 L 614.90 909.50 L 621.70 913.80 L 612.90 916.30 L 604.00 918.20 L 595.10 919.60 L 586.10 920.60 L 577.00 920.90 L 567.90 920.80 L 568.00 916.20 L 568.80 911.80 L 570.10 907.60 L 572.00 903.60 L 574.30 899.80 L 577.00 896.20 Z" fill="#e3d3d0" fill-rule="nonzero" node-id="279" stroke="none" target-height="24.700012" target-width="53.799988" target-x="567.9" target-y="896.2"></path></svg>