<?xml version="1.0" standalone="no"?><!DOCTYPE svg PUBLIC "-//W3C//DTD SVG 1.1//EN" "http://www.w3.org/Graphics/SVG/1.1/DTD/svg11.dtd"><svg height="1024" node-id="1" sillyvg="true" template-height="1024" template-width="1102" version="1.1" viewBox="0 0 1102 1024" width="1102" xmlns="http://www.w3.org/2000/svg" xmlns:xlink="http://www.w3.org/1999/xlink"><defs node-id="51"></defs><g node-id="152"><path d="M 0.60 0.00 L 1101.20 0.00 L 1101.20 1024.00 L 0.60 1024.00 Z" fill="#ffffff" fill-rule="nonzero" group-id="1" node-id="55" stroke="none" target-height="1024" target-width="1100.6" target-x="0.6" target-y="0"></path></g><path d="M 430.20 218.70 L 450.40 212.80 L 460.60 210.50 L 470.90 208.50 L 481.30 207.10 L 491.80 206.10 L 507.30 205.20 L 522.80 204.90 L 538.30 205.00 L 553.70 205.50 L 569.20 206.60 L 584.60 208.10 L 600.00 210.00 L 615.30 212.30 L 630.50 215.10 L 645.70 218.40 L 657.20 221.40 L 668.70 224.80 L 676.20 227.40 L 683.60 230.40 L 690.80 233.70 L 701.10 239.60 L 710.70 246.90 L 718.70 254.30 L 726.30 262.10 L 733.40 270.40 L 740.00 279.10 L 746.10 288.10 L 751.70 297.40 L 756.90 307.00 L 761.60 316.90 L 765.90 327.00 L 769.60 337.30 L 772.90 347.60 L 775.70 358.20 L 783.30 392.10 L 786.70 409.30 L 789.50 426.60 L 791.00 438.10 L 792.90 461.30 L 793.20 472.90 L 792.90 484.40 L 792.10 495.90 L 791.10 504.50 L 787.80 521.70 L 785.60 530.30 L 782.50 536.80 L 778.90 543.10 L 775.00 549.30 L 771.80 553.70 L 764.50 561.70 L 760.50 565.40 L 754.70 569.90 L 748.70 574.00 L 742.40 577.60 L 732.70 582.50 L 722.60 586.80 L 696.30 597.40 L 678.40 605.30 L 666.20 609.60 L 658.70 604.90 L 671.90 601.30 L 684.80 596.50 L 658.50 588.00 L 640.80 583.10 L 631.90 581.40 L 619.70 580.20 L 535.90 581.00 L 510.00 580.40 L 503.90 580.00 L 497.90 579.00 L 492.00 577.60 L 486.30 575.70 L 475.30 570.70 L 465.00 564.30 L 458.50 559.40 L 452.40 554.10 L 446.70 548.50 L 450.40 541.00 L 453.60 533.20 L 456.30 525.30 L 458.50 517.30 L 460.30 509.10 L 461.60 500.80 L 466.00 495.50 L 469.90 489.90 L 473.50 483.90 L 476.60 477.60 L 479.10 471.10 L 481.10 464.40 L 482.30 459.30 L 483.00 454.20 L 483.40 443.90 L 483.00 438.70 L 482.20 433.70 L 480.90 428.60 L 479.20 423.60 L 475.90 417.90 L 471.80 413.60 L 468.60 411.20 L 465.10 409.40 L 461.40 407.90 L 453.40 406.30 L 449.20 406.00 L 440.80 406.50 L 436.60 407.20 L 428.60 409.50 L 419.50 413.10 L 414.30 415.70 L 409.40 418.80 L 404.70 422.30 L 400.30 426.10 L 396.30 430.30 L 392.70 434.70 L 389.40 439.50 L 386.40 444.60 L 383.90 449.80 L 381.80 455.10 L 380.10 460.70 L 378.90 466.40 L 378.20 472.20 L 378.00 478.00 L 378.30 483.90 L 365.40 484.70 L 358.90 485.60 L 352.50 487.10 L 348.40 488.50 L 344.60 490.20 L 341.00 492.40 L 338.50 494.30 L 334.10 499.00 L 330.50 505.10 L 329.30 508.30 L 328.50 511.40 L 328.20 514.70 L 328.40 519.00 L 329.10 523.30 L 330.50 527.60 L 332.30 531.70 L 334.60 535.50 L 337.30 539.20 L 340.40 542.60 L 343.70 545.60 L 347.20 548.20 L 352.50 551.30 L 363.40 556.30 L 369.10 558.20 L 376.90 560.30 L 384.80 561.80 L 392.90 562.70 L 401.00 563.00 L 409.10 562.80 L 417.10 562.00 L 414.50 573.30 L 420.50 579.70 L 416.00 580.80 L 424.30 591.50 L 428.00 597.20 L 413.10 589.70 L 408.00 587.60 L 397.50 584.10 L 392.20 582.80 L 386.70 582.10 L 381.10 581.70 L 371.00 581.80 L 366.00 581.30 L 361.10 580.40 L 354.70 578.70 L 348.40 576.40 L 342.30 573.60 L 336.50 570.20 L 331.00 566.40 L 325.80 562.10 L 320.90 557.40 L 316.50 552.40 L 312.50 546.90 L 309.00 541.20 L 306.00 535.30 L 303.50 529.00 L 300.70 519.40 L 298.40 509.70 L 296.80 499.90 L 295.70 489.90 L 295.20 480.00 L 295.10 469.90 L 295.50 459.90 L 296.30 450.00 L 297.60 440.10 L 302.50 411.40 L 305.50 397.20 L 308.90 383.10 L 312.70 369.10 L 317.00 355.20 L 321.80 341.40 L 327.10 327.90 L 333.00 314.60 L 338.50 304.50 L 344.50 294.60 L 351.00 284.80 L 357.90 275.40 L 365.30 266.30 L 373.10 257.70 L 379.30 251.50 L 385.70 245.60 L 392.40 240.10 L 399.40 235.00 L 406.70 230.20 L 414.20 225.90 L 422.00 222.10 L 430.20 218.70 Z M 610.00 422.00 L 607.70 424.80 L 604.10 430.90 L 601.60 438.70 L 600.70 443.40 L 600.30 448.10 L 600.40 455.30 L 601.00 462.30 L 601.90 467.80 L 604.80 478.70 L 606.80 484.00 L 609.30 489.00 L 612.10 493.80 L 614.50 497.20 L 620.30 503.20 L 623.60 505.90 L 622.80 511.00 L 622.40 516.10 L 622.50 521.30 L 623.00 526.50 L 624.00 531.50 L 625.40 536.50 L 627.20 541.30 L 629.60 545.80 L 632.40 550.10 L 635.40 553.30 L 638.60 555.80 L 642.00 557.90 L 649.60 560.80 L 653.70 561.70 L 659.90 562.70 L 666.20 563.20 L 678.60 563.90 L 684.50 564.10 L 690.40 563.80 L 696.20 563.10 L 701.90 562.00 L 709.50 559.90 L 716.80 557.20 L 723.90 554.00 L 730.80 550.20 L 737.40 546.00 L 743.70 541.30 L 746.50 538.60 L 748.80 535.60 L 750.70 532.30 L 752.00 528.70 L 752.80 525.00 L 753.20 521.20 L 753.00 517.40 L 752.40 513.60 L 751.30 510.00 L 749.60 506.50 L 747.60 503.30 L 745.00 500.40 L 742.30 498.10 L 736.50 494.40 L 731.90 492.20 L 726.90 490.50 L 706.70 485.50 L 707.30 480.40 L 707.40 475.50 L 707.10 470.60 L 706.40 465.80 L 703.80 456.30 L 699.80 447.40 L 696.40 441.70 L 692.60 436.40 L 688.20 431.50 L 683.40 426.90 L 678.20 422.90 L 672.70 419.30 L 663.90 414.90 L 654.50 411.90 L 649.40 410.60 L 644.10 409.90 L 638.70 409.80 L 633.30 410.20 L 628.10 411.30 L 623.00 412.90 L 619.40 414.60 L 616.10 416.70 L 612.90 419.10 L 610.00 422.00 Z M 520.00 488.10 L 520.30 490.70 L 521.00 493.00 L 522.10 495.00 L 524.20 497.90 L 526.80 500.60 L 538.00 510.40 L 533.20 517.60 L 530.20 520.90 L 526.90 523.80 L 524.50 525.40 L 519.30 527.60 L 516.60 528.10 L 513.60 528.20 L 510.50 527.90 L 505.70 526.80 L 503.80 525.80 L 501.20 523.90 L 499.00 521.40 L 497.10 518.60 L 491.80 509.40 L 487.70 503.90 L 487.00 507.60 L 487.00 511.20 L 487.50 514.70 L 488.60 518.00 L 490.20 521.20 L 492.30 524.10 L 494.70 526.70 L 497.50 529.00 L 500.60 530.90 L 504.00 532.50 L 507.40 533.60 L 510.90 534.30 L 514.40 534.40 L 517.90 534.10 L 521.40 533.50 L 528.10 531.00 L 531.30 529.30 L 534.30 527.30 L 539.80 522.70 L 547.20 529.70 L 550.00 531.80 L 555.90 535.10 L 559.00 536.30 L 562.40 537.10 L 565.90 537.40 L 569.90 537.20 L 573.70 536.50 L 577.30 535.30 L 580.80 533.70 L 584.00 531.70 L 586.90 529.20 L 589.60 526.40 L 591.90 523.40 L 593.80 520.00 L 595.30 516.50 L 596.40 512.80 L 597.00 508.90 L 590.40 508.00 L 589.00 514.10 L 587.80 517.00 L 584.50 522.40 L 580.10 526.90 L 577.60 528.60 L 574.90 530.00 L 571.90 530.90 L 568.80 531.40 L 562.50 531.00 L 559.60 530.30 L 557.00 529.20 L 554.50 527.70 L 550.30 523.90 L 547.30 519.00 L 546.30 516.30 L 545.60 513.50 L 545.40 510.60 L 545.60 507.50 L 555.50 501.30 L 557.70 499.40 L 559.50 497.20 L 561.10 493.80 L 561.50 491.70 L 561.40 489.90 L 560.90 488.50 L 560.10 487.30 L 558.50 485.90 L 556.30 484.80 L 551.40 483.60 L 546.80 483.00 L 532.20 482.20 L 529.80 482.30 L 525.30 483.50 L 523.40 484.60 L 521.60 486.10 L 520.00 488.10 Z" fill="#fdfdfd" fill-rule="nonzero" node-id="58" stroke="none" target-height="404.69998" target-width="498.1" target-x="295.1" target-y="204.9"></path><path d="M 301.70 221.00 L 306.30 216.90 L 311.20 213.20 L 316.40 209.80 L 321.80 206.90 L 327.40 204.40 L 333.20 202.30 L 339.10 200.60 L 345.10 199.30 L 351.30 198.50 L 357.40 198.10 L 363.50 198.10 L 369.60 198.50 L 375.70 199.30 L 381.70 200.60 L 387.60 202.30 L 393.30 204.50 L 398.90 207.10 L 404.20 210.10 L 409.30 213.60 L 414.20 217.50 L 430.20 218.70 L 422.00 222.10 L 414.20 225.90 L 406.70 230.20 L 399.40 235.00 L 392.40 240.10 L 385.70 245.60 L 379.30 251.50 L 373.10 257.70 L 365.30 266.30 L 357.90 275.40 L 351.00 284.80 L 344.50 294.60 L 338.50 304.50 L 333.00 314.60 L 327.10 327.90 L 321.80 341.40 L 317.00 355.20 L 312.70 369.10 L 308.90 383.10 L 305.50 397.20 L 302.50 411.40 L 297.60 440.10 L 296.30 450.00 L 295.50 459.90 L 295.10 469.90 L 295.20 480.00 L 295.70 489.90 L 296.80 499.90 L 298.40 509.70 L 300.70 519.40 L 303.50 529.00 L 306.00 535.30 L 309.00 541.20 L 312.50 546.90 L 316.50 552.40 L 320.90 557.40 L 325.80 562.10 L 331.00 566.40 L 336.50 570.20 L 342.30 573.60 L 348.40 576.40 L 354.70 578.70 L 361.10 580.40 L 366.00 581.30 L 371.00 581.80 L 381.10 581.70 L 386.70 582.10 L 392.20 582.80 L 397.50 584.10 L 408.00 587.60 L 420.70 593.30 L 428.00 597.20 L 441.30 610.90 L 492.50 611.40 L 618.70 611.10 L 642.40 610.90 L 666.20 609.60 L 678.40 605.30 L 696.30 597.40 L 722.60 586.80 L 732.70 582.50 L 742.40 577.60 L 748.70 574.00 L 754.70 569.90 L 760.50 565.40 L 768.30 557.80 L 775.00 549.30 L 778.90 543.10 L 782.50 536.80 L 785.60 530.30 L 789.70 538.50 L 787.60 543.50 L 784.90 548.20 L 772.20 565.90 L 778.20 569.30 L 784.00 573.10 L 789.50 577.10 L 794.80 581.60 L 799.80 586.40 L 804.40 591.40 L 808.60 596.80 L 812.50 602.50 L 815.80 608.40 L 818.70 614.60 L 821.00 621.10 L 824.10 632.70 L 824.90 637.20 L 824.90 641.60 L 824.50 646.00 L 823.50 650.30 L 820.20 658.50 L 815.60 666.50 L 811.50 672.10 L 807.10 677.60 L 798.10 687.70 L 813.80 698.60 L 808.80 701.90 L 794.20 690.60 L 775.40 703.00 L 765.80 708.80 L 755.90 714.00 L 749.10 717.10 L 742.10 719.70 L 730.00 723.00 L 720.10 724.50 L 712.70 724.90 L 705.20 724.90 L 690.20 724.30 L 699.50 755.80 L 701.50 763.70 L 702.90 771.70 L 703.60 777.10 L 703.80 788.10 L 694.60 785.80 L 676.00 782.30 L 657.20 780.10 L 647.80 779.60 L 645.90 774.50 L 661.90 775.20 L 653.00 772.60 L 650.90 771.70 L 649.20 770.50 L 648.40 769.50 L 647.50 766.50 L 656.80 768.10 L 666.00 770.10 L 684.20 774.70 L 676.60 747.00 L 673.30 733.00 L 670.50 718.90 L 659.70 711.40 L 654.40 707.40 L 649.50 703.00 L 646.60 699.80 L 643.90 696.30 L 641.60 692.60 L 640.30 690.00 L 638.70 684.50 L 638.00 680.30 L 637.20 667.50 L 629.30 666.00 L 621.20 664.90 L 613.10 664.20 L 604.90 664.00 L 596.80 664.30 L 588.80 665.10 L 580.80 666.50 L 573.00 668.50 L 565.40 671.10 L 559.80 673.50 L 554.40 676.20 L 549.20 679.40 L 544.00 682.90 L 545.10 736.20 L 545.80 753.90 L 539.10 754.00 L 539.00 707.50 L 538.70 699.80 L 537.30 684.40 L 531.90 680.90 L 526.30 677.90 L 520.50 675.50 L 514.50 673.40 L 502.10 670.60 L 492.60 669.20 L 483.00 668.50 L 464.00 668.00 L 463.50 680.90 L 463.00 684.10 L 461.80 687.00 L 458.40 690.50 L 454.50 693.60 L 442.00 701.90 L 434.30 707.90 L 431.00 711.40 L 429.10 714.00 L 427.40 716.90 L 426.10 720.20 L 422.10 708.60 L 416.70 712.80 L 411.40 719.30 L 408.70 723.50 L 399.80 741.90 L 397.50 733.70 L 408.30 713.20 L 370.10 713.40 L 362.50 713.90 L 355.00 714.80 L 347.50 716.30 L 347.30 706.00 L 347.70 695.70 L 348.40 690.70 L 349.70 685.70 L 367.80 669.40 L 371.20 665.90 L 319.80 701.50 L 306.80 710.20 L 293.60 718.60 L 275.60 728.90 L 266.40 733.70 L 260.80 732.10 L 282.10 718.90 L 303.10 705.20 L 344.60 677.00 L 351.90 671.70 L 358.90 666.10 L 372.20 654.00 L 368.90 650.10 L 365.30 646.70 L 361.30 643.80 L 357.10 641.30 L 352.70 639.30 L 348.00 637.70 L 338.40 635.50 L 333.40 634.90 L 325.90 634.50 L 318.50 634.60 L 312.20 635.20 L 306.00 636.30 L 294.00 639.70 L 282.20 644.30 L 265.20 652.60 L 247.60 662.40 L 230.20 672.50 L 161.10 714.20 L 161.10 709.60 L 162.50 707.50 L 166.30 704.40 L 218.60 672.90 L 265.00 646.20 L 265.30 639.80 L 266.00 633.50 L 267.20 627.40 L 268.90 621.40 L 270.90 615.50 L 273.40 609.80 L 276.20 604.20 L 279.50 598.80 L 286.90 588.60 L 295.50 579.40 L 301.80 573.80 L 308.40 568.70 L 315.40 564.20 L 310.40 557.50 L 305.90 550.60 L 302.00 543.50 L 298.70 536.20 L 295.90 528.60 L 293.50 520.90 L 291.50 513.00 L 290.00 505.00 L 288.70 494.20 L 287.90 483.30 L 287.80 472.30 L 288.20 461.40 L 289.00 450.50 L 290.30 439.90 L 293.10 422.80 L 296.30 405.80 L 298.80 394.50 L 304.60 372.10 L 308.00 361.10 L 311.90 350.20 L 316.30 339.50 L 310.30 336.40 L 301.00 330.20 L 294.40 324.20 L 288.70 317.40 L 283.80 309.10 L 280.00 299.70 L 278.60 294.90 L 277.40 288.30 L 276.80 281.60 L 276.80 274.90 L 277.40 268.20 L 278.60 261.50 L 280.40 255.00 L 282.70 248.60 L 285.50 242.50 L 288.80 236.60 L 292.70 231.00 L 296.90 225.80 L 301.70 221.00 Z M 319.50 223.70 L 315.60 226.90 L 308.80 233.90 L 305.80 237.80 L 302.20 243.30 L 299.20 249.10 L 296.70 255.20 L 294.80 261.50 L 293.40 268.00 L 292.50 274.50 L 292.20 281.20 L 292.50 287.80 L 293.30 294.30 L 294.70 300.70 L 296.60 307.00 L 299.20 313.00 L 301.40 317.30 L 307.00 325.40 L 310.20 329.10 L 306.40 322.90 L 303.20 316.50 L 300.40 309.70 L 298.20 302.80 L 296.60 295.80 L 295.60 288.60 L 295.30 277.80 L 295.80 272.40 L 297.70 261.90 L 299.20 257.10 L 301.00 252.40 L 303.20 247.90 L 306.70 242.20 L 310.70 236.80 L 315.20 231.80 L 320.20 227.20 L 325.50 223.10 L 331.20 219.50 L 337.20 216.40 L 343.40 214.00 L 349.90 212.10 L 359.80 210.40 L 364.90 210.20 L 374.50 210.40 L 378.90 210.90 L 383.10 211.90 L 389.30 213.90 L 395.50 216.50 L 407.40 222.40 L 403.70 219.10 L 399.80 216.20 L 395.80 213.70 L 391.50 211.60 L 387.10 209.90 L 378.00 207.60 L 373.30 206.90 L 366.90 206.60 L 360.50 206.90 L 354.10 207.80 L 347.80 209.20 L 341.70 211.20 L 335.70 213.60 L 329.90 216.60 L 324.60 219.90 L 319.50 223.70 Z M 337.80 596.80 L 333.10 599.00 L 328.70 601.60 L 324.60 604.70 L 320.80 608.10 L 317.40 611.90 L 314.20 616.00 L 311.50 620.30 L 309.10 624.90 L 307.10 629.70 L 319.20 613.10 L 322.40 609.20 L 325.90 605.60 L 331.20 601.40 L 334.30 599.70 L 341.10 596.70 L 348.20 594.20 L 355.40 592.30 L 362.90 591.00 L 370.30 590.20 L 377.80 590.00 L 385.30 590.50 L 392.80 591.50 L 400.10 593.10 L 405.70 595.20 L 411.00 597.70 L 416.00 600.60 L 420.80 603.90 L 425.40 607.60 L 429.60 611.50 L 433.50 615.90 L 437.20 620.50 L 440.50 625.40 L 446.20 635.70 L 450.40 646.80 L 453.10 658.20 L 453.90 664.10 L 454.30 669.90 L 454.20 675.80 L 453.70 681.60 L 452.80 687.30 L 436.20 696.80 L 430.50 699.40 L 426.50 700.70 L 422.40 701.70 L 418.10 702.20 L 397.80 703.50 L 387.60 703.60 L 370.60 702.70 L 357.20 700.60 L 356.70 703.60 L 387.40 704.90 L 397.60 705.10 L 418.10 704.30 L 422.10 703.80 L 426.10 703.00 L 429.90 701.70 L 435.40 699.30 L 445.90 693.00 L 450.80 689.60 L 452.80 687.90 L 454.20 686.10 L 455.20 684.20 L 456.10 680.90 L 456.50 677.40 L 456.20 663.10 L 461.20 656.70 L 459.70 659.80 L 465.00 661.30 L 470.40 662.10 L 492.30 663.60 L 500.30 664.60 L 508.10 666.20 L 515.90 668.30 L 523.50 670.90 L 530.90 674.00 L 538.10 677.60 L 537.00 673.50 L 535.50 670.00 L 533.40 667.00 L 531.00 664.30 L 528.20 661.90 L 525.00 659.80 L 519.90 657.20 L 514.30 655.10 L 508.50 653.40 L 491.70 649.40 L 475.80 647.60 L 467.00 647.40 L 460.00 648.40 L 454.40 656.30 L 453.00 649.80 L 451.20 643.30 L 448.90 637.00 L 446.10 630.90 L 442.80 625.10 L 439.10 619.50 L 435.00 614.20 L 430.50 609.30 L 425.50 604.80 L 420.20 600.80 L 414.60 597.30 L 408.50 594.30 L 402.80 592.20 L 397.00 590.50 L 391.10 589.40 L 385.10 588.70 L 373.00 588.50 L 360.90 589.80 L 353.00 591.60 L 345.30 593.90 L 337.80 596.80 Z M 691.60 608.00 L 686.80 610.20 L 677.90 615.50 L 673.80 618.70 L 668.60 623.30 L 663.80 628.40 L 659.50 633.90 L 655.70 639.70 L 652.40 645.80 L 649.60 652.20 L 648.00 657.10 L 645.70 667.30 L 645.10 672.40 L 644.90 675.90 L 645.50 682.30 L 646.40 685.30 L 648.00 689.20 L 650.10 692.90 L 652.70 696.30 L 658.70 702.60 L 662.10 705.30 L 667.60 709.00 L 673.10 712.10 L 677.70 714.20 L 687.20 717.40 L 692.00 718.40 L 698.50 719.30 L 705.10 719.70 L 711.70 719.50 L 718.30 718.90 L 724.90 717.80 L 731.40 716.30 L 744.10 712.20 L 750.20 709.60 L 759.10 705.10 L 767.80 700.10 L 776.30 694.60 L 788.20 685.30 L 799.10 674.90 L 804.10 669.30 L 808.60 663.30 L 812.80 657.00 L 816.60 650.40 L 810.40 658.30 L 803.90 666.00 L 797.00 673.40 L 789.80 680.40 L 782.20 687.00 L 774.20 693.20 L 768.00 697.50 L 761.60 701.40 L 748.20 708.10 L 741.20 710.90 L 734.10 713.30 L 726.80 715.20 L 714.30 717.40 L 709.30 717.90 L 699.10 717.70 L 692.40 716.80 L 685.80 715.30 L 679.30 713.10 L 670.20 708.80 L 662.00 703.10 L 658.20 699.70 L 654.80 696.00 L 651.80 692.00 L 649.00 687.70 L 648.10 682.80 L 647.50 678.00 L 647.40 673.30 L 647.80 668.50 L 648.80 662.20 L 650.40 656.10 L 652.60 650.00 L 655.40 644.20 L 658.70 638.70 L 662.40 633.40 L 666.50 628.40 L 670.90 623.80 L 675.70 619.60 L 679.60 616.60 L 688.00 611.70 L 694.60 608.70 L 701.30 606.00 L 721.90 598.50 L 728.60 595.70 L 719.10 598.10 L 709.80 600.90 L 700.60 604.30 L 691.60 608.00 Z M 587.60 616.90 L 493.10 617.10 L 445.80 616.60 L 458.90 642.90 L 469.20 642.50 L 479.60 642.70 L 486.60 643.20 L 500.30 645.40 L 507.10 647.00 L 513.60 649.10 L 520.00 651.60 L 526.10 654.70 L 532.00 658.30 L 537.70 662.40 L 543.50 658.30 L 549.60 654.60 L 555.90 651.40 L 562.30 648.50 L 569.00 646.10 L 575.70 644.00 L 582.60 642.30 L 589.60 641.10 L 603.70 639.60 L 617.90 639.70 L 632.00 641.20 L 645.80 644.20 L 650.30 636.70 L 655.00 629.30 L 665.40 615.30 L 652.50 616.30 L 639.50 616.80 L 587.60 616.90 Z M 552.30 659.50 L 548.30 662.30 L 546.70 664.10 L 544.90 667.10 L 543.50 670.40 L 541.60 677.40 L 547.00 673.80 L 552.60 670.70 L 558.20 667.90 L 564.10 665.50 L 576.20 661.80 L 588.60 659.50 L 597.00 658.70 L 605.50 658.50 L 614.00 658.80 L 622.40 659.70 L 630.80 661.20 L 639.00 663.10 L 643.40 649.60 L 635.80 648.00 L 628.10 646.70 L 620.30 645.90 L 612.50 645.50 L 604.60 645.50 L 596.80 646.00 L 589.10 647.00 L 581.40 648.50 L 573.90 650.40 L 566.50 652.90 L 559.40 656.00 L 552.30 659.50 Z M 676.70 719.50 L 678.70 731.00 L 681.20 742.40 L 687.30 764.90 L 689.20 770.50 L 690.50 773.20 L 693.40 777.10 L 697.00 779.20 L 694.70 765.70 L 691.70 752.30 L 688.20 739.10 L 684.30 726.00 L 676.70 719.50 Z" fill="#301825" fill-rule="nonzero" node-id="60" stroke="none" target-height="590" target-width="663.80005" target-x="161.1" target-y="198.1"></path><path d="M 488.10 199.80 L 502.40 198.80 L 516.60 198.20 L 530.90 198.10 L 545.20 198.30 L 559.40 199.00 L 587.80 201.60 L 616.10 205.70 L 644.00 211.30 L 657.90 214.70 L 645.70 218.40 L 630.50 215.10 L 615.30 212.30 L 600.00 210.00 L 584.60 208.10 L 569.20 206.60 L 553.70 205.50 L 538.30 205.00 L 522.80 204.90 L 507.30 205.20 L 491.80 206.10 L 481.30 207.10 L 470.90 208.50 L 460.60 210.50 L 450.40 212.80 L 430.20 218.70 L 418.80 217.90 L 426.00 214.40 L 433.40 211.40 L 441.00 208.80 L 448.70 206.60 L 464.40 203.20 L 488.10 199.80 Z" fill="#290f1a" fill-rule="nonzero" node-id="62" stroke="none" target-height="20.59999" target-width="239.10004" target-x="418.8" target-y="198.1"></path><path d="M 319.50 223.70 L 324.60 219.90 L 329.90 216.60 L 335.70 213.60 L 341.70 211.20 L 347.80 209.20 L 354.10 207.80 L 360.50 206.90 L 366.90 206.60 L 373.30 206.90 L 378.00 207.60 L 387.10 209.90 L 391.50 211.60 L 395.80 213.70 L 399.80 216.20 L 403.70 219.10 L 407.40 222.40 L 395.50 216.50 L 389.30 213.90 L 383.10 211.90 L 378.90 210.90 L 374.50 210.40 L 364.90 210.20 L 359.80 210.40 L 349.90 212.10 L 343.40 214.00 L 337.20 216.40 L 331.20 219.50 L 325.50 223.10 L 320.20 227.20 L 315.20 231.80 L 310.70 236.80 L 306.70 242.20 L 303.20 247.90 L 301.00 252.40 L 299.20 257.10 L 297.70 261.90 L 295.80 272.40 L 295.30 277.80 L 295.60 288.60 L 296.60 295.80 L 298.20 302.80 L 300.40 309.70 L 303.20 316.50 L 306.40 322.90 L 310.20 329.10 L 307.00 325.40 L 301.40 317.30 L 299.20 313.00 L 296.60 307.00 L 294.70 300.70 L 293.30 294.30 L 292.50 287.80 L 292.20 281.20 L 292.50 274.50 L 293.40 268.00 L 294.80 261.50 L 296.70 255.20 L 299.20 249.10 L 302.20 243.30 L 305.80 237.80 L 308.80 233.90 L 315.60 226.90 L 319.50 223.70 Z" fill="#a26a69" fill-rule="nonzero" node-id="64" stroke="none" target-height="122.5" target-width="115.19998" target-x="292.2" target-y="206.6"></path><path d="M 690.40 225.20 L 694.50 221.70 L 703.40 215.70 L 708.10 213.20 L 714.60 210.30 L 721.40 208.10 L 728.30 206.30 L 735.40 205.20 L 742.50 204.60 L 749.70 204.50 L 756.90 205.10 L 764.00 206.10 L 770.90 207.80 L 777.70 210.00 L 784.30 212.80 L 790.60 216.10 L 795.20 219.20 L 799.60 222.60 L 803.60 226.30 L 807.30 230.30 L 813.80 239.10 L 819.00 248.70 L 821.80 255.50 L 823.90 262.50 L 825.50 269.70 L 826.40 277.10 L 826.70 284.40 L 826.40 291.70 L 825.70 297.20 L 823.30 307.80 L 821.50 313.00 L 819.40 318.10 L 816.80 322.90 L 813.90 327.60 L 808.00 335.20 L 802.10 340.70 L 797.30 344.30 L 775.70 358.20 L 772.90 347.60 L 769.60 337.30 L 765.90 327.00 L 761.60 316.90 L 756.90 307.00 L 751.70 297.40 L 746.10 288.10 L 740.00 279.10 L 733.40 270.40 L 726.30 262.10 L 718.70 254.30 L 710.70 246.90 L 706.00 243.10 L 696.00 236.50 L 683.60 230.40 L 676.20 227.40 L 668.70 224.80 L 657.20 221.40 L 645.70 218.40 L 657.90 214.70 L 674.30 219.50 L 690.40 225.20 Z M 698.20 229.80 L 709.70 222.80 L 715.70 219.70 L 721.80 217.10 L 726.10 215.70 L 730.40 214.70 L 734.90 214.10 L 740.00 214.10 L 744.90 214.50 L 754.50 216.30 L 760.80 218.30 L 766.80 220.90 L 772.60 224.00 L 778.10 227.50 L 783.20 231.60 L 788.00 236.10 L 792.50 240.90 L 796.50 246.20 L 800.00 251.70 L 803.10 257.60 L 805.60 263.60 L 807.60 269.90 L 809.00 275.00 L 810.00 280.00 L 810.40 285.00 L 810.40 290.00 L 809.50 300.00 L 808.10 307.50 L 802.50 329.80 L 807.90 312.90 L 810.50 301.40 L 811.30 295.50 L 811.60 289.70 L 811.40 283.80 L 810.60 277.90 L 808.10 267.00 L 806.20 261.70 L 801.40 251.40 L 795.30 242.00 L 791.70 237.60 L 787.90 233.50 L 783.70 229.70 L 779.40 226.20 L 774.70 223.10 L 769.80 220.40 L 764.70 218.10 L 759.40 216.30 L 748.90 213.70 L 743.90 213.00 L 739.00 212.80 L 734.00 213.20 L 729.00 213.90 L 724.20 215.10 L 719.50 216.70 L 710.30 221.00 L 702.00 226.50 L 698.20 229.80 Z" fill="#2f1a26" fill-rule="nonzero" node-id="66" stroke="none" target-height="153.70001" target-width="181" target-x="645.7" target-y="204.5"></path><path d="M 698.20 229.80 L 702.00 226.50 L 710.30 221.00 L 719.50 216.70 L 724.20 215.10 L 729.00 213.90 L 734.00 213.20 L 739.00 212.80 L 743.90 213.00 L 748.90 213.70 L 759.40 216.30 L 764.70 218.10 L 769.80 220.40 L 774.70 223.10 L 779.40 226.20 L 783.70 229.70 L 787.90 233.50 L 791.70 237.60 L 795.30 242.00 L 801.40 251.40 L 806.20 261.70 L 808.10 267.00 L 810.60 277.90 L 811.40 283.80 L 811.60 289.70 L 811.30 295.50 L 810.50 301.40 L 807.90 312.90 L 802.50 329.80 L 808.10 307.50 L 809.50 300.00 L 810.40 290.00 L 810.40 285.00 L 810.00 280.00 L 809.00 275.00 L 807.60 269.90 L 805.60 263.60 L 803.10 257.60 L 800.00 251.70 L 796.50 246.20 L 792.50 240.90 L 788.00 236.10 L 783.20 231.60 L 778.10 227.50 L 772.60 224.00 L 766.80 220.90 L 760.80 218.30 L 754.50 216.30 L 744.90 214.50 L 740.00 214.10 L 734.90 214.10 L 730.40 214.70 L 726.10 215.70 L 721.80 217.10 L 715.70 219.70 L 709.70 222.80 L 698.20 229.80 Z" fill="#facfd1" fill-rule="nonzero" node-id="68" stroke="none" target-height="116.999985" target-width="113.39996" target-x="698.2" target-y="212.8"></path><path d="M 691.60 608.00 L 700.60 604.30 L 709.80 600.90 L 719.10 598.10 L 728.60 595.70 L 721.90 598.50 L 701.30 606.00 L 694.60 608.70 L 688.00 611.70 L 679.60 616.60 L 675.70 619.60 L 670.90 623.80 L 666.50 628.40 L 662.40 633.40 L 658.70 638.70 L 655.40 644.20 L 652.60 650.00 L 650.40 656.10 L 648.80 662.20 L 647.80 668.50 L 647.40 673.30 L 647.50 678.00 L 648.10 682.80 L 649.00 687.70 L 651.80 692.00 L 654.80 696.00 L 658.20 699.70 L 662.00 703.10 L 670.20 708.80 L 679.30 713.10 L 685.80 715.30 L 692.40 716.80 L 699.10 717.70 L 709.30 717.90 L 714.30 717.40 L 726.80 715.20 L 734.10 713.30 L 741.20 710.90 L 748.20 708.10 L 755.00 704.90 L 761.60 701.40 L 768.00 697.50 L 774.20 693.20 L 782.20 687.00 L 789.80 680.40 L 797.00 673.40 L 803.90 666.00 L 810.40 658.30 L 816.60 650.40 L 812.80 657.00 L 808.60 663.30 L 804.10 669.30 L 799.10 674.90 L 788.20 685.30 L 782.40 690.10 L 776.30 694.60 L 767.80 700.10 L 759.10 705.10 L 750.20 709.60 L 737.80 714.40 L 731.40 716.30 L 724.90 717.80 L 718.30 718.90 L 711.70 719.50 L 705.10 719.70 L 698.50 719.30 L 692.00 718.40 L 682.40 716.00 L 677.70 714.20 L 673.10 712.10 L 667.60 709.00 L 662.10 705.30 L 658.70 702.60 L 652.70 696.30 L 650.10 692.90 L 648.00 689.20 L 646.40 685.30 L 645.00 679.10 L 644.90 675.90 L 645.70 667.30 L 646.60 662.20 L 649.60 652.20 L 652.40 645.80 L 655.70 639.70 L 659.50 633.90 L 663.80 628.40 L 668.60 623.30 L 673.80 618.70 L 677.90 615.50 L 686.80 610.20 L 691.60 608.00 Z" fill="#facfd1" fill-rule="nonzero" node-id="70" stroke="none" target-height="124" target-width="171.69995" target-x="644.9" target-y="595.7"></path><path d="M 676.70 719.50 L 684.30 726.00 L 688.20 739.10 L 691.70 752.30 L 694.70 765.70 L 697.00 779.20 L 695.10 778.20 L 692.10 775.70 L 690.50 773.20 L 689.20 770.50 L 684.10 753.70 L 681.20 742.40 L 678.70 731.00 L 676.70 719.50 Z" fill="#facfd1" fill-rule="nonzero" node-id="72" stroke="none" target-height="59.700012" target-width="20.299988" target-x="676.7" target-y="719.5"></path><path d="M 775.70 358.20 L 781.90 354.10 L 789.60 390.50 L 793.30 409.00 L 796.50 427.70 L 798.20 440.10 L 799.40 452.60 L 800.20 465.00 L 800.40 474.30 L 799.60 492.90 L 798.60 502.10 L 797.20 511.20 L 795.20 520.30 L 792.80 529.40 L 789.70 538.50 L 785.60 530.30 L 789.60 513.10 L 792.10 495.90 L 792.90 484.40 L 793.20 472.90 L 792.90 461.30 L 791.00 438.10 L 789.50 426.60 L 786.70 409.30 L 783.30 392.10 L 775.70 358.20 Z" fill="#220f11" fill-rule="nonzero" node-id="74" stroke="none" target-height="184.4" target-width="24.700012" target-x="775.7" target-y="354.1"></path><path d="M 610.00 422.00 L 612.90 419.10 L 616.10 416.70 L 619.40 414.60 L 623.00 412.90 L 628.10 411.30 L 633.30 410.20 L 638.70 409.80 L 644.10 409.90 L 649.40 410.60 L 654.50 411.90 L 663.90 414.90 L 672.70 419.30 L 678.20 422.90 L 683.40 426.90 L 688.20 431.50 L 692.60 436.40 L 696.40 441.70 L 699.80 447.40 L 703.80 456.30 L 706.40 465.80 L 707.10 470.60 L 707.40 475.50 L 707.30 480.40 L 706.70 485.50 L 704.70 490.50 L 702.30 495.40 L 698.30 501.50 L 693.40 506.80 L 690.50 509.00 L 687.40 511.00 L 682.30 513.40 L 677.00 515.30 L 671.60 516.50 L 666.10 517.20 L 660.50 517.40 L 654.90 517.10 L 649.40 516.30 L 643.90 515.10 L 638.60 513.40 L 633.30 511.30 L 628.30 508.80 L 623.60 505.90 L 620.30 503.20 L 617.30 500.30 L 612.10 493.80 L 609.30 489.00 L 606.80 484.00 L 604.80 478.70 L 603.20 473.30 L 601.00 462.30 L 600.40 455.30 L 600.30 448.10 L 600.70 443.40 L 601.60 438.70 L 604.10 430.90 L 607.70 424.80 L 610.00 422.00 Z M 629.40 459.60 L 629.00 461.80 L 629.10 463.70 L 630.60 466.90 L 633.40 469.80 L 643.50 476.80 L 645.40 475.00 L 646.60 473.20 L 647.20 471.20 L 647.20 469.20 L 646.90 467.20 L 644.90 463.30 L 641.70 460.20 L 637.80 458.30 L 635.70 457.80 L 633.60 457.90 L 631.50 458.50 L 629.40 459.60 Z" fill="#301a26" fill-rule="nonzero" node-id="76" stroke="none" target-height="107.60004" target-width="107.10004" target-x="600.3" target-y="409.8"></path><path d="M 425.00 410.90 L 432.50 408.20 L 436.60 407.20 L 444.90 406.10 L 453.40 406.30 L 457.40 406.90 L 461.40 407.90 L 465.10 409.40 L 468.60 411.20 L 471.80 413.60 L 475.90 417.90 L 479.20 423.60 L 480.90 428.60 L 482.20 433.70 L 483.00 438.70 L 483.40 443.90 L 483.00 454.20 L 481.10 464.40 L 479.10 471.10 L 476.60 477.60 L 473.50 483.90 L 469.90 489.90 L 466.00 495.50 L 461.60 500.80 L 457.00 504.20 L 452.10 507.20 L 446.90 509.80 L 441.50 512.00 L 435.90 513.60 L 430.20 514.80 L 424.50 515.40 L 418.80 515.50 L 413.10 514.90 L 404.70 513.00 L 400.60 511.50 L 393.50 507.70 L 390.60 505.50 L 388.10 503.00 L 383.90 497.20 L 382.20 494.00 L 380.00 489.00 L 378.30 483.90 L 378.00 478.00 L 378.20 472.20 L 378.90 466.40 L 380.10 460.70 L 381.80 455.10 L 383.90 449.80 L 386.40 444.60 L 389.40 439.50 L 392.70 434.70 L 396.30 430.30 L 400.30 426.10 L 404.70 422.30 L 409.40 418.80 L 414.30 415.70 L 419.50 413.10 L 425.00 410.90 Z M 433.40 467.20 L 437.20 468.80 L 439.30 469.00 L 443.60 468.60 L 445.80 467.90 L 449.60 465.90 L 452.60 463.00 L 454.10 459.50 L 454.30 457.60 L 453.90 455.70 L 452.90 453.50 L 450.00 453.90 L 444.90 455.80 L 441.50 457.90 L 438.50 460.60 L 435.70 463.80 L 433.40 467.20 Z" fill="#301a27" fill-rule="nonzero" node-id="78" stroke="none" target-height="109.399994" target-width="105.399994" target-x="378" target-y="406.1"></path><path d="M 417.10 562.00 L 424.80 559.30 L 432.30 556.10 L 439.60 552.50 L 446.70 548.50 L 452.40 554.10 L 458.50 559.40 L 465.00 564.30 L 470.10 567.70 L 475.30 570.70 L 486.30 575.70 L 492.00 577.60 L 497.90 579.00 L 503.90 580.00 L 510.00 580.40 L 535.90 581.00 L 561.80 580.90 L 613.60 580.10 L 625.80 580.60 L 631.90 581.40 L 640.80 583.10 L 649.70 585.40 L 684.80 596.50 L 671.90 601.30 L 658.70 604.90 L 666.20 609.60 L 654.30 610.40 L 642.40 610.90 L 618.70 611.10 L 492.50 611.40 L 441.30 610.90 L 428.00 597.20 L 424.30 591.50 L 416.00 580.80 L 420.50 579.70 L 414.50 573.30 L 417.10 562.00 Z" fill="#f0ecee" fill-rule="nonzero" node-id="80" stroke="none" target-height="62.900024" target-width="270.3" target-x="414.5" target-y="548.5"></path><path d="M 433.40 467.20 L 435.70 463.80 L 438.50 460.60 L 441.50 457.90 L 444.90 455.80 L 447.40 454.70 L 452.90 453.50 L 453.90 455.70 L 454.30 457.60 L 454.10 459.50 L 452.60 463.00 L 449.60 465.90 L 445.80 467.90 L 441.50 469.00 L 437.20 468.80 L 433.40 467.20 Z" fill="#fefdfe" fill-rule="nonzero" node-id="82" stroke="none" target-height="15.5" target-width="20.899994" target-x="433.4" target-y="453.5"></path><path d="M 629.40 459.60 L 631.50 458.50 L 633.60 457.90 L 635.70 457.80 L 639.80 459.00 L 641.70 460.20 L 643.50 461.70 L 646.10 465.20 L 646.90 467.20 L 647.20 469.20 L 647.20 471.20 L 646.60 473.20 L 645.40 475.00 L 643.50 476.80 L 633.40 469.80 L 630.60 466.90 L 629.10 463.70 L 629.00 461.80 L 629.40 459.60 Z" fill="#fefdfe" fill-rule="nonzero" node-id="84" stroke="none" target-height="19" target-width="18.200012" target-x="629" target-y="457.8"></path><path d="M 332.20 501.90 L 334.10 499.00 L 338.50 494.30 L 344.60 490.20 L 348.40 488.50 L 352.50 487.10 L 358.90 485.60 L 365.40 484.70 L 378.30 483.90 L 380.00 489.00 L 383.90 497.20 L 388.10 503.00 L 390.60 505.50 L 393.50 507.70 L 396.60 509.60 L 400.60 511.50 L 408.80 514.20 L 413.10 514.90 L 418.80 515.50 L 424.50 515.40 L 430.20 514.80 L 435.90 513.60 L 441.40 512.00 L 446.90 509.80 L 452.10 507.20 L 457.00 504.20 L 461.60 500.80 L 460.30 509.10 L 458.50 517.30 L 456.30 525.30 L 453.60 533.20 L 450.40 541.00 L 446.70 548.50 L 439.60 552.50 L 432.30 556.10 L 424.80 559.30 L 417.10 562.00 L 409.10 562.80 L 401.00 563.00 L 392.90 562.70 L 384.80 561.80 L 376.90 560.30 L 369.10 558.20 L 363.40 556.30 L 352.50 551.30 L 347.20 548.20 L 343.70 545.60 L 340.40 542.60 L 337.30 539.20 L 334.60 535.50 L 332.30 531.70 L 330.50 527.60 L 329.10 523.30 L 328.40 519.00 L 328.20 514.70 L 328.50 511.40 L 329.30 508.30 L 330.50 505.10 L 332.20 501.90 Z M 360.10 500.60 L 356.80 501.40 L 353.80 502.60 L 352.00 503.80 L 349.40 506.70 L 348.70 508.50 L 348.40 510.70 L 348.70 513.20 L 350.00 514.20 L 351.40 514.70 L 353.00 514.90 L 355.40 514.50 L 358.00 513.40 L 360.30 511.90 L 362.40 510.10 L 364.10 508.00 L 365.00 506.00 L 365.30 504.60 L 365.20 503.40 L 364.70 502.40 L 363.80 501.60 L 362.40 501.00 L 360.10 500.60 Z" fill="#fad2d4" fill-rule="nonzero" node-id="86" stroke="none" target-height="79.100006" target-width="133.4" target-x="328.2" target-y="483.9"></path><path d="M 520.00 488.10 L 521.60 486.10 L 523.40 484.60 L 525.30 483.50 L 529.80 482.30 L 532.20 482.20 L 546.80 483.00 L 551.40 483.60 L 556.30 484.80 L 558.50 485.90 L 560.10 487.30 L 560.90 488.50 L 561.40 489.90 L 561.50 491.70 L 561.10 493.80 L 559.50 497.20 L 557.70 499.40 L 555.50 501.30 L 545.60 507.50 L 545.40 510.60 L 545.60 513.50 L 546.30 516.30 L 548.60 521.50 L 552.30 525.90 L 554.50 527.70 L 557.00 529.20 L 559.60 530.30 L 562.50 531.00 L 568.80 531.40 L 571.90 530.90 L 574.90 530.00 L 577.60 528.60 L 580.10 526.90 L 582.40 524.80 L 586.30 519.80 L 589.00 514.10 L 590.40 508.00 L 597.00 508.90 L 596.40 512.80 L 595.30 516.50 L 593.80 520.00 L 591.90 523.40 L 589.60 526.40 L 586.90 529.20 L 584.00 531.70 L 580.80 533.70 L 577.30 535.30 L 573.70 536.50 L 569.90 537.20 L 565.90 537.40 L 562.40 537.10 L 559.00 536.30 L 555.90 535.10 L 550.00 531.80 L 547.20 529.70 L 539.80 522.70 L 534.30 527.30 L 531.30 529.30 L 524.80 532.40 L 517.90 534.10 L 514.40 534.40 L 510.90 534.30 L 507.40 533.60 L 504.00 532.50 L 497.50 529.00 L 494.70 526.70 L 492.30 524.10 L 490.20 521.20 L 488.60 518.00 L 487.50 514.70 L 487.00 511.20 L 487.00 507.60 L 487.70 503.90 L 491.80 509.40 L 497.10 518.60 L 499.00 521.40 L 501.20 523.90 L 503.80 525.80 L 507.90 527.50 L 513.60 528.20 L 516.60 528.10 L 519.30 527.60 L 522.00 526.60 L 526.90 523.80 L 530.20 520.90 L 533.20 517.60 L 538.00 510.40 L 526.80 500.60 L 524.20 497.90 L 522.10 495.00 L 521.00 493.00 L 520.30 490.70 L 520.00 488.10 Z" fill="#3f202b" fill-rule="nonzero" node-id="88" stroke="none" target-height="55.200012" target-width="110" target-x="487" target-y="482.2"></path><path d="M 706.70 485.50 L 721.90 489.10 L 731.90 492.20 L 736.50 494.40 L 742.30 498.10 L 745.00 500.40 L 747.60 503.30 L 749.60 506.50 L 751.30 510.00 L 752.40 513.60 L 753.00 517.40 L 753.20 521.20 L 752.80 525.00 L 752.00 528.70 L 750.70 532.30 L 748.80 535.60 L 746.50 538.60 L 743.70 541.30 L 737.40 546.00 L 730.80 550.20 L 723.90 554.00 L 716.80 557.20 L 709.50 559.90 L 701.90 562.00 L 696.20 563.10 L 690.40 563.80 L 684.50 564.10 L 666.20 563.20 L 659.90 562.70 L 649.60 560.80 L 642.00 557.90 L 638.60 555.80 L 635.40 553.30 L 632.40 550.10 L 629.60 545.80 L 627.20 541.30 L 625.40 536.50 L 624.00 531.50 L 623.00 526.50 L 622.50 521.30 L 622.40 516.10 L 622.80 511.00 L 623.60 505.90 L 628.30 508.80 L 633.30 511.30 L 638.60 513.40 L 643.90 515.10 L 649.40 516.30 L 654.90 517.10 L 660.50 517.40 L 666.10 517.20 L 671.60 516.50 L 677.00 515.30 L 682.30 513.40 L 687.40 511.00 L 690.50 509.00 L 693.40 506.80 L 696.00 504.30 L 700.40 498.60 L 702.30 495.40 L 704.70 490.50 L 706.70 485.50 Z" fill="#f9cfd0" fill-rule="nonzero" node-id="90" stroke="none" target-height="78.599976" target-width="130.79999" target-x="622.4" target-y="485.5"></path><path d="M 360.10 500.60 L 362.40 501.00 L 363.80 501.60 L 364.70 502.40 L 365.20 503.40 L 365.30 504.60 L 365.00 506.00 L 364.10 508.00 L 362.40 510.10 L 360.30 511.90 L 358.00 513.40 L 355.40 514.50 L 353.00 514.90 L 351.40 514.70 L 350.00 514.20 L 348.70 513.20 L 348.40 510.70 L 348.70 508.50 L 349.40 506.70 L 352.00 503.80 L 353.80 502.60 L 356.80 501.40 L 360.10 500.60 Z" fill="#fbf4f3" fill-rule="nonzero" node-id="92" stroke="none" target-height="14.300018" target-width="16.899994" target-x="348.4" target-y="500.6"></path><path d="M 865.20 636.60 L 867.80 636.20 L 869.50 636.50 L 870.40 637.10 L 870.90 638.10 L 870.80 639.70 L 870.00 642.30 L 867.40 642.60 L 865.80 642.30 L 864.80 641.70 L 864.40 640.70 L 864.40 639.10 L 865.20 636.60 Z" fill="#2e1923" fill-rule="nonzero" node-id="94" stroke="none" target-height="6.3999634" target-width="6.5" target-x="864.4" target-y="636.2"></path><path d="M 581.70 767.20 L 589.60 765.30 L 597.50 763.90 L 605.60 763.10 L 613.70 762.70 L 621.80 762.90 L 629.90 763.50 L 637.90 764.50 L 645.80 766.10 L 640.40 767.70 L 631.30 769.30 L 624.40 769.90 L 603.60 770.50 L 596.70 771.00 L 589.80 771.90 L 581.00 774.30 L 573.70 777.30 L 568.70 780.70 L 565.40 783.90 L 562.40 787.40 L 557.10 794.90 L 551.70 795.30 L 553.70 791.00 L 556.10 786.90 L 558.80 783.00 L 561.90 779.40 L 565.30 776.20 L 569.00 773.30 L 573.00 770.80 L 577.20 768.80 L 581.70 767.20 Z" fill="#2e1923" fill-rule="nonzero" node-id="96" stroke="none" target-height="32.599976" target-width="94.099976" target-x="551.7" target-y="762.7"></path><path d="M 923.30 573.00 L 928.30 571.20 L 929.60 574.30 L 930.40 577.40 L 930.70 580.60 L 930.60 585.50 L 928.40 600.10 L 931.60 601.70 L 934.50 603.60 L 937.10 605.90 L 939.30 608.40 L 941.30 611.20 L 942.80 614.30 L 943.90 617.50 L 944.60 620.90 L 945.40 641.10 L 945.40 707.80 L 945.90 724.50 L 974.80 761.20 L 981.70 770.60 L 988.20 780.30 L 990.10 788.50 L 990.70 792.90 L 990.90 800.20 L 989.80 805.70 L 988.80 808.30 L 987.40 810.60 L 985.50 812.80 L 980.00 813.80 L 969.00 814.40 L 762.90 814.40 L 573.40 815.00 L 569.60 820.40 L 568.10 821.90 L 564.60 824.10 L 562.70 824.70 L 560.50 824.90 L 554.40 824.50 L 542.30 825.00 L 534.50 824.60 L 529.80 823.20 L 527.80 822.10 L 525.90 820.60 L 524.30 818.60 L 522.90 816.00 L 457.50 815.30 L 392.00 815.00 L 195.80 815.00 L 130.30 814.60 L 120.20 813.80 L 117.70 813.20 L 114.10 811.50 L 111.80 809.00 L 111.00 794.20 L 111.70 786.00 L 113.40 779.80 L 114.90 777.00 L 116.70 774.40 L 135.50 754.80 L 151.70 737.30 L 146.20 732.00 L 153.20 723.90 L 146.50 717.50 L 161.00 707.10 L 161.10 714.20 L 159.70 715.90 L 201.30 723.20 L 222.90 726.10 L 245.80 728.70 L 253.40 730.10 L 266.40 733.70 L 264.70 750.60 L 263.80 767.60 L 274.80 760.40 L 308.50 739.50 L 338.70 719.90 L 344.40 717.20 L 347.50 716.30 L 347.10 718.00 L 345.80 720.70 L 342.20 725.50 L 339.00 728.50 L 335.30 731.10 L 280.00 765.00 L 273.20 768.80 L 259.20 775.30 L 249.80 775.90 L 240.50 776.00 L 231.30 775.40 L 222.10 774.40 L 203.70 771.50 L 162.50 762.90 L 148.80 760.60 L 148.80 750.10 L 145.00 754.70 L 128.70 772.50 L 122.90 780.50 L 119.40 787.70 L 246.00 788.90 L 309.30 789.00 L 372.60 788.70 L 378.00 774.60 L 383.80 760.60 L 388.00 751.50 L 392.50 742.50 L 397.50 733.70 L 399.80 741.90 L 388.70 767.90 L 384.20 781.40 L 391.00 776.00 L 394.60 771.70 L 409.10 741.40 L 416.00 727.70 L 423.40 714.20 L 426.10 720.20 L 422.80 728.60 L 419.10 736.80 L 402.80 768.90 L 411.00 765.80 L 419.40 763.00 L 428.00 760.60 L 436.70 758.80 L 445.40 757.40 L 454.30 756.50 L 463.10 756.30 L 471.90 756.60 L 480.70 757.60 L 487.10 758.90 L 493.50 760.50 L 499.80 762.50 L 510.40 767.00 L 514.50 769.40 L 518.40 772.10 L 524.00 776.50 L 539.40 791.40 L 539.50 796.70 L 530.10 790.70 L 525.60 786.10 L 521.00 782.00 L 516.20 778.40 L 511.10 775.20 L 505.70 772.50 L 500.30 770.10 L 494.60 768.10 L 488.80 766.60 L 480.90 765.00 L 472.80 764.00 L 464.60 763.70 L 456.40 763.80 L 448.20 764.50 L 440.00 765.60 L 431.90 767.10 L 416.50 771.20 L 446.10 769.00 L 462.60 769.20 L 475.70 770.70 L 482.10 772.00 L 488.40 773.90 L 494.70 776.20 L 501.80 779.20 L 508.60 782.70 L 513.00 785.30 L 521.00 791.50 L 524.60 795.10 L 527.90 799.00 L 533.20 807.30 L 532.40 818.60 L 535.30 817.50 L 538.10 816.80 L 540.90 816.50 L 545.20 816.60 L 561.00 818.70 L 566.80 818.20 L 571.70 809.40 L 591.60 808.60 L 631.30 808.10 L 690.90 808.40 L 835.90 807.70 L 980.90 807.90 L 984.30 797.70 L 945.30 796.90 L 906.40 796.60 L 750.40 796.50 L 711.40 796.20 L 634.30 794.60 L 621.60 794.70 L 613.20 795.10 L 596.40 796.90 L 588.20 798.30 L 580.00 800.30 L 571.80 802.90 L 568.20 794.30 L 564.00 794.40 L 569.70 789.90 L 575.70 785.80 L 582.10 782.20 L 588.80 779.00 L 595.60 776.40 L 602.70 774.30 L 609.80 772.80 L 617.10 771.90 L 624.30 771.50 L 635.20 772.20 L 645.90 774.50 L 647.80 779.60 L 628.90 779.40 L 619.50 779.80 L 610.10 780.90 L 603.90 781.90 L 591.90 785.20 L 586.20 787.50 L 580.50 790.20 L 575.00 793.60 L 585.50 791.70 L 596.00 790.30 L 606.50 789.20 L 622.30 788.30 L 638.10 787.90 L 654.00 788.00 L 701.60 789.10 L 913.30 789.60 L 983.90 790.20 L 979.80 782.30 L 975.20 774.80 L 970.10 767.60 L 948.60 739.50 L 943.50 732.40 L 942.20 746.80 L 941.50 750.30 L 940.20 753.50 L 939.10 755.40 L 937.50 757.20 L 935.50 758.80 L 930.20 762.10 L 924.80 765.00 L 919.20 767.40 L 913.30 769.40 L 901.40 772.20 L 889.10 773.60 L 880.80 773.80 L 872.60 773.50 L 860.30 772.20 L 852.10 770.00 L 844.30 766.60 L 837.30 761.90 L 834.10 759.10 L 831.30 756.00 L 828.80 752.70 L 826.70 749.00 L 825.00 745.00 L 824.00 739.90 L 823.50 734.60 L 823.60 713.50 L 808.80 701.90 L 814.50 698.10 L 824.60 706.10 L 824.10 671.30 L 824.50 659.70 L 825.10 652.00 L 826.20 644.30 L 827.70 636.70 L 830.50 633.80 L 833.50 631.40 L 836.90 629.50 L 842.30 627.30 L 848.00 625.60 L 859.50 622.90 L 859.50 609.80 L 860.10 605.50 L 860.80 602.70 L 861.90 600.10 L 863.40 597.50 L 866.70 617.00 L 866.00 606.10 L 865.00 600.70 L 863.50 595.50 L 864.30 592.80 L 866.20 580.00 L 867.10 577.20 L 868.90 574.00 L 870.20 572.80 L 871.70 572.00 L 873.70 571.40 L 876.20 571.30 L 872.50 604.90 L 871.40 621.80 L 897.40 622.50 L 898.70 600.20 L 899.60 592.80 L 901.60 583.20 L 903.10 578.50 L 903.70 577.00 L 905.40 575.00 L 907.20 574.00 L 909.20 573.40 L 913.50 572.60 L 909.80 580.50 L 908.50 584.60 L 907.00 590.90 L 906.20 597.30 L 905.70 603.80 L 905.30 623.30 L 918.30 628.90 L 909.70 647.90 L 898.30 649.10 L 886.90 649.70 L 875.50 649.80 L 864.10 649.40 L 841.40 648.00 L 847.50 650.10 L 853.50 651.50 L 859.60 652.40 L 865.70 652.80 L 878.10 652.60 L 906.10 650.00 L 915.40 649.60 L 910.60 652.20 L 905.70 654.40 L 900.70 656.30 L 895.60 657.70 L 888.60 659.10 L 881.50 659.90 L 874.20 660.10 L 867.00 659.80 L 859.80 659.10 L 845.50 656.40 L 831.80 652.30 L 831.00 714.80 L 831.20 738.70 L 831.70 741.70 L 832.60 744.40 L 835.50 749.60 L 837.40 751.90 L 840.70 755.00 L 844.40 757.80 L 848.30 760.10 L 852.30 761.90 L 858.50 764.10 L 864.80 765.60 L 871.30 766.70 L 877.80 767.10 L 884.40 767.10 L 890.90 766.60 L 897.50 765.60 L 903.90 764.20 L 910.20 762.40 L 916.40 760.20 L 922.40 757.60 L 928.20 754.60 L 931.50 752.30 L 932.50 750.90 L 933.50 748.40 L 934.00 745.60 L 934.70 734.00 L 927.20 731.00 L 919.90 727.60 L 918.30 711.90 L 918.20 692.10 L 918.90 668.20 L 918.90 656.40 L 918.50 648.50 L 917.70 640.60 L 916.60 632.70 L 921.60 628.60 L 922.10 621.70 L 922.00 614.70 L 921.20 593.70 L 921.30 586.80 L 922.30 577.60 L 923.30 573.00 Z M 928.10 607.50 L 929.90 614.90 L 928.00 626.70 L 926.60 638.70 L 925.50 650.70 L 924.60 668.70 L 924.30 686.80 L 924.40 722.90 L 924.90 722.70 L 939.10 725.50 L 938.50 708.10 L 938.50 655.90 L 937.80 618.90 L 937.50 617.00 L 936.70 615.30 L 935.00 613.00 L 932.80 611.00 L 928.10 607.50 Z M 830.90 645.80 L 858.60 637.90 L 863.20 628.50 L 844.30 633.50 L 838.50 636.00 L 834.70 639.00 L 833.20 640.90 L 831.90 643.10 L 830.90 645.80 Z M 870.30 628.80 L 871.30 631.40 L 872.60 633.40 L 874.10 635.00 L 877.70 637.40 L 879.80 638.20 L 886.70 639.30 L 901.10 639.80 L 901.10 628.40 L 870.30 628.80 Z M 865.20 636.60 L 864.40 639.10 L 864.40 640.70 L 864.80 641.70 L 865.80 642.30 L 867.40 642.60 L 870.00 642.30 L 870.80 639.70 L 870.90 638.10 L 870.40 637.10 L 869.50 636.50 L 867.80 636.20 L 865.20 636.60 Z M 159.70 722.10 L 156.80 729.70 L 189.60 736.60 L 222.60 742.70 L 233.70 744.30 L 256.00 746.70 L 254.40 736.90 L 238.50 735.90 L 222.60 734.10 L 206.70 731.80 L 191.00 729.00 L 159.70 722.10 Z M 156.70 735.50 L 156.90 737.80 L 156.10 748.30 L 156.20 750.70 L 156.70 753.00 L 157.80 755.10 L 190.30 761.80 L 222.80 767.80 L 244.70 770.80 L 255.70 771.80 L 255.70 752.50 L 244.50 751.80 L 233.40 750.70 L 222.30 749.20 L 205.80 746.40 L 189.40 743.00 L 156.70 735.50 Z M 380.60 788.10 L 427.90 786.60 L 459.50 786.40 L 475.20 787.10 L 485.70 788.00 L 496.10 789.20 L 506.50 791.00 L 506.40 787.80 L 492.10 782.60 L 484.80 780.40 L 477.50 778.60 L 470.00 777.30 L 462.50 776.30 L 455.00 775.80 L 447.40 775.90 L 439.80 776.60 L 424.90 778.80 L 400.10 783.30 L 380.60 788.10 Z M 119.10 794.40 L 120.10 808.30 L 322.60 809.10 L 423.80 809.10 L 524.90 808.50 L 519.20 802.90 L 516.00 800.50 L 510.20 797.50 L 504.90 796.30 L 494.20 794.90 L 483.30 794.00 L 461.60 793.30 L 439.90 793.40 L 386.50 795.10 L 319.60 795.80 L 119.10 794.40 Z" fill="#734543" fill-rule="nonzero" node-id="98" stroke="none" target-height="253.79999" target-width="879.9" target-x="111" target-y="571.2"></path><path d="M 337.80 596.80 L 345.30 593.90 L 353.00 591.60 L 360.90 589.80 L 373.00 588.50 L 385.10 588.70 L 391.10 589.40 L 397.00 590.50 L 402.80 592.20 L 408.50 594.30 L 414.60 597.30 L 420.20 600.80 L 425.50 604.80 L 430.50 609.30 L 435.00 614.20 L 439.10 619.50 L 442.80 625.10 L 446.10 630.90 L 448.90 637.00 L 451.20 643.30 L 453.00 649.80 L 454.40 656.30 L 460.00 648.40 L 463.50 647.70 L 470.50 647.30 L 475.80 647.60 L 491.70 649.40 L 477.90 649.40 L 464.20 650.40 L 461.20 656.70 L 456.20 663.10 L 456.50 677.40 L 456.10 680.90 L 455.20 684.20 L 454.20 686.10 L 452.80 687.90 L 450.80 689.60 L 445.90 693.00 L 440.70 696.40 L 435.40 699.30 L 429.90 701.70 L 426.10 703.00 L 422.10 703.80 L 418.10 704.30 L 397.60 705.10 L 387.40 704.90 L 356.70 703.60 L 357.20 700.60 L 370.60 702.70 L 387.60 703.60 L 397.80 703.50 L 418.10 702.20 L 422.40 701.70 L 426.50 700.70 L 430.50 699.40 L 436.20 696.80 L 452.80 687.30 L 453.70 681.60 L 454.20 675.80 L 454.30 669.90 L 453.90 664.10 L 453.10 658.20 L 450.40 646.80 L 446.20 635.70 L 440.50 625.40 L 437.20 620.50 L 433.50 615.90 L 429.60 611.50 L 425.40 607.60 L 420.80 603.90 L 416.00 600.60 L 411.00 597.70 L 405.70 595.20 L 400.10 593.10 L 392.80 591.50 L 385.30 590.50 L 377.80 590.00 L 370.30 590.20 L 362.90 591.00 L 355.40 592.30 L 348.20 594.20 L 341.10 596.70 L 334.30 599.70 L 331.20 601.40 L 325.90 605.60 L 322.40 609.20 L 319.20 613.10 L 307.10 629.70 L 309.10 624.90 L 311.50 620.30 L 314.20 616.00 L 317.40 611.90 L 320.80 608.10 L 324.60 604.70 L 328.70 601.60 L 333.10 599.00 L 337.80 596.80 Z" fill="#e0cbc8" fill-rule="nonzero" node-id="100" stroke="none" target-height="116.599976" target-width="184.6" target-x="307.1" target-y="588.5"></path><path d="M 644.80 766.40 L 647.50 766.50 L 648.40 769.50 L 649.20 770.50 L 650.90 771.70 L 653.00 772.60 L 661.90 775.20 L 645.90 774.50 L 640.60 773.20 L 629.80 771.70 L 624.30 771.50 L 617.10 771.90 L 609.80 772.80 L 602.70 774.30 L 595.60 776.40 L 588.80 779.00 L 582.10 782.20 L 575.70 785.80 L 569.70 789.90 L 564.00 794.40 L 557.10 794.90 L 562.40 787.40 L 565.40 783.90 L 568.70 780.70 L 573.70 777.30 L 581.00 774.30 L 589.80 771.90 L 596.70 771.00 L 603.60 770.50 L 624.40 769.90 L 631.30 769.30 L 640.40 767.70 L 644.80 766.40 Z" fill="#e0cbc8" fill-rule="nonzero" node-id="102" stroke="none" target-height="28.5" target-width="104.80005" target-x="557.1" target-y="766.4"></path><path d="M 928.10 607.50 L 932.80 611.00 L 935.00 613.00 L 936.70 615.30 L 937.50 617.00 L 937.80 618.90 L 938.50 655.90 L 938.50 708.10 L 939.10 725.50 L 924.90 722.70 L 934.70 717.80 L 934.70 705.00 L 935.80 666.00 L 935.50 648.80 L 934.90 640.20 L 933.80 631.70 L 932.10 623.30 L 928.10 607.50 Z" fill="#c8a5e5" fill-rule="nonzero" node-id="104" stroke="none" target-height="118" target-width="14.199951" target-x="924.9" target-y="607.5"></path><path d="M 587.60 616.90 L 639.50 616.80 L 652.50 616.30 L 665.40 615.30 L 655.00 629.30 L 650.30 636.70 L 645.80 644.20 L 632.00 641.20 L 617.90 639.70 L 603.70 639.60 L 589.60 641.10 L 582.60 642.30 L 575.70 644.00 L 569.00 646.10 L 562.30 648.50 L 555.90 651.40 L 549.60 654.60 L 543.50 658.30 L 537.70 662.40 L 532.00 658.30 L 526.10 654.70 L 520.00 651.60 L 513.60 649.10 L 507.00 647.00 L 500.30 645.40 L 486.60 643.20 L 479.60 642.70 L 469.20 642.50 L 458.90 642.90 L 445.80 616.60 L 493.10 617.10 L 587.60 616.90 Z" fill="#c47f5f" fill-rule="nonzero" node-id="106" stroke="none" target-height="47.100037" target-width="219.60004" target-x="445.8" target-y="615.3"></path><path d="M 929.90 614.90 L 932.10 623.30 L 933.80 631.70 L 934.80 640.20 L 935.50 648.80 L 935.80 666.00 L 934.70 705.00 L 934.70 717.80 L 924.40 722.90 L 924.30 686.80 L 924.60 668.70 L 925.50 650.70 L 926.60 638.70 L 928.00 626.70 L 929.90 614.90 Z" fill="#c199d6" fill-rule="nonzero" node-id="108" stroke="none" target-height="108" target-width="11.5" target-x="924.3" target-y="614.9"></path><path d="M 830.90 645.80 L 831.90 643.10 L 833.20 640.90 L 836.50 637.40 L 840.70 634.90 L 848.10 632.30 L 863.20 628.50 L 858.60 637.90 L 830.90 645.80 Z" fill="#b97763" fill-rule="nonzero" node-id="110" stroke="none" target-height="17.299988" target-width="32.299988" target-x="830.9" target-y="628.5"></path><path d="M 870.30 628.80 L 901.10 628.40 L 901.10 639.80 L 886.70 639.30 L 879.80 638.20 L 877.70 637.40 L 874.10 635.00 L 872.60 633.40 L 871.30 631.40 L 870.30 628.80 Z" fill="#a4665e" fill-rule="nonzero" node-id="112" stroke="none" target-height="11.399963" target-width="30.799988" target-x="870.3" target-y="628.4"></path><path d="M 909.70 647.90 L 916.60 632.70 L 917.70 640.60 L 918.50 648.50 L 918.90 656.40 L 918.90 668.20 L 918.10 703.90 L 918.90 719.80 L 919.90 727.60 L 927.20 731.00 L 934.70 734.00 L 934.00 745.60 L 933.50 748.40 L 932.50 750.90 L 931.50 752.30 L 930.10 753.50 L 922.40 757.60 L 916.40 760.20 L 910.20 762.40 L 903.90 764.20 L 897.50 765.60 L 890.90 766.60 L 884.40 767.10 L 877.80 767.10 L 871.30 766.70 L 864.80 765.60 L 858.50 764.10 L 852.30 761.90 L 848.30 760.10 L 844.30 757.80 L 840.70 755.00 L 837.40 751.90 L 833.90 747.10 L 832.60 744.40 L 831.70 741.70 L 831.20 738.70 L 831.00 714.80 L 831.80 652.30 L 845.50 656.40 L 859.80 659.10 L 867.00 659.80 L 874.20 660.10 L 881.50 659.90 L 888.60 659.10 L 895.60 657.70 L 900.70 656.30 L 905.70 654.40 L 910.60 652.20 L 915.40 649.60 L 906.10 650.00 L 878.10 652.60 L 865.70 652.80 L 859.60 652.40 L 853.50 651.50 L 847.50 650.10 L 841.40 648.00 L 864.10 649.40 L 875.50 649.80 L 886.90 649.70 L 898.30 649.10 L 909.70 647.90 Z" fill="#d88764" fill-rule="nonzero" node-id="114" stroke="none" target-height="134.39996" target-width="103.70001" target-x="831" target-y="632.7"></path><path d="M 265.20 652.60 L 282.20 644.30 L 288.00 641.80 L 300.00 637.80 L 306.00 636.30 L 312.20 635.20 L 318.50 634.60 L 325.90 634.50 L 333.40 634.90 L 338.40 635.50 L 348.00 637.70 L 352.70 639.30 L 357.10 641.30 L 361.30 643.80 L 365.30 646.70 L 368.90 650.10 L 372.20 654.00 L 358.90 666.10 L 351.90 671.70 L 344.60 677.00 L 303.10 705.20 L 282.10 718.90 L 260.80 732.10 L 253.40 730.10 L 245.80 728.70 L 222.90 726.10 L 201.30 723.20 L 159.70 715.90 L 161.10 714.20 L 230.20 672.50 L 265.20 652.60 Z" fill="#d78d6b" fill-rule="nonzero" node-id="116" stroke="none" target-height="97.599976" target-width="212.50002" target-x="159.7" target-y="634.5"></path><path d="M 552.30 659.50 L 559.40 656.00 L 566.50 652.90 L 573.90 650.40 L 581.40 648.50 L 589.10 647.00 L 596.80 646.00 L 604.60 645.50 L 612.50 645.50 L 620.30 645.90 L 628.10 646.70 L 635.80 648.00 L 643.40 649.60 L 639.00 663.10 L 630.80 661.20 L 622.40 659.70 L 614.00 658.80 L 605.50 658.50 L 597.00 658.70 L 588.60 659.50 L 576.20 661.80 L 564.10 665.50 L 558.20 667.90 L 552.60 670.70 L 547.00 673.80 L 541.60 677.40 L 543.50 670.40 L 544.90 667.10 L 546.70 664.10 L 548.30 662.30 L 552.30 659.50 Z" fill="#f0e9e1" fill-rule="nonzero" node-id="118" stroke="none" target-height="31.900024" target-width="101.80005" target-x="541.6" target-y="645.5"></path><path d="M 464.20 650.40 L 477.90 649.40 L 491.70 649.40 L 508.50 653.40 L 514.30 655.10 L 519.90 657.20 L 525.00 659.80 L 528.20 661.90 L 531.00 664.30 L 533.40 667.00 L 535.50 670.00 L 537.00 673.50 L 538.10 677.60 L 530.90 674.00 L 523.50 670.90 L 515.90 668.30 L 508.10 666.20 L 500.30 664.60 L 492.30 663.60 L 470.40 662.10 L 465.00 661.30 L 459.70 659.80 L 464.20 650.40 Z" fill="#f8f5f0" fill-rule="nonzero" node-id="120" stroke="none" target-height="28.199951" target-width="78.39996" target-x="459.7" target-y="649.4"></path><path d="M 266.40 733.70 L 284.70 723.90 L 306.80 710.20 L 371.20 665.90 L 367.80 669.40 L 349.70 685.70 L 348.40 690.70 L 347.70 695.70 L 347.30 706.00 L 347.50 716.30 L 344.40 717.20 L 338.70 719.90 L 308.50 739.50 L 274.80 760.40 L 263.80 767.60 L 264.70 750.60 L 266.40 733.70 Z" fill="#d1c6c4" fill-rule="nonzero" node-id="122" stroke="none" target-height="101.69995" target-width="107.400024" target-x="263.8" target-y="665.9"></path><path d="M 544.00 682.90 L 549.20 679.40 L 554.40 676.20 L 559.80 673.50 L 565.40 671.10 L 573.00 668.50 L 580.80 666.50 L 588.80 665.10 L 596.80 664.30 L 604.90 664.00 L 613.10 664.20 L 621.20 664.90 L 629.30 666.00 L 637.20 667.50 L 638.00 680.30 L 638.70 684.50 L 640.30 690.00 L 641.60 692.60 L 643.90 696.30 L 646.60 699.80 L 649.50 703.00 L 654.40 707.40 L 659.70 711.40 L 670.50 718.90 L 673.30 733.00 L 676.60 747.00 L 684.20 774.70 L 656.80 768.10 L 647.50 766.50 L 644.80 766.40 L 645.80 766.10 L 637.80 764.50 L 629.90 763.50 L 621.80 762.90 L 613.70 762.70 L 605.60 763.10 L 597.50 763.90 L 589.60 765.30 L 581.70 767.20 L 577.20 768.80 L 573.00 770.80 L 569.00 773.30 L 565.30 776.20 L 561.90 779.40 L 558.80 783.00 L 556.10 786.90 L 553.70 791.00 L 549.50 799.60 L 564.80 803.40 L 554.90 805.00 L 542.20 803.90 L 548.70 790.70 L 545.80 753.90 L 545.10 736.20 L 544.00 682.90 Z" fill="#fcfcfd" fill-rule="nonzero" node-id="124" stroke="none" target-height="141" target-width="142" target-x="542.2" target-y="664"></path><path d="M 464.00 668.00 L 483.00 668.50 L 492.60 669.20 L 502.10 670.60 L 508.40 671.80 L 520.50 675.50 L 526.30 677.90 L 531.90 680.90 L 537.30 684.40 L 538.20 692.10 L 539.00 707.50 L 538.90 742.40 L 539.40 791.40 L 524.00 776.50 L 518.40 772.10 L 514.50 769.40 L 510.40 767.00 L 499.80 762.50 L 493.50 760.50 L 487.10 758.90 L 480.70 757.60 L 471.90 756.60 L 463.10 756.30 L 454.30 756.50 L 445.40 757.40 L 436.70 758.80 L 428.00 760.60 L 419.40 763.00 L 411.00 765.80 L 402.80 768.90 L 419.10 736.80 L 422.80 728.60 L 427.40 716.90 L 429.10 714.00 L 431.00 711.40 L 434.30 707.90 L 438.00 704.70 L 454.50 693.60 L 458.40 690.50 L 461.80 687.00 L 463.00 684.10 L 463.50 680.90 L 464.00 668.00 Z" fill="#fefefe" fill-rule="nonzero" node-id="126" stroke="none" target-height="123.400024" target-width="136.60004" target-x="402.8" target-y="668"></path><path d="M 734.90 721.80 L 742.10 719.70 L 749.10 717.10 L 755.90 714.00 L 765.80 708.80 L 775.40 703.00 L 794.20 690.60 L 823.60 713.50 L 823.50 734.60 L 824.00 739.90 L 825.00 745.00 L 826.70 749.00 L 828.80 752.70 L 831.30 756.00 L 834.10 759.10 L 837.30 761.90 L 844.30 766.60 L 852.10 770.00 L 860.30 772.20 L 872.60 773.50 L 880.80 773.80 L 889.10 773.60 L 901.40 772.20 L 913.30 769.40 L 919.20 767.40 L 924.80 765.00 L 930.20 762.10 L 935.50 758.80 L 937.50 757.20 L 939.10 755.40 L 940.20 753.50 L 941.50 750.30 L 942.20 746.80 L 943.50 732.40 L 948.60 739.50 L 970.10 767.60 L 975.20 774.80 L 979.80 782.30 L 983.90 790.20 L 913.30 789.60 L 701.60 789.10 L 703.80 788.10 L 703.90 782.60 L 702.90 771.70 L 701.50 763.70 L 699.50 755.80 L 690.20 724.30 L 705.20 724.90 L 712.70 724.90 L 720.10 724.50 L 730.00 723.00 L 734.90 721.80 Z" fill="#ce8964" fill-rule="nonzero" node-id="128" stroke="none" target-height="99.60004" target-width="293.7" target-x="690.2" target-y="690.6"></path><path d="M 399.80 741.90 L 408.70 723.50 L 411.40 719.30 L 414.40 715.30 L 419.20 710.60 L 422.10 708.60 L 426.10 720.20 L 423.40 714.20 L 416.00 727.70 L 409.10 741.40 L 394.60 771.70 L 392.90 774.00 L 388.80 777.90 L 384.20 781.40 L 386.30 774.60 L 388.70 767.90 L 399.80 741.90 Z" fill="#bf8d7f" fill-rule="nonzero" node-id="130" stroke="none" target-height="72.80005" target-width="41.899994" target-x="384.2" target-y="708.6"></path><path d="M 347.50 716.30 L 355.00 714.80 L 362.50 713.90 L 370.10 713.40 L 408.30 713.20 L 388.00 751.50 L 383.80 760.60 L 378.00 774.60 L 372.60 788.70 L 309.30 789.00 L 246.00 788.90 L 119.40 787.70 L 122.90 780.50 L 128.70 772.50 L 145.00 754.70 L 148.80 750.10 L 148.80 760.60 L 162.50 762.90 L 203.70 771.50 L 222.10 774.40 L 231.30 775.40 L 240.50 776.00 L 249.80 775.90 L 259.20 775.30 L 266.30 772.20 L 280.00 765.00 L 335.30 731.10 L 339.00 728.50 L 342.20 725.50 L 344.10 723.20 L 347.10 718.00 L 347.50 716.30 Z" fill="#ce8965" fill-rule="nonzero" node-id="132" stroke="none" target-height="75.79999" target-width="288.9" target-x="119.4" target-y="713.2"></path><path d="M 159.70 722.10 L 191.00 729.00 L 206.70 731.80 L 222.60 734.10 L 238.50 735.90 L 254.40 736.90 L 256.00 746.70 L 233.70 744.30 L 222.60 742.70 L 189.60 736.60 L 156.80 729.70 L 159.70 722.10 Z" fill="#9c6156" fill-rule="nonzero" node-id="134" stroke="none" target-height="24.600037" target-width="99.2" target-x="156.8" target-y="722.1"></path><path d="M 156.70 735.50 L 189.40 743.00 L 205.80 746.40 L 222.30 749.20 L 233.40 750.70 L 244.50 751.80 L 255.70 752.50 L 255.70 771.80 L 244.70 770.80 L 222.80 767.80 L 190.30 761.80 L 157.80 755.10 L 156.70 753.00 L 156.20 750.70 L 156.10 748.30 L 156.90 737.80 L 156.70 735.50 Z" fill="#cfcbd0" fill-rule="nonzero" node-id="136" stroke="none" target-height="36.299988" target-width="99.59999" target-x="156.1" target-y="735.5"></path><path d="M 539.10 754.00 L 545.80 753.90 L 548.70 790.70 L 539.50 809.00 L 561.60 812.60 L 554.90 805.00 L 564.80 803.40 L 549.50 799.60 L 551.70 795.30 L 568.20 794.30 L 571.80 802.90 L 571.70 809.40 L 566.80 818.20 L 561.00 818.70 L 545.20 816.60 L 540.90 816.50 L 538.10 816.80 L 535.30 817.50 L 532.40 818.60 L 533.20 807.30 L 533.20 803.00 L 532.60 798.80 L 530.10 790.70 L 539.50 796.70 L 539.10 754.00 Z" fill="#2f1724" fill-rule="nonzero" node-id="138" stroke="none" target-height="64.79999" target-width="41.700012" target-x="530.1" target-y="753.9"></path><path d="M 416.50 771.20 L 431.90 767.10 L 440.00 765.60 L 448.20 764.50 L 456.40 763.80 L 464.60 763.70 L 472.80 764.00 L 480.90 765.00 L 488.80 766.60 L 494.60 768.10 L 500.30 770.10 L 505.70 772.50 L 511.10 775.20 L 516.20 778.40 L 521.00 782.00 L 525.60 786.10 L 530.10 790.70 L 532.60 798.80 L 533.20 803.00 L 533.20 807.30 L 527.90 799.00 L 524.60 795.10 L 521.00 791.50 L 517.10 788.30 L 508.60 782.70 L 501.80 779.20 L 488.40 773.90 L 482.10 772.00 L 475.70 770.70 L 462.60 769.20 L 446.10 769.00 L 416.50 771.20 Z" fill="#f6d0d0" fill-rule="nonzero" node-id="140" stroke="none" target-height="43.599976" target-width="116.70001" target-x="416.5" target-y="763.7"></path><path d="M 380.60 788.10 L 400.10 783.30 L 410.00 781.30 L 439.80 776.60 L 447.40 775.90 L 455.00 775.80 L 462.50 776.30 L 470.00 777.30 L 477.50 778.60 L 484.80 780.40 L 492.10 782.60 L 506.40 787.80 L 506.50 791.00 L 496.10 789.20 L 485.70 788.00 L 475.20 787.10 L 459.50 786.40 L 443.70 786.30 L 427.90 786.60 L 380.60 788.10 Z" fill="#ba6e5e" fill-rule="nonzero" node-id="142" stroke="none" target-height="15.200012" target-width="125.899994" target-x="380.6" target-y="775.8"></path><path d="M 575.00 793.60 L 580.50 790.20 L 586.20 787.50 L 591.90 785.20 L 597.90 783.40 L 610.10 780.90 L 619.50 779.80 L 628.90 779.40 L 647.80 779.60 L 666.60 781.00 L 676.00 782.30 L 694.60 785.80 L 703.80 788.10 L 701.60 789.10 L 654.00 788.00 L 638.10 787.90 L 622.30 788.30 L 606.50 789.20 L 596.00 790.30 L 585.50 791.70 L 575.00 793.60 Z" fill="#ca8070" fill-rule="nonzero" node-id="144" stroke="none" target-height="14.199951" target-width="128.79999" target-x="575" target-y="779.4"></path><path d="M 119.10 794.40 L 319.60 795.80 L 386.50 795.10 L 439.90 793.40 L 472.50 793.50 L 483.30 794.00 L 494.20 794.90 L 507.60 796.80 L 512.60 798.60 L 516.00 800.50 L 519.20 802.90 L 524.90 808.50 L 423.80 809.10 L 322.60 809.10 L 120.10 808.30 L 119.10 794.40 Z" fill="#bd7763" fill-rule="nonzero" node-id="146" stroke="none" target-height="15.699951" target-width="405.80002" target-x="119.1" target-y="793.4"></path><path d="M 571.80 802.90 L 580.00 800.30 L 588.20 798.30 L 596.40 796.90 L 613.20 795.10 L 621.60 794.70 L 634.30 794.60 L 711.40 796.20 L 750.40 796.50 L 906.40 796.60 L 945.30 796.90 L 984.30 797.70 L 980.90 807.90 L 835.90 807.70 L 690.90 808.40 L 631.30 808.10 L 591.60 808.60 L 571.70 809.40 L 571.80 802.90 Z" fill="#c37a64" fill-rule="nonzero" node-id="148" stroke="none" target-height="14.800049" target-width="412.59998" target-x="571.7" target-y="794.6"></path><path d="M 539.50 809.00 L 542.20 803.90 L 554.90 805.00 L 561.60 812.60 L 539.50 809.00 Z" fill="#381d26" fill-rule="nonzero" node-id="150" stroke="none" target-height="8.699951" target-width="22.099976" target-x="539.5" target-y="803.9"></path></svg>