<?xml version="1.0" standalone="no"?><!DOCTYPE svg PUBLIC "-//W3C//DTD SVG 1.1//EN" "http://www.w3.org/Graphics/SVG/1.1/DTD/svg11.dtd"><svg t="1723274923843" class="icon" viewBox="0 0 1024 1024" version="1.1" xmlns="http://www.w3.org/2000/svg" p-id="6394" xmlns:xlink="http://www.w3.org/1999/xlink" width="200" height="200"><path d="M881.837588 209.999851L685.756193 13.999696C676.75306 4.999712 664.551345 0 651.743166 0H639.741717v255.999843H895.842322v-12.201085a47.838278 47.838278 0 0 0-14.004734-33.798907M895.842322 320.000433v656.000069c0 26.597533-21.405114 47.998868-48.018391 47.998868H175.545043C148.937434 1023.99937 127.527912 1002.598035 127.527912 976.000502V47.996349C127.527912 21.401335 148.938063 0 175.545043 0h400.165855v272.002194c0 26.395379 21.609787 47.998239 48.02217 47.998239H895.842322z" fill="#DD2F2D" p-id="6395" data-spm-anchor-id="a313x.search_index.0.i12.6d833a81pvk6jg" class="selected"></path><path d="M277.950648 385.428073L313.436068 616.225943h213.776557l0.761387 7.493585 15.751075 141.760306h207.357354l-4.315786-169.752141-0.210342-0.00063 0.018264-7.551523-5.135741-202.015679 8.814203-0.224197 4.693016 184.621545 141.872405 0.357077-0.062977 25.190636-141.168956-0.355188 8.115793 319.186776-8.814204 0.224197-3.165203-124.489607H537.081687l-2.390591-25.190636h0.162479l-13.767942-123.916519-203.775875-0.143587 41.961303 272.908428-8.714701 1.339512L331.095334 789.096686H127.527912v-25.190637h199.694362l-57.985697-377.138464 8.714071-1.339512z" fill="#FFFFFF" p-id="6396"></path><path d="M295.040606 512.298194l5.697492 26.127098-173.531367 0.364005-0.049751-25.190636 167.883626-1.300467zM448.726159 428.253414l17.659266 59.169027 284.690718 3.507796-0.309845 25.188117-303.21969-3.734512-17.579915-58.903265-147.176294 0.290322-0.050381-25.190636 165.986141-0.327478z m297.893131-13.269167l150.19917 0.377859-0.062977 25.190637-150.19917-0.37786 0.062977-25.190636z" fill="#FFFFFF" opacity=".701" p-id="6397"></path></svg>